ISO-10303-21;
HEADER;
/* Generated by software containing ST-Developer
 * from STEP Tools, Inc. (www.steptools.com) 
 */

FILE_DESCRIPTION(
/* description */ ('KiCad electronic assembly'),
/* implementation_level */ '2;1');

FILE_NAME(
/* name */ 'Mini Kindle Top Cover.step',
/* time_stamp */ '2026-06-05T14:01:53-04:00',
/* author */ (''),
/* organization */ (''),
/* preprocessor_version */ 'ST-DEVELOPER v20.1',
/* originating_system */ 'Autodesk Translation Framework v14.24.0.0',
/* authorisation */ '');

FILE_SCHEMA (('AUTOMOTIVE_DESIGN { 1 0 10303 214 3 1 1 }'));
ENDSEC;

DATA;
#10=MECHANICAL_DESIGN_GEOMETRIC_PRESENTATION_REPRESENTATION('',(#13),#749);
#11=SHAPE_REPRESENTATION_RELATIONSHIP('SRR','None',#755,#12);
#12=ADVANCED_BREP_SHAPE_REPRESENTATION('',(#14),#748);
#13=STYLED_ITEM('',(#764),#14);
#14=MANIFOLD_SOLID_BREP('Body8',#457);
#15=ELLIPSE('',#483,0.353553390593274,0.25);
#16=ELLIPSE('',#484,0.353553390593274,0.25);
#17=ELLIPSE('',#486,0.353553390593261,0.25);
#18=ELLIPSE('',#488,0.353553390593286,0.25);
#19=FACE_BOUND('',#73,.T.);
#20=FACE_BOUND('',#74,.T.);
#21=FACE_BOUND('',#87,.T.);
#22=FACE_BOUND('',#88,.T.);
#23=PLANE('',#462);
#24=PLANE('',#466);
#25=PLANE('',#470);
#26=PLANE('',#474);
#27=PLANE('',#475);
#28=PLANE('',#476);
#29=PLANE('',#477);
#30=PLANE('',#478);
#31=PLANE('',#479);
#32=PLANE('',#480);
#33=PLANE('',#481);
#34=PLANE('',#490);
#35=PLANE('',#491);
#36=PLANE('',#492);
#37=PLANE('',#493);
#38=PLANE('',#494);
#39=FACE_OUTER_BOUND('',#63,.T.);
#40=FACE_OUTER_BOUND('',#64,.T.);
#41=FACE_OUTER_BOUND('',#65,.T.);
#42=FACE_OUTER_BOUND('',#66,.T.);
#43=FACE_OUTER_BOUND('',#67,.T.);
#44=FACE_OUTER_BOUND('',#68,.T.);
#45=FACE_OUTER_BOUND('',#69,.T.);
#46=FACE_OUTER_BOUND('',#70,.T.);
#47=FACE_OUTER_BOUND('',#71,.T.);
#48=FACE_OUTER_BOUND('',#72,.T.);
#49=FACE_OUTER_BOUND('',#75,.T.);
#50=FACE_OUTER_BOUND('',#76,.T.);
#51=FACE_OUTER_BOUND('',#77,.T.);
#52=FACE_OUTER_BOUND('',#78,.T.);
#53=FACE_OUTER_BOUND('',#79,.T.);
#54=FACE_OUTER_BOUND('',#80,.T.);
#55=FACE_OUTER_BOUND('',#81,.T.);
#56=FACE_OUTER_BOUND('',#82,.T.);
#57=FACE_OUTER_BOUND('',#83,.T.);
#58=FACE_OUTER_BOUND('',#84,.T.);
#59=FACE_OUTER_BOUND('',#85,.T.);
#60=FACE_OUTER_BOUND('',#86,.T.);
#61=FACE_OUTER_BOUND('',#89,.T.);
#62=FACE_OUTER_BOUND('',#90,.T.);
#63=EDGE_LOOP('',(#301,#302,#303,#304));
#64=EDGE_LOOP('',(#305,#306,#307,#308));
#65=EDGE_LOOP('',(#309,#310,#311,#312));
#66=EDGE_LOOP('',(#313,#314,#315,#316));
#67=EDGE_LOOP('',(#317,#318,#319,#320));
#68=EDGE_LOOP('',(#321,#322,#323,#324));
#69=EDGE_LOOP('',(#325,#326,#327,#328));
#70=EDGE_LOOP('',(#329,#330,#331,#332));
#71=EDGE_LOOP('',(#333,#334,#335,#336));
#72=EDGE_LOOP('',(#337,#338,#339,#340));
#73=EDGE_LOOP('',(#341,#342,#343,#344,#345,#346,#347,#348));
#74=EDGE_LOOP('',(#349,#350,#351,#352,#353,#354));
#75=EDGE_LOOP('',(#355,#356,#357,#358));
#76=EDGE_LOOP('',(#359,#360,#361,#362));
#77=EDGE_LOOP('',(#363,#364,#365,#366));
#78=EDGE_LOOP('',(#367,#368,#369,#370));
#79=EDGE_LOOP('',(#371,#372,#373,#374));
#80=EDGE_LOOP('',(#375,#376,#377,#378));
#81=EDGE_LOOP('',(#379,#380,#381,#382));
#82=EDGE_LOOP('',(#383,#384,#385,#386));
#83=EDGE_LOOP('',(#387,#388,#389,#390));
#84=EDGE_LOOP('',(#391,#392,#393,#394));
#85=EDGE_LOOP('',(#395,#396,#397,#398));
#86=EDGE_LOOP('',(#399,#400,#401,#402));
#87=EDGE_LOOP('',(#403,#404,#405,#406,#407,#408,#409,#410));
#88=EDGE_LOOP('',(#411,#412,#413,#414,#415,#416));
#89=EDGE_LOOP('',(#417,#418,#419,#420));
#90=EDGE_LOOP('',(#421,#422,#423,#424));
#91=LINE('',#625,#141);
#92=LINE('',#628,#142);
#93=LINE('',#631,#143);
#94=LINE('',#633,#144);
#95=LINE('',#634,#145);
#96=LINE('',#640,#146);
#97=LINE('',#643,#147);
#98=LINE('',#645,#148);
#99=LINE('',#646,#149);
#100=LINE('',#652,#150);
#101=LINE('',#655,#151);
#102=LINE('',#657,#152);
#103=LINE('',#658,#153);
#104=LINE('',#663,#154);
#105=LINE('',#666,#155);
#106=LINE('',#667,#156);
#107=LINE('',#671,#157);
#108=LINE('',#673,#158);
#109=LINE('',#675,#159);
#110=LINE('',#676,#160);
#111=LINE('',#680,#161);
#112=LINE('',#682,#162);
#113=LINE('',#684,#163);
#114=LINE('',#685,#164);
#115=LINE('',#687,#165);
#116=LINE('',#689,#166);
#117=LINE('',#691,#167);
#118=LINE('',#693,#168);
#119=LINE('',#694,#169);
#120=LINE('',#697,#170);
#121=LINE('',#698,#171);
#122=LINE('',#701,#172);
#123=LINE('',#702,#173);
#124=LINE('',#705,#174);
#125=LINE('',#706,#175);
#126=LINE('',#709,#176);
#127=LINE('',#710,#177);
#128=LINE('',#712,#178);
#129=LINE('',#716,#179);
#130=LINE('',#720,#180);
#131=LINE('',#724,#181);
#132=LINE('',#727,#182);
#133=LINE('',#730,#183);
#134=LINE('',#733,#184);
#135=LINE('',#735,#185);
#136=LINE('',#736,#186);
#137=LINE('',#738,#187);
#138=LINE('',#739,#188);
#139=LINE('',#741,#189);
#140=LINE('',#744,#190);
#141=VECTOR('',#501,10.);
#142=VECTOR('',#504,10.);
#143=VECTOR('',#507,10.);
#144=VECTOR('',#508,10.);
#145=VECTOR('',#509,10.);
#146=VECTOR('',#514,10.);
#147=VECTOR('',#517,10.);
#148=VECTOR('',#520,10.);
#149=VECTOR('',#521,10.);
#150=VECTOR('',#526,10.);
#151=VECTOR('',#529,10.);
#152=VECTOR('',#532,10.);
#153=VECTOR('',#533,10.);
#154=VECTOR('',#538,10.);
#155=VECTOR('',#543,10.);
#156=VECTOR('',#544,10.);
#157=VECTOR('',#547,10.);
#158=VECTOR('',#548,10.);
#159=VECTOR('',#549,10.);
#160=VECTOR('',#550,10.);
#161=VECTOR('',#553,10.);
#162=VECTOR('',#554,10.);
#163=VECTOR('',#555,10.);
#164=VECTOR('',#556,10.);
#165=VECTOR('',#557,10.);
#166=VECTOR('',#558,10.);
#167=VECTOR('',#559,10.);
#168=VECTOR('',#560,10.);
#169=VECTOR('',#561,10.);
#170=VECTOR('',#564,10.);
#171=VECTOR('',#565,10.);
#172=VECTOR('',#568,10.);
#173=VECTOR('',#569,10.);
#174=VECTOR('',#572,10.);
#175=VECTOR('',#573,10.);
#176=VECTOR('',#576,10.);
#177=VECTOR('',#577,10.);
#178=VECTOR('',#580,10.);
#179=VECTOR('',#583,10.);
#180=VECTOR('',#586,10.);
#181=VECTOR('',#591,10.);
#182=VECTOR('',#594,10.);
#183=VECTOR('',#597,10.);
#184=VECTOR('',#600,10.);
#185=VECTOR('',#603,10.);
#186=VECTOR('',#604,10.);
#187=VECTOR('',#607,10.);
#188=VECTOR('',#608,10.);
#189=VECTOR('',#611,10.);
#190=VECTOR('',#616,10.);
#191=CIRCLE('',#460,2.874);
#192=CIRCLE('',#461,2.874);
#193=CIRCLE('',#464,2.874);
#194=CIRCLE('',#465,2.874);
#195=CIRCLE('',#468,2.874);
#196=CIRCLE('',#469,2.874);
#197=CIRCLE('',#472,2.874);
#198=CIRCLE('',#473,2.874);
#199=VERTEX_POINT('',#621);
#200=VERTEX_POINT('',#622);
#201=VERTEX_POINT('',#624);
#202=VERTEX_POINT('',#626);
#203=VERTEX_POINT('',#630);
#204=VERTEX_POINT('',#632);
#205=VERTEX_POINT('',#636);
#206=VERTEX_POINT('',#637);
#207=VERTEX_POINT('',#639);
#208=VERTEX_POINT('',#641);
#209=VERTEX_POINT('',#648);
#210=VERTEX_POINT('',#649);
#211=VERTEX_POINT('',#651);
#212=VERTEX_POINT('',#653);
#213=VERTEX_POINT('',#660);
#214=VERTEX_POINT('',#662);
#215=VERTEX_POINT('',#669);
#216=VERTEX_POINT('',#670);
#217=VERTEX_POINT('',#672);
#218=VERTEX_POINT('',#674);
#219=VERTEX_POINT('',#678);
#220=VERTEX_POINT('',#679);
#221=VERTEX_POINT('',#681);
#222=VERTEX_POINT('',#683);
#223=VERTEX_POINT('',#686);
#224=VERTEX_POINT('',#688);
#225=VERTEX_POINT('',#690);
#226=VERTEX_POINT('',#692);
#227=VERTEX_POINT('',#696);
#228=VERTEX_POINT('',#700);
#229=VERTEX_POINT('',#704);
#230=VERTEX_POINT('',#708);
#231=VERTEX_POINT('',#714);
#232=VERTEX_POINT('',#715);
#233=VERTEX_POINT('',#717);
#234=VERTEX_POINT('',#719);
#235=VERTEX_POINT('',#723);
#236=VERTEX_POINT('',#725);
#237=VERTEX_POINT('',#729);
#238=VERTEX_POINT('',#731);
#239=EDGE_CURVE('',#199,#200,#191,.T.);
#240=EDGE_CURVE('',#200,#201,#91,.T.);
#241=EDGE_CURVE('',#201,#202,#192,.T.);
#242=EDGE_CURVE('',#202,#199,#92,.T.);
#243=EDGE_CURVE('',#203,#200,#93,.T.);
#244=EDGE_CURVE('',#204,#203,#94,.T.);
#245=EDGE_CURVE('',#201,#204,#95,.T.);
#246=EDGE_CURVE('',#205,#206,#193,.T.);
#247=EDGE_CURVE('',#206,#207,#96,.T.);
#248=EDGE_CURVE('',#207,#208,#194,.T.);
#249=EDGE_CURVE('',#208,#205,#97,.T.);
#250=EDGE_CURVE('',#207,#202,#98,.T.);
#251=EDGE_CURVE('',#199,#206,#99,.T.);
#252=EDGE_CURVE('',#209,#210,#195,.T.);
#253=EDGE_CURVE('',#210,#211,#100,.T.);
#254=EDGE_CURVE('',#211,#212,#196,.T.);
#255=EDGE_CURVE('',#212,#209,#101,.T.);
#256=EDGE_CURVE('',#211,#208,#102,.T.);
#257=EDGE_CURVE('',#205,#210,#103,.T.);
#258=EDGE_CURVE('',#203,#213,#197,.T.);
#259=EDGE_CURVE('',#213,#214,#104,.T.);
#260=EDGE_CURVE('',#214,#204,#198,.T.);
#261=EDGE_CURVE('',#214,#212,#105,.T.);
#262=EDGE_CURVE('',#209,#213,#106,.T.);
#263=EDGE_CURVE('',#215,#216,#107,.T.);
#264=EDGE_CURVE('',#216,#217,#108,.T.);
#265=EDGE_CURVE('',#218,#217,#109,.T.);
#266=EDGE_CURVE('',#218,#215,#110,.T.);
#267=EDGE_CURVE('',#219,#220,#111,.T.);
#268=EDGE_CURVE('',#220,#221,#112,.T.);
#269=EDGE_CURVE('',#221,#222,#113,.T.);
#270=EDGE_CURVE('',#222,#219,#114,.T.);
#271=EDGE_CURVE('',#215,#223,#115,.T.);
#272=EDGE_CURVE('',#223,#224,#116,.T.);
#273=EDGE_CURVE('',#224,#225,#117,.T.);
#274=EDGE_CURVE('',#225,#226,#118,.T.);
#275=EDGE_CURVE('',#226,#216,#119,.T.);
#276=EDGE_CURVE('',#227,#218,#120,.T.);
#277=EDGE_CURVE('',#227,#223,#121,.T.);
#278=EDGE_CURVE('',#228,#217,#122,.T.);
#279=EDGE_CURVE('',#228,#226,#123,.T.);
#280=EDGE_CURVE('',#229,#228,#124,.T.);
#281=EDGE_CURVE('',#229,#225,#125,.T.);
#282=EDGE_CURVE('',#230,#229,#126,.T.);
#283=EDGE_CURVE('',#230,#224,#127,.T.);
#284=EDGE_CURVE('',#227,#230,#128,.T.);
#285=EDGE_CURVE('',#231,#232,#129,.T.);
#286=EDGE_CURVE('',#232,#233,#15,.T.);
#287=EDGE_CURVE('',#233,#234,#130,.T.);
#288=EDGE_CURVE('',#231,#234,#16,.T.);
#289=EDGE_CURVE('',#232,#235,#131,.T.);
#290=EDGE_CURVE('',#235,#236,#17,.T.);
#291=EDGE_CURVE('',#236,#233,#132,.T.);
#292=EDGE_CURVE('',#235,#237,#133,.T.);
#293=EDGE_CURVE('',#237,#238,#18,.T.);
#294=EDGE_CURVE('',#238,#236,#134,.T.);
#295=EDGE_CURVE('',#234,#238,#135,.T.);
#296=EDGE_CURVE('',#237,#231,#136,.T.);
#297=EDGE_CURVE('',#220,#234,#137,.T.);
#298=EDGE_CURVE('',#219,#238,#138,.T.);
#299=EDGE_CURVE('',#221,#233,#139,.T.);
#300=EDGE_CURVE('',#222,#236,#140,.T.);
#301=ORIENTED_EDGE('',*,*,#239,.T.);
#302=ORIENTED_EDGE('',*,*,#240,.T.);
#303=ORIENTED_EDGE('',*,*,#241,.T.);
#304=ORIENTED_EDGE('',*,*,#242,.T.);
#305=ORIENTED_EDGE('',*,*,#240,.F.);
#306=ORIENTED_EDGE('',*,*,#243,.F.);
#307=ORIENTED_EDGE('',*,*,#244,.F.);
#308=ORIENTED_EDGE('',*,*,#245,.F.);
#309=ORIENTED_EDGE('',*,*,#246,.T.);
#310=ORIENTED_EDGE('',*,*,#247,.T.);
#311=ORIENTED_EDGE('',*,*,#248,.T.);
#312=ORIENTED_EDGE('',*,*,#249,.T.);
#313=ORIENTED_EDGE('',*,*,#242,.F.);
#314=ORIENTED_EDGE('',*,*,#250,.F.);
#315=ORIENTED_EDGE('',*,*,#247,.F.);
#316=ORIENTED_EDGE('',*,*,#251,.F.);
#317=ORIENTED_EDGE('',*,*,#252,.T.);
#318=ORIENTED_EDGE('',*,*,#253,.T.);
#319=ORIENTED_EDGE('',*,*,#254,.T.);
#320=ORIENTED_EDGE('',*,*,#255,.T.);
#321=ORIENTED_EDGE('',*,*,#249,.F.);
#322=ORIENTED_EDGE('',*,*,#256,.F.);
#323=ORIENTED_EDGE('',*,*,#253,.F.);
#324=ORIENTED_EDGE('',*,*,#257,.F.);
#325=ORIENTED_EDGE('',*,*,#258,.T.);
#326=ORIENTED_EDGE('',*,*,#259,.T.);
#327=ORIENTED_EDGE('',*,*,#260,.T.);
#328=ORIENTED_EDGE('',*,*,#244,.T.);
#329=ORIENTED_EDGE('',*,*,#255,.F.);
#330=ORIENTED_EDGE('',*,*,#261,.F.);
#331=ORIENTED_EDGE('',*,*,#259,.F.);
#332=ORIENTED_EDGE('',*,*,#262,.F.);
#333=ORIENTED_EDGE('',*,*,#263,.T.);
#334=ORIENTED_EDGE('',*,*,#264,.T.);
#335=ORIENTED_EDGE('',*,*,#265,.F.);
#336=ORIENTED_EDGE('',*,*,#266,.T.);
#337=ORIENTED_EDGE('',*,*,#267,.T.);
#338=ORIENTED_EDGE('',*,*,#268,.T.);
#339=ORIENTED_EDGE('',*,*,#269,.T.);
#340=ORIENTED_EDGE('',*,*,#270,.T.);
#341=ORIENTED_EDGE('',*,*,#261,.T.);
#342=ORIENTED_EDGE('',*,*,#254,.F.);
#343=ORIENTED_EDGE('',*,*,#256,.T.);
#344=ORIENTED_EDGE('',*,*,#248,.F.);
#345=ORIENTED_EDGE('',*,*,#250,.T.);
#346=ORIENTED_EDGE('',*,*,#241,.F.);
#347=ORIENTED_EDGE('',*,*,#245,.T.);
#348=ORIENTED_EDGE('',*,*,#260,.F.);
#349=ORIENTED_EDGE('',*,*,#263,.F.);
#350=ORIENTED_EDGE('',*,*,#271,.T.);
#351=ORIENTED_EDGE('',*,*,#272,.T.);
#352=ORIENTED_EDGE('',*,*,#273,.T.);
#353=ORIENTED_EDGE('',*,*,#274,.T.);
#354=ORIENTED_EDGE('',*,*,#275,.T.);
#355=ORIENTED_EDGE('',*,*,#276,.F.);
#356=ORIENTED_EDGE('',*,*,#277,.T.);
#357=ORIENTED_EDGE('',*,*,#271,.F.);
#358=ORIENTED_EDGE('',*,*,#266,.F.);
#359=ORIENTED_EDGE('',*,*,#278,.T.);
#360=ORIENTED_EDGE('',*,*,#264,.F.);
#361=ORIENTED_EDGE('',*,*,#275,.F.);
#362=ORIENTED_EDGE('',*,*,#279,.F.);
#363=ORIENTED_EDGE('',*,*,#280,.T.);
#364=ORIENTED_EDGE('',*,*,#279,.T.);
#365=ORIENTED_EDGE('',*,*,#274,.F.);
#366=ORIENTED_EDGE('',*,*,#281,.F.);
#367=ORIENTED_EDGE('',*,*,#282,.T.);
#368=ORIENTED_EDGE('',*,*,#281,.T.);
#369=ORIENTED_EDGE('',*,*,#273,.F.);
#370=ORIENTED_EDGE('',*,*,#283,.F.);
#371=ORIENTED_EDGE('',*,*,#284,.T.);
#372=ORIENTED_EDGE('',*,*,#283,.T.);
#373=ORIENTED_EDGE('',*,*,#272,.F.);
#374=ORIENTED_EDGE('',*,*,#277,.F.);
#375=ORIENTED_EDGE('',*,*,#285,.T.);
#376=ORIENTED_EDGE('',*,*,#286,.T.);
#377=ORIENTED_EDGE('',*,*,#287,.T.);
#378=ORIENTED_EDGE('',*,*,#288,.F.);
#379=ORIENTED_EDGE('',*,*,#289,.T.);
#380=ORIENTED_EDGE('',*,*,#290,.T.);
#381=ORIENTED_EDGE('',*,*,#291,.T.);
#382=ORIENTED_EDGE('',*,*,#286,.F.);
#383=ORIENTED_EDGE('',*,*,#292,.T.);
#384=ORIENTED_EDGE('',*,*,#293,.T.);
#385=ORIENTED_EDGE('',*,*,#294,.T.);
#386=ORIENTED_EDGE('',*,*,#290,.F.);
#387=ORIENTED_EDGE('',*,*,#295,.T.);
#388=ORIENTED_EDGE('',*,*,#293,.F.);
#389=ORIENTED_EDGE('',*,*,#296,.T.);
#390=ORIENTED_EDGE('',*,*,#288,.T.);
#391=ORIENTED_EDGE('',*,*,#295,.F.);
#392=ORIENTED_EDGE('',*,*,#297,.F.);
#393=ORIENTED_EDGE('',*,*,#267,.F.);
#394=ORIENTED_EDGE('',*,*,#298,.T.);
#395=ORIENTED_EDGE('',*,*,#287,.F.);
#396=ORIENTED_EDGE('',*,*,#299,.F.);
#397=ORIENTED_EDGE('',*,*,#268,.F.);
#398=ORIENTED_EDGE('',*,*,#297,.T.);
#399=ORIENTED_EDGE('',*,*,#285,.F.);
#400=ORIENTED_EDGE('',*,*,#296,.F.);
#401=ORIENTED_EDGE('',*,*,#292,.F.);
#402=ORIENTED_EDGE('',*,*,#289,.F.);
#403=ORIENTED_EDGE('',*,*,#262,.T.);
#404=ORIENTED_EDGE('',*,*,#258,.F.);
#405=ORIENTED_EDGE('',*,*,#243,.T.);
#406=ORIENTED_EDGE('',*,*,#239,.F.);
#407=ORIENTED_EDGE('',*,*,#251,.T.);
#408=ORIENTED_EDGE('',*,*,#246,.F.);
#409=ORIENTED_EDGE('',*,*,#257,.T.);
#410=ORIENTED_EDGE('',*,*,#252,.F.);
#411=ORIENTED_EDGE('',*,*,#265,.T.);
#412=ORIENTED_EDGE('',*,*,#278,.F.);
#413=ORIENTED_EDGE('',*,*,#280,.F.);
#414=ORIENTED_EDGE('',*,*,#282,.F.);
#415=ORIENTED_EDGE('',*,*,#284,.F.);
#416=ORIENTED_EDGE('',*,*,#276,.T.);
#417=ORIENTED_EDGE('',*,*,#291,.F.);
#418=ORIENTED_EDGE('',*,*,#300,.F.);
#419=ORIENTED_EDGE('',*,*,#269,.F.);
#420=ORIENTED_EDGE('',*,*,#299,.T.);
#421=ORIENTED_EDGE('',*,*,#294,.F.);
#422=ORIENTED_EDGE('',*,*,#298,.F.);
#423=ORIENTED_EDGE('',*,*,#270,.F.);
#424=ORIENTED_EDGE('',*,*,#300,.T.);
#425=CYLINDRICAL_SURFACE('',#459,2.874);
#426=CYLINDRICAL_SURFACE('',#463,2.874);
#427=CYLINDRICAL_SURFACE('',#467,2.874);
#428=CYLINDRICAL_SURFACE('',#471,2.874);
#429=CYLINDRICAL_SURFACE('',#482,0.25);
#430=CYLINDRICAL_SURFACE('',#485,0.25);
#431=CYLINDRICAL_SURFACE('',#487,0.25);
#432=CYLINDRICAL_SURFACE('',#489,0.25);
#433=ADVANCED_FACE('',(#39),#425,.F.);
#434=ADVANCED_FACE('',(#40),#23,.F.);
#435=ADVANCED_FACE('',(#41),#426,.F.);
#436=ADVANCED_FACE('',(#42),#24,.F.);
#437=ADVANCED_FACE('',(#43),#427,.F.);
#438=ADVANCED_FACE('',(#44),#25,.F.);
#439=ADVANCED_FACE('',(#45),#428,.F.);
#440=ADVANCED_FACE('',(#46),#26,.F.);
#441=ADVANCED_FACE('',(#47),#27,.T.);
#442=ADVANCED_FACE('',(#48,#19,#20),#28,.F.);
#443=ADVANCED_FACE('',(#49),#29,.T.);
#444=ADVANCED_FACE('',(#50),#30,.T.);
#445=ADVANCED_FACE('',(#51),#31,.T.);
#446=ADVANCED_FACE('',(#52),#32,.T.);
#447=ADVANCED_FACE('',(#53),#33,.T.);
#448=ADVANCED_FACE('',(#54),#429,.T.);
#449=ADVANCED_FACE('',(#55),#430,.T.);
#450=ADVANCED_FACE('',(#56),#431,.T.);
#451=ADVANCED_FACE('',(#57),#432,.T.);
#452=ADVANCED_FACE('',(#58),#34,.T.);
#453=ADVANCED_FACE('',(#59),#35,.T.);
#454=ADVANCED_FACE('',(#60,#21,#22),#36,.T.);
#455=ADVANCED_FACE('',(#61),#37,.T.);
#456=ADVANCED_FACE('',(#62),#38,.T.);
#457=CLOSED_SHELL('',(#433,#434,#435,#436,#437,#438,#439,#440,#441,#442,
#443,#444,#445,#446,#447,#448,#449,#450,#451,#452,#453,#454,#455,#456));
#458=AXIS2_PLACEMENT_3D('',#619,#495,#496);
#459=AXIS2_PLACEMENT_3D('',#620,#497,#498);
#460=AXIS2_PLACEMENT_3D('',#623,#499,#500);
#461=AXIS2_PLACEMENT_3D('',#627,#502,#503);
#462=AXIS2_PLACEMENT_3D('',#629,#505,#506);
#463=AXIS2_PLACEMENT_3D('',#635,#510,#511);
#464=AXIS2_PLACEMENT_3D('',#638,#512,#513);
#465=AXIS2_PLACEMENT_3D('',#642,#515,#516);
#466=AXIS2_PLACEMENT_3D('',#644,#518,#519);
#467=AXIS2_PLACEMENT_3D('',#647,#522,#523);
#468=AXIS2_PLACEMENT_3D('',#650,#524,#525);
#469=AXIS2_PLACEMENT_3D('',#654,#527,#528);
#470=AXIS2_PLACEMENT_3D('',#656,#530,#531);
#471=AXIS2_PLACEMENT_3D('',#659,#534,#535);
#472=AXIS2_PLACEMENT_3D('',#661,#536,#537);
#473=AXIS2_PLACEMENT_3D('',#664,#539,#540);
#474=AXIS2_PLACEMENT_3D('',#665,#541,#542);
#475=AXIS2_PLACEMENT_3D('',#668,#545,#546);
#476=AXIS2_PLACEMENT_3D('',#677,#551,#552);
#477=AXIS2_PLACEMENT_3D('',#695,#562,#563);
#478=AXIS2_PLACEMENT_3D('',#699,#566,#567);
#479=AXIS2_PLACEMENT_3D('',#703,#570,#571);
#480=AXIS2_PLACEMENT_3D('',#707,#574,#575);
#481=AXIS2_PLACEMENT_3D('',#711,#578,#579);
#482=AXIS2_PLACEMENT_3D('',#713,#581,#582);
#483=AXIS2_PLACEMENT_3D('',#718,#584,#585);
#484=AXIS2_PLACEMENT_3D('',#721,#587,#588);
#485=AXIS2_PLACEMENT_3D('',#722,#589,#590);
#486=AXIS2_PLACEMENT_3D('',#726,#592,#593);
#487=AXIS2_PLACEMENT_3D('',#728,#595,#596);
#488=AXIS2_PLACEMENT_3D('',#732,#598,#599);
#489=AXIS2_PLACEMENT_3D('',#734,#601,#602);
#490=AXIS2_PLACEMENT_3D('',#737,#605,#606);
#491=AXIS2_PLACEMENT_3D('',#740,#609,#610);
#492=AXIS2_PLACEMENT_3D('',#742,#612,#613);
#493=AXIS2_PLACEMENT_3D('',#743,#614,#615);
#494=AXIS2_PLACEMENT_3D('',#745,#617,#618);
#495=DIRECTION('axis',(0.,0.,1.));
#496=DIRECTION('refdir',(1.,0.,0.));
#497=DIRECTION('center_axis',(0.,0.,-1.));
#498=DIRECTION('ref_axis',(-0.707106781186554,0.707106781186541,0.));
#499=DIRECTION('center_axis',(0.,0.,1.));
#500=DIRECTION('ref_axis',(-0.707106781186554,0.707106781186541,0.));
#501=DIRECTION('',(0.,0.,-1.));
#502=DIRECTION('center_axis',(0.,0.,-1.));
#503=DIRECTION('ref_axis',(-0.707106781186554,0.707106781186541,0.));
#504=DIRECTION('',(0.,0.,1.));
#505=DIRECTION('center_axis',(-1.,0.,0.));
#506=DIRECTION('ref_axis',(0.,1.,0.));
#507=DIRECTION('',(0.,1.,0.));
#508=DIRECTION('',(0.,0.,1.));
#509=DIRECTION('',(0.,-1.,0.));
#510=DIRECTION('center_axis',(0.,0.,-1.));
#511=DIRECTION('ref_axis',(0.707106781186554,0.707106781186541,0.));
#512=DIRECTION('center_axis',(0.,0.,1.));
#513=DIRECTION('ref_axis',(0.707106781186554,0.707106781186541,0.));
#514=DIRECTION('',(0.,0.,-1.));
#515=DIRECTION('center_axis',(0.,0.,-1.));
#516=DIRECTION('ref_axis',(0.707106781186554,0.707106781186541,0.));
#517=DIRECTION('',(0.,0.,1.));
#518=DIRECTION('center_axis',(0.,1.,0.));
#519=DIRECTION('ref_axis',(1.,0.,0.));
#520=DIRECTION('',(-1.,0.,0.));
#521=DIRECTION('',(1.,0.,0.));
#522=DIRECTION('center_axis',(0.,0.,-1.));
#523=DIRECTION('ref_axis',(0.707106781186552,-0.707106781186543,0.));
#524=DIRECTION('center_axis',(0.,0.,1.));
#525=DIRECTION('ref_axis',(0.707106781186552,-0.707106781186543,0.));
#526=DIRECTION('',(0.,0.,-1.));
#527=DIRECTION('center_axis',(0.,0.,-1.));
#528=DIRECTION('ref_axis',(0.707106781186552,-0.707106781186543,0.));
#529=DIRECTION('',(0.,0.,1.));
#530=DIRECTION('center_axis',(1.,0.,0.));
#531=DIRECTION('ref_axis',(0.,-1.,0.));
#532=DIRECTION('',(0.,1.,0.));
#533=DIRECTION('',(0.,-1.,0.));
#534=DIRECTION('center_axis',(0.,0.,-1.));
#535=DIRECTION('ref_axis',(-0.707106781186554,-0.707106781186541,0.));
#536=DIRECTION('center_axis',(0.,0.,1.));
#537=DIRECTION('ref_axis',(-0.707106781186554,-0.707106781186541,0.));
#538=DIRECTION('',(0.,0.,-1.));
#539=DIRECTION('center_axis',(0.,0.,-1.));
#540=DIRECTION('ref_axis',(-0.707106781186554,-0.707106781186541,0.));
#541=DIRECTION('center_axis',(0.,-1.,0.));
#542=DIRECTION('ref_axis',(-1.,0.,0.));
#543=DIRECTION('',(1.,0.,0.));
#544=DIRECTION('',(-1.,0.,0.));
#545=DIRECTION('center_axis',(-1.,0.,0.));
#546=DIRECTION('ref_axis',(0.,-1.,0.));
#547=DIRECTION('',(0.,-1.,0.));
#548=DIRECTION('',(0.,0.,1.));
#549=DIRECTION('',(0.,-1.,0.));
#550=DIRECTION('',(0.,0.,-1.));
#551=DIRECTION('center_axis',(0.,0.,1.));
#552=DIRECTION('ref_axis',(-1.,0.,0.));
#553=DIRECTION('',(-1.,0.,0.));
#554=DIRECTION('',(0.,1.,0.));
#555=DIRECTION('',(1.,0.,0.));
#556=DIRECTION('',(0.,-1.,0.));
#557=DIRECTION('',(-1.,0.,0.));
#558=DIRECTION('',(0.,-1.,0.));
#559=DIRECTION('',(1.,0.,0.));
#560=DIRECTION('',(0.,-1.,0.));
#561=DIRECTION('',(1.,0.,0.));
#562=DIRECTION('center_axis',(0.,-1.,0.));
#563=DIRECTION('ref_axis',(-1.,0.,0.));
#564=DIRECTION('',(1.,0.,0.));
#565=DIRECTION('',(0.,0.,-1.));
#566=DIRECTION('center_axis',(0.,1.,0.));
#567=DIRECTION('ref_axis',(1.,0.,0.));
#568=DIRECTION('',(1.,0.,0.));
#569=DIRECTION('',(0.,0.,-1.));
#570=DIRECTION('center_axis',(1.,0.,0.));
#571=DIRECTION('ref_axis',(0.,-1.,0.));
#572=DIRECTION('',(0.,-1.,0.));
#573=DIRECTION('',(0.,0.,-1.));
#574=DIRECTION('center_axis',(0.,1.,0.));
#575=DIRECTION('ref_axis',(1.,0.,0.));
#576=DIRECTION('',(1.,0.,0.));
#577=DIRECTION('',(0.,0.,-1.));
#578=DIRECTION('center_axis',(1.,0.,0.));
#579=DIRECTION('ref_axis',(0.,-1.,0.));
#580=DIRECTION('',(0.,-1.,0.));
#581=DIRECTION('center_axis',(0.,-1.,0.));
#582=DIRECTION('ref_axis',(-0.707106781186579,0.,0.707106781186516));
#583=DIRECTION('',(0.,1.,0.));
#584=DIRECTION('center_axis',(-0.707106781186548,-0.707106781186548,0.));
#585=DIRECTION('ref_axis',(-0.707106781186548,0.707106781186548,0.));
#586=DIRECTION('',(0.,-1.,0.));
#587=DIRECTION('center_axis',(0.707106781186548,-0.707106781186548,0.));
#588=DIRECTION('ref_axis',(-0.707106781186548,-0.707106781186548,0.));
#589=DIRECTION('center_axis',(-1.,0.,0.));
#590=DIRECTION('ref_axis',(0.,0.707106781186554,0.707106781186541));
#591=DIRECTION('',(1.,0.,0.));
#592=DIRECTION('center_axis',(-0.707106781186573,0.707106781186522,0.));
#593=DIRECTION('ref_axis',(0.707106781186522,0.707106781186573,0.));
#594=DIRECTION('',(-1.,0.,0.));
#595=DIRECTION('center_axis',(0.,1.,0.));
#596=DIRECTION('ref_axis',(0.707106781186529,0.,0.707106781186566));
#597=DIRECTION('',(0.,-1.,0.));
#598=DIRECTION('center_axis',(0.707106781186573,0.707106781186522,0.));
#599=DIRECTION('ref_axis',(0.707106781186522,-0.707106781186573,0.));
#600=DIRECTION('',(0.,1.,0.));
#601=DIRECTION('center_axis',(1.,0.,0.));
#602=DIRECTION('ref_axis',(0.,-0.707106781186529,0.707106781186566));
#603=DIRECTION('',(1.,0.,0.));
#604=DIRECTION('',(-1.,0.,0.));
#605=DIRECTION('center_axis',(0.,-1.,0.));
#606=DIRECTION('ref_axis',(1.,0.,0.));
#607=DIRECTION('',(0.,0.,1.));
#608=DIRECTION('',(0.,0.,1.));
#609=DIRECTION('center_axis',(-1.,0.,0.));
#610=DIRECTION('ref_axis',(0.,-1.,0.));
#611=DIRECTION('',(0.,0.,1.));
#612=DIRECTION('center_axis',(0.,0.,1.));
#613=DIRECTION('ref_axis',(1.,0.,0.));
#614=DIRECTION('center_axis',(0.,1.,0.));
#615=DIRECTION('ref_axis',(-1.,0.,0.));
#616=DIRECTION('',(0.,0.,1.));
#617=DIRECTION('center_axis',(1.,0.,0.));
#618=DIRECTION('ref_axis',(0.,1.,0.));
#619=CARTESIAN_POINT('',(0.,0.,0.));
#620=CARTESIAN_POINT('Origin',(200.167264081659,-54.214,15.7499219835198));
#621=CARTESIAN_POINT('',(200.167264081659,-51.34,15.7499219835198));
#622=CARTESIAN_POINT('',(197.293264081659,-54.214,15.7499219835198));
#623=CARTESIAN_POINT('Origin',(200.167264081659,-54.214,15.7499219835198));
#624=CARTESIAN_POINT('',(197.293264081659,-54.214,15.2499219835198));
#625=CARTESIAN_POINT('',(197.293264081659,-54.214,15.7499219835198));
#626=CARTESIAN_POINT('',(200.167264081659,-51.34,15.2499219835198));
#627=CARTESIAN_POINT('Origin',(200.167264081659,-54.214,15.2499219835198));
#628=CARTESIAN_POINT('',(200.167264081659,-51.34,15.7499219835198));
#629=CARTESIAN_POINT('Origin',(197.293264081659,-74.89,15.7499219835198));
#630=CARTESIAN_POINT('',(197.293264081659,-72.016,15.7499219835198));
#631=CARTESIAN_POINT('',(197.293264081659,-69.287086718038,15.7499219835198));
#632=CARTESIAN_POINT('',(197.293264081659,-72.016,15.2499219835198));
#633=CARTESIAN_POINT('',(197.293264081659,-72.016,15.7499219835198));
#634=CARTESIAN_POINT('',(197.293264081659,-69.287086718038,15.2499219835198));
#635=CARTESIAN_POINT('Origin',(206.219264081659,-54.214,15.7499219835198));
#636=CARTESIAN_POINT('',(209.093264081659,-54.214,15.7499219835198));
#637=CARTESIAN_POINT('',(206.219264081659,-51.34,15.7499219835198));
#638=CARTESIAN_POINT('Origin',(206.219264081659,-54.214,15.7499219835198));
#639=CARTESIAN_POINT('',(206.219264081659,-51.34,15.2499219835198));
#640=CARTESIAN_POINT('',(206.219264081659,-51.34,15.7499219835198));
#641=CARTESIAN_POINT('',(209.093264081659,-54.214,15.2499219835198));
#642=CARTESIAN_POINT('Origin',(206.219264081659,-54.214,15.2499219835198));
#643=CARTESIAN_POINT('',(209.093264081659,-54.214,15.7499219835198));
#644=CARTESIAN_POINT('Origin',(197.293264081659,-51.34,15.7499219835198));
#645=CARTESIAN_POINT('',(182.042640664014,-51.34,15.2499219835198));
#646=CARTESIAN_POINT('',(182.042640664014,-51.34,15.7499219835198));
#647=CARTESIAN_POINT('Origin',(206.219264081659,-72.016,15.7499219835198));
#648=CARTESIAN_POINT('',(206.219264081659,-74.89,15.7499219835198));
#649=CARTESIAN_POINT('',(209.093264081659,-72.016,15.7499219835198));
#650=CARTESIAN_POINT('Origin',(206.219264081659,-72.016,15.7499219835198));
#651=CARTESIAN_POINT('',(209.093264081659,-72.016,15.2499219835198));
#652=CARTESIAN_POINT('',(209.093264081659,-72.016,15.7499219835198));
#653=CARTESIAN_POINT('',(206.219264081659,-74.89,15.2499219835198));
#654=CARTESIAN_POINT('Origin',(206.219264081659,-72.016,15.2499219835198));
#655=CARTESIAN_POINT('',(206.219264081659,-74.89,15.7499219835198));
#656=CARTESIAN_POINT('Origin',(209.093264081659,-51.34,15.7499219835198));
#657=CARTESIAN_POINT('',(209.093264081659,-57.512086718038,15.2499219835198));
#658=CARTESIAN_POINT('',(209.093264081659,-57.512086718038,15.7499219835198));
#659=CARTESIAN_POINT('Origin',(200.167264081659,-72.016,15.7499219835198));
#660=CARTESIAN_POINT('',(200.167264081659,-74.89,15.7499219835198));
#661=CARTESIAN_POINT('Origin',(200.167264081659,-72.016,15.7499219835198));
#662=CARTESIAN_POINT('',(200.167264081659,-74.89,15.2499219835198));
#663=CARTESIAN_POINT('',(200.167264081659,-74.89,15.7499219835198));
#664=CARTESIAN_POINT('Origin',(200.167264081659,-72.016,15.2499219835198));
#665=CARTESIAN_POINT('Origin',(209.093264081659,-74.89,15.7499219835198));
#666=CARTESIAN_POINT('',(187.942640664013,-74.89,15.2499219835198));
#667=CARTESIAN_POINT('',(187.942640664013,-74.89,15.7499219835198));
#668=CARTESIAN_POINT('Origin',(187.838453459852,-71.8202397712379,15.2499219835198));
#669=CARTESIAN_POINT('',(187.838453459852,-49.2984210460264,15.2499219835198));
#670=CARTESIAN_POINT('',(187.838453459852,-76.4195133205573,15.2499219835198));
#671=CARTESIAN_POINT('',(187.838453459852,-48.9850721888952,15.2499219835198));
#672=CARTESIAN_POINT('',(187.838453459852,-76.4195133205573,15.7499219835198));
#673=CARTESIAN_POINT('',(187.838453459852,-76.4195133205573,15.4999219835198));
#674=CARTESIAN_POINT('',(187.838453459852,-49.2984210460264,15.7499219835198));
#675=CARTESIAN_POINT('',(187.838453459852,-48.9850721888952,15.7499219835198));
#676=CARTESIAN_POINT('',(187.838453459852,-49.2984210460264,15.4999219835198));
#677=CARTESIAN_POINT('Origin',(166.792017246368,-63.6841734360761,15.2499219835198));
#678=CARTESIAN_POINT('',(209.542017246368,-80.6841734360761,15.2499219835198));
#679=CARTESIAN_POINT('',(124.042017246368,-80.6841734360761,15.2499219835198));
#680=CARTESIAN_POINT('',(209.542017246368,-80.6841734360761,15.2499219835198));
#681=CARTESIAN_POINT('',(124.042017246368,-46.6841734360761,15.2499219835198));
#682=CARTESIAN_POINT('',(124.042017246368,-80.6841734360761,15.2499219835198));
#683=CARTESIAN_POINT('',(209.542017246368,-46.6841734360761,15.2499219835198));
#684=CARTESIAN_POINT('',(124.042017246368,-46.6841734360761,15.2499219835198));
#685=CARTESIAN_POINT('',(209.542017246368,-46.6841734360761,15.2499219835198));
#686=CARTESIAN_POINT('',(134.718212692112,-49.2984210460264,15.2499219835198));
#687=CARTESIAN_POINT('',(134.718212692112,-49.2984210460264,15.2499219835198));
#688=CARTESIAN_POINT('',(134.718212692112,-55.8332964326406,15.2499219835198));
#689=CARTESIAN_POINT('',(134.718212692112,-48.9850721888952,15.2499219835198));
#690=CARTESIAN_POINT('',(139.087793031233,-55.8332964326406,15.2499219835198));
#691=CARTESIAN_POINT('',(134.718212692112,-55.8332964326406,15.2499219835198));
#692=CARTESIAN_POINT('',(139.087793031233,-76.4195133205573,15.2499219835198));
#693=CARTESIAN_POINT('',(139.087793031233,-55.8332964326406,15.2499219835198));
#694=CARTESIAN_POINT('',(139.087793031233,-76.4195133205573,15.2499219835198));
#695=CARTESIAN_POINT('Origin',(187.838453459852,-49.2984210460264,15.7499219835198));
#696=CARTESIAN_POINT('',(134.718212692112,-49.2984210460264,15.7499219835198));
#697=CARTESIAN_POINT('',(134.718212692112,-49.2984210460264,15.7499219835198));
#698=CARTESIAN_POINT('',(134.718212692112,-49.2984210460264,15.7499219835198));
#699=CARTESIAN_POINT('Origin',(139.087793031233,-76.4195133205573,15.7499219835198));
#700=CARTESIAN_POINT('',(139.087793031233,-76.4195133205573,15.7499219835198));
#701=CARTESIAN_POINT('',(139.087793031233,-76.4195133205573,15.7499219835198));
#702=CARTESIAN_POINT('',(139.087793031233,-76.4195133205573,15.7499219835198));
#703=CARTESIAN_POINT('Origin',(139.087793031233,-55.8332964326406,15.7499219835198));
#704=CARTESIAN_POINT('',(139.087793031233,-55.8332964326406,15.7499219835198));
#705=CARTESIAN_POINT('',(139.087793031233,-55.8332964326406,15.7499219835198));
#706=CARTESIAN_POINT('',(139.087793031233,-55.8332964326406,15.7499219835198));
#707=CARTESIAN_POINT('Origin',(134.718212692112,-55.8332964326406,15.7499219835198));
#708=CARTESIAN_POINT('',(134.718212692112,-55.8332964326406,15.7499219835198));
#709=CARTESIAN_POINT('',(134.718212692112,-55.8332964326406,15.7499219835198));
#710=CARTESIAN_POINT('',(134.718212692112,-55.8332964326406,15.7499219835198));
#711=CARTESIAN_POINT('Origin',(134.718212692112,-49.2984210460264,15.7499219835198));
#712=CARTESIAN_POINT('',(134.718212692112,-48.9850721888952,15.7499219835198));
#713=CARTESIAN_POINT('Origin',(124.292017246368,-55.1841734360761,15.4999219835198));
#714=CARTESIAN_POINT('',(124.292017246368,-80.4341734360761,15.7499219835198));
#715=CARTESIAN_POINT('',(124.292017246368,-46.9341734360761,15.7499219835198));
#716=CARTESIAN_POINT('',(124.292017246368,-55.1841734360761,15.7499219835198));
#717=CARTESIAN_POINT('',(124.042017246368,-46.6841734360761,15.4999219835198));
#718=CARTESIAN_POINT('Origin',(124.292017246368,-46.9341734360761,15.4999219835198));
#719=CARTESIAN_POINT('',(124.042017246368,-80.6841734360761,15.4999219835198));
#720=CARTESIAN_POINT('',(124.042017246368,-55.1841734360761,15.4999219835198));
#721=CARTESIAN_POINT('Origin',(124.292017246368,-80.4341734360761,15.4999219835198));
#722=CARTESIAN_POINT('Origin',(188.167017246368,-46.9341734360761,15.4999219835198));
#723=CARTESIAN_POINT('',(209.292017246368,-46.9341734360761,15.7499219835198));
#724=CARTESIAN_POINT('',(188.167017246368,-46.9341734360761,15.7499219835198));
#725=CARTESIAN_POINT('',(209.542017246368,-46.6841734360761,15.4999219835198));
#726=CARTESIAN_POINT('Origin',(209.292017246368,-46.9341734360761,15.4999219835198));
#727=CARTESIAN_POINT('',(188.167017246368,-46.6841734360761,15.4999219835198));
#728=CARTESIAN_POINT('Origin',(209.292017246368,-72.1841734360761,15.4999219835198));
#729=CARTESIAN_POINT('',(209.292017246368,-80.4341734360761,15.7499219835198));
#730=CARTESIAN_POINT('',(209.292017246368,-72.1841734360761,15.7499219835198));
#731=CARTESIAN_POINT('',(209.542017246368,-80.6841734360761,15.4999219835198));
#732=CARTESIAN_POINT('Origin',(209.292017246368,-80.4341734360761,15.4999219835198));
#733=CARTESIAN_POINT('',(209.542017246368,-72.1841734360761,15.4999219835198));
#734=CARTESIAN_POINT('Origin',(145.417017246368,-80.4341734360761,15.4999219835198));
#735=CARTESIAN_POINT('',(145.417017246368,-80.6841734360761,15.4999219835198));
#736=CARTESIAN_POINT('',(145.417017246368,-80.4341734360761,15.7499219835198));
#737=CARTESIAN_POINT('Origin',(124.042017246368,-80.6841734360761,15.2499219835198));
#738=CARTESIAN_POINT('',(124.042017246368,-80.6841734360761,15.2499219835198));
#739=CARTESIAN_POINT('',(209.542017246368,-80.6841734360761,15.2499219835198));
#740=CARTESIAN_POINT('Origin',(124.042017246368,-46.6841734360761,15.2499219835198));
#741=CARTESIAN_POINT('',(124.042017246368,-46.6841734360761,15.2499219835198));
#742=CARTESIAN_POINT('Origin',(166.792017246368,-63.6841734360761,15.7499219835198));
#743=CARTESIAN_POINT('Origin',(209.542017246368,-46.6841734360761,15.2499219835198));
#744=CARTESIAN_POINT('',(209.542017246368,-46.6841734360761,15.2499219835198));
#745=CARTESIAN_POINT('Origin',(209.542017246368,-80.6841734360761,15.2499219835198));
#746=UNCERTAINTY_MEASURE_WITH_UNIT(LENGTH_MEASURE(0.01),#750,
'DISTANCE_ACCURACY_VALUE',
'Maximum model space distance between geometric entities at asserted c
onnectivities');
#747=UNCERTAINTY_MEASURE_WITH_UNIT(LENGTH_MEASURE(0.01),#750,
'DISTANCE_ACCURACY_VALUE',
'Maximum model space distance between geometric entities at asserted c
onnectivities');
#748=(
GEOMETRIC_REPRESENTATION_CONTEXT(3)
GLOBAL_UNCERTAINTY_ASSIGNED_CONTEXT((#746))
GLOBAL_UNIT_ASSIGNED_CONTEXT((#750,#751,#752))
REPRESENTATION_CONTEXT('','3D')
);
#749=(
GEOMETRIC_REPRESENTATION_CONTEXT(3)
GLOBAL_UNCERTAINTY_ASSIGNED_CONTEXT((#747))
GLOBAL_UNIT_ASSIGNED_CONTEXT((#750,#751,#752))
REPRESENTATION_CONTEXT('','3D')
);
#750=(
LENGTH_UNIT()
NAMED_UNIT(*)
SI_UNIT(.MILLI.,.METRE.)
);
#751=(
NAMED_UNIT(*)
PLANE_ANGLE_UNIT()
SI_UNIT($,.RADIAN.)
);
#752=(
NAMED_UNIT(*)
SI_UNIT($,.STERADIAN.)
SOLID_ANGLE_UNIT()
);
#753=SHAPE_DEFINITION_REPRESENTATION(#754,#755);
#754=PRODUCT_DEFINITION_SHAPE('',$,#757);
#755=SHAPE_REPRESENTATION('',(#458),#748);
#756=PRODUCT_DEFINITION_CONTEXT('part definition',#761,'design');
#757=PRODUCT_DEFINITION('Mini Kindle 1','Mini Kindle v13',#758,#756);
#758=PRODUCT_DEFINITION_FORMATION('',$,#763);
#759=PRODUCT_RELATED_PRODUCT_CATEGORY('Mini Kindle v13',
'Mini Kindle v13',(#763));
#760=APPLICATION_PROTOCOL_DEFINITION('international standard',
'automotive_design',2009,#761);
#761=APPLICATION_CONTEXT(
'Core Data for Automotive Mechanical Design Process');
#762=PRODUCT_CONTEXT('part definition',#761,'mechanical');
#763=PRODUCT('Mini Kindle 1','Mini Kindle v13',
'KiCad electronic assembly',(#762));
#764=PRESENTATION_STYLE_ASSIGNMENT((#765));
#765=SURFACE_STYLE_USAGE(.BOTH.,#766);
#766=SURFACE_SIDE_STYLE('',(#767));
#767=SURFACE_STYLE_FILL_AREA(#768);
#768=FILL_AREA_STYLE('Steel - Satin',(#769));
#769=FILL_AREA_STYLE_COLOUR('Steel - Satin',#770);
#770=COLOUR_RGB('Steel - Satin',0.627450980392157,0.627450980392157,0.627450980392157);
ENDSEC;
END-ISO-10303-21;
