ISO-10303-21;
HEADER;
/* Generated by software containing ST-Developer
 * from STEP Tools, Inc. (www.steptools.com) 
 */

FILE_DESCRIPTION(
/* description */ ('KiCad electronic assembly'),
/* implementation_level */ '2;1');

FILE_NAME(
/* name */ 'Mini Kindle Button Cap.step',
/* time_stamp */ '2026-06-05T14:01:24-04:00',
/* author */ (''),
/* organization */ (''),
/* preprocessor_version */ 'ST-DEVELOPER v20.1',
/* originating_system */ 'Autodesk Translation Framework v14.24.0.0',
/* authorisation */ '');

FILE_SCHEMA (('AUTOMOTIVE_DESIGN { 1 0 10303 214 3 1 1 }'));
ENDSEC;

DATA;
#10=MECHANICAL_DESIGN_GEOMETRIC_PRESENTATION_REPRESENTATION('',(#17),#1499);
#11=ITEM_DEFINED_TRANSFORMATION($,$,#779,#883);
#12=(
REPRESENTATION_RELATIONSHIP($,$,#1510,#1509)
REPRESENTATION_RELATIONSHIP_WITH_TRANSFORMATION(#11)
SHAPE_REPRESENTATION_RELATIONSHIP()
);
#13=CONTEXT_DEPENDENT_SHAPE_REPRESENTATION(#12,#1508);
#14=NEXT_ASSEMBLY_USAGE_OCCURRENCE('SW_PUSH_6mm:2','SW_PUSH_6mm:2',
'SW_PUSH_6mm:2',#1512,#1513,'SW_PUSH_6mm:2');
#15=SHAPE_REPRESENTATION_RELATIONSHIP('SRR','None',#1510,#16);
#16=ADVANCED_BREP_SHAPE_REPRESENTATION('',(#18),#1498);
#17=STYLED_ITEM('',(#1523),#18);
#18=MANIFOLD_SOLID_BREP('Body2',#765);
#19=ELLIPSE('',#864,0.509901951359279,0.5);
#20=ELLIPSE('',#865,0.509901951359279,0.5);
#21=ELLIPSE('',#867,0.509901951359287,0.5);
#22=ELLIPSE('',#868,0.509901951359287,0.5);
#23=ELLIPSE('',#870,0.509901951359287,0.5);
#24=ELLIPSE('',#871,0.509901951359287,0.5);
#25=ELLIPSE('',#872,0.509901951359288,0.5);
#26=ELLIPSE('',#873,0.509901951359287,0.5);
#27=B_SPLINE_SURFACE_WITH_KNOTS('',3,3,((#1358,#1359,#1360,#1361,#1362),
(#1363,#1364,#1365,#1366,#1367),(#1368,#1369,#1370,#1371,#1372),(#1373,
#1374,#1375,#1376,#1377),(#1378,#1379,#1380,#1381,#1382)),.UNSPECIFIED.,
 .F.,.F.,.F.,(4,1,4),(4,1,4),(0.,0.5,1.),(8.67361737988406E-17,0.673198425769241,
1.5707963267949),.UNSPECIFIED.);
#28=B_SPLINE_SURFACE_WITH_KNOTS('',3,3,((#1389,#1390,#1391,#1392,#1393),
(#1394,#1395,#1396,#1397,#1398),(#1399,#1400,#1401,#1402,#1403),(#1404,
#1405,#1406,#1407,#1408),(#1409,#1410,#1411,#1412,#1413)),.UNSPECIFIED.,
 .F.,.F.,.F.,(4,1,4),(4,1,4),(0.,0.5,1.),(0.,0.673198425769241,1.5707963267949),
 .UNSPECIFIED.);
#29=B_SPLINE_SURFACE_WITH_KNOTS('',3,3,((#1419,#1420,#1421,#1422,#1423),
(#1424,#1425,#1426,#1427,#1428),(#1429,#1430,#1431,#1432,#1433),(#1434,
#1435,#1436,#1437,#1438),(#1439,#1440,#1441,#1442,#1443)),.UNSPECIFIED.,
 .F.,.F.,.F.,(4,1,4),(4,1,4),(0.,0.5,1.),(0.,0.673198425769242,1.5707963267949),
 .UNSPECIFIED.);
#30=B_SPLINE_SURFACE_WITH_KNOTS('',3,3,((#1447,#1448,#1449,#1450,#1451),
(#1452,#1453,#1454,#1455,#1456),(#1457,#1458,#1459,#1460,#1461),(#1462,
#1463,#1464,#1465,#1466),(#1467,#1468,#1469,#1470,#1471)),.UNSPECIFIED.,
 .F.,.F.,.F.,(4,1,4),(4,1,4),(0.,0.5,1.),(8.67361737988021E-17,0.673198425769241,
1.5707963267949),.UNSPECIFIED.);
#31=FACE_BOUND('',#132,.T.);
#32=TOROIDAL_SURFACE('',#816,1.5,0.5);
#33=TOROIDAL_SURFACE('',#821,1.50000000000003,0.5);
#34=TOROIDAL_SURFACE('',#826,1.49999999999999,0.5);
#35=TOROIDAL_SURFACE('',#831,1.49999999999999,0.5);
#36=TOROIDAL_SURFACE('',#841,0.899999999999956,0.5);
#37=TOROIDAL_SURFACE('',#846,0.899999999999956,0.5);
#38=TOROIDAL_SURFACE('',#851,0.900000000000001,0.5);
#39=TOROIDAL_SURFACE('',#856,0.899999999999956,0.5);
#40=PLANE('',#802);
#41=PLANE('',#805);
#42=PLANE('',#806);
#43=PLANE('',#807);
#44=PLANE('',#810);
#45=PLANE('',#833);
#46=PLANE('',#860);
#47=PLANE('',#863);
#48=PLANE('',#878);
#49=PLANE('',#879);
#50=PLANE('',#881);
#51=(
BOUNDED_SURFACE()
B_SPLINE_SURFACE(2,2,((#1155,#1156,#1157),(#1158,#1159,#1160),(#1161,#1162,
#1163)),.UNSPECIFIED.,.F.,.F.,.F.)
B_SPLINE_SURFACE_WITH_KNOTS((3,3),(3,3),(0.,1.5707963267949),(1.57079632679487,
3.1415926535898),.UNSPECIFIED.)
GEOMETRIC_REPRESENTATION_ITEM()
RATIONAL_B_SPLINE_SURFACE(((1.,0.707106781186538,1.),(0.707106781186547,
0.499999999999993,0.707106781186547),(1.,0.707106781186538,1.)))
REPRESENTATION_ITEM('')
SURFACE()
);
#52=(
BOUNDED_SURFACE()
B_SPLINE_SURFACE(2,2,((#1175,#1176,#1177),(#1178,#1179,#1180),(#1181,#1182,
#1183)),.UNSPECIFIED.,.F.,.F.,.F.)
B_SPLINE_SURFACE_WITH_KNOTS((3,3),(3,3),(0.,1.5707963267949),(-3.14159265362041,
-1.57079632679487),.UNSPECIFIED.)
GEOMETRIC_REPRESENTATION_ITEM()
RATIONAL_B_SPLINE_SURFACE(((1.,0.707106781175713,1.),(0.707106781186545,
0.499999999992337,0.707106781186545),(1.,0.707106781175713,1.)))
REPRESENTATION_ITEM('')
SURFACE()
);
#53=(
BOUNDED_SURFACE()
B_SPLINE_SURFACE(2,2,((#1195,#1196,#1197),(#1198,#1199,#1200),(#1201,#1202,
#1203)),.UNSPECIFIED.,.F.,.F.,.F.)
B_SPLINE_SURFACE_WITH_KNOTS((3,3),(3,3),(0.,1.5707963267949),(-1.57079632680453,
3.87540944223437E-13),.UNSPECIFIED.)
GEOMETRIC_REPRESENTATION_ITEM()
RATIONAL_B_SPLINE_SURFACE(((1.,0.707106781183006,1.),(0.707106781186548,
0.499999999997497,0.707106781186548),(1.,0.707106781183006,1.)))
REPRESENTATION_ITEM('')
SURFACE()
);
#54=(
BOUNDED_SURFACE()
B_SPLINE_SURFACE(2,2,((#1215,#1216,#1217),(#1218,#1219,#1220),(#1221,#1222,
#1223)),.UNSPECIFIED.,.F.,.F.,.F.)
B_SPLINE_SURFACE_WITH_KNOTS((3,3),(3,3),(0.,1.57079632679491),(-9.68852360555652E-14,
1.5707963267949),.UNSPECIFIED.)
GEOMETRIC_REPRESENTATION_ITEM()
RATIONAL_B_SPLINE_SURFACE(((1.,0.707106781186513,1.),(0.707106781186544,
0.499999999999973,0.707106781186544),(1.,0.707106781186513,1.)))
REPRESENTATION_ITEM('')
SURFACE()
);
#55=FACE_OUTER_BOUND('',#106,.T.);
#56=FACE_OUTER_BOUND('',#107,.T.);
#57=FACE_OUTER_BOUND('',#108,.T.);
#58=FACE_OUTER_BOUND('',#109,.T.);
#59=FACE_OUTER_BOUND('',#110,.T.);
#60=FACE_OUTER_BOUND('',#111,.T.);
#61=FACE_OUTER_BOUND('',#112,.T.);
#62=FACE_OUTER_BOUND('',#113,.T.);
#63=FACE_OUTER_BOUND('',#114,.T.);
#64=FACE_OUTER_BOUND('',#115,.T.);
#65=FACE_OUTER_BOUND('',#116,.T.);
#66=FACE_OUTER_BOUND('',#117,.T.);
#67=FACE_OUTER_BOUND('',#118,.T.);
#68=FACE_OUTER_BOUND('',#119,.T.);
#69=FACE_OUTER_BOUND('',#120,.T.);
#70=FACE_OUTER_BOUND('',#121,.T.);
#71=FACE_OUTER_BOUND('',#122,.T.);
#72=FACE_OUTER_BOUND('',#123,.T.);
#73=FACE_OUTER_BOUND('',#124,.T.);
#74=FACE_OUTER_BOUND('',#125,.T.);
#75=FACE_OUTER_BOUND('',#126,.T.);
#76=FACE_OUTER_BOUND('',#127,.T.);
#77=FACE_OUTER_BOUND('',#128,.T.);
#78=FACE_OUTER_BOUND('',#129,.T.);
#79=FACE_OUTER_BOUND('',#130,.T.);
#80=FACE_OUTER_BOUND('',#131,.T.);
#81=FACE_OUTER_BOUND('',#133,.T.);
#82=FACE_OUTER_BOUND('',#134,.T.);
#83=FACE_OUTER_BOUND('',#135,.T.);
#84=FACE_OUTER_BOUND('',#136,.T.);
#85=FACE_OUTER_BOUND('',#137,.T.);
#86=FACE_OUTER_BOUND('',#138,.T.);
#87=FACE_OUTER_BOUND('',#139,.T.);
#88=FACE_OUTER_BOUND('',#140,.T.);
#89=FACE_OUTER_BOUND('',#141,.T.);
#90=FACE_OUTER_BOUND('',#142,.T.);
#91=FACE_OUTER_BOUND('',#143,.T.);
#92=FACE_OUTER_BOUND('',#144,.T.);
#93=FACE_OUTER_BOUND('',#145,.T.);
#94=FACE_OUTER_BOUND('',#146,.T.);
#95=FACE_OUTER_BOUND('',#147,.T.);
#96=FACE_OUTER_BOUND('',#148,.T.);
#97=FACE_OUTER_BOUND('',#149,.T.);
#98=FACE_OUTER_BOUND('',#150,.T.);
#99=FACE_OUTER_BOUND('',#151,.T.);
#100=FACE_OUTER_BOUND('',#152,.T.);
#101=FACE_OUTER_BOUND('',#153,.T.);
#102=FACE_OUTER_BOUND('',#154,.T.);
#103=FACE_OUTER_BOUND('',#155,.T.);
#104=FACE_OUTER_BOUND('',#156,.T.);
#105=FACE_OUTER_BOUND('',#157,.T.);
#106=EDGE_LOOP('',(#474,#475,#476,#477));
#107=EDGE_LOOP('',(#478,#479,#480,#481));
#108=EDGE_LOOP('',(#482,#483,#484,#485));
#109=EDGE_LOOP('',(#486,#487,#488,#489));
#110=EDGE_LOOP('',(#490,#491,#492,#493));
#111=EDGE_LOOP('',(#494,#495,#496,#497));
#112=EDGE_LOOP('',(#498,#499,#500,#501));
#113=EDGE_LOOP('',(#502,#503,#504,#505));
#114=EDGE_LOOP('',(#506,#507,#508,#509));
#115=EDGE_LOOP('',(#510,#511,#512,#513));
#116=EDGE_LOOP('',(#514,#515,#516,#517));
#117=EDGE_LOOP('',(#518,#519,#520,#521));
#118=EDGE_LOOP('',(#522,#523,#524,#525,#526,#527,#528,#529));
#119=EDGE_LOOP('',(#530,#531,#532,#533));
#120=EDGE_LOOP('',(#534,#535,#536,#537));
#121=EDGE_LOOP('',(#538,#539,#540,#541));
#122=EDGE_LOOP('',(#542,#543,#544,#545));
#123=EDGE_LOOP('',(#546,#547,#548,#549));
#124=EDGE_LOOP('',(#550,#551,#552,#553));
#125=EDGE_LOOP('',(#554,#555,#556,#557));
#126=EDGE_LOOP('',(#558,#559,#560,#561));
#127=EDGE_LOOP('',(#562,#563,#564,#565));
#128=EDGE_LOOP('',(#566,#567,#568,#569));
#129=EDGE_LOOP('',(#570,#571,#572,#573));
#130=EDGE_LOOP('',(#574,#575,#576,#577));
#131=EDGE_LOOP('',(#578,#579,#580,#581,#582,#583,#584,#585));
#132=EDGE_LOOP('',(#586,#587,#588,#589,#590,#591,#592,#593));
#133=EDGE_LOOP('',(#594,#595,#596,#597));
#134=EDGE_LOOP('',(#598,#599,#600,#601));
#135=EDGE_LOOP('',(#602,#603,#604,#605));
#136=EDGE_LOOP('',(#606,#607,#608,#609));
#137=EDGE_LOOP('',(#610,#611,#612,#613));
#138=EDGE_LOOP('',(#614,#615,#616,#617));
#139=EDGE_LOOP('',(#618,#619,#620,#621));
#140=EDGE_LOOP('',(#622,#623,#624,#625));
#141=EDGE_LOOP('',(#626,#627,#628,#629));
#142=EDGE_LOOP('',(#630,#631,#632,#633));
#143=EDGE_LOOP('',(#634,#635,#636,#637));
#144=EDGE_LOOP('',(#638,#639,#640,#641));
#145=EDGE_LOOP('',(#642,#643,#644));
#146=EDGE_LOOP('',(#645,#646,#647));
#147=EDGE_LOOP('',(#648,#649,#650));
#148=EDGE_LOOP('',(#651,#652,#653));
#149=EDGE_LOOP('',(#654,#655,#656,#657));
#150=EDGE_LOOP('',(#658,#659,#660,#661));
#151=EDGE_LOOP('',(#662,#663,#664,#665));
#152=EDGE_LOOP('',(#666,#667,#668,#669));
#153=EDGE_LOOP('',(#670,#671,#672,#673));
#154=EDGE_LOOP('',(#674,#675,#676,#677));
#155=EDGE_LOOP('',(#678,#679,#680,#681));
#156=EDGE_LOOP('',(#682,#683,#684,#685));
#157=EDGE_LOOP('',(#686,#687,#688,#689));
#158=LINE('',#1151,#206);
#159=LINE('',#1154,#207);
#160=LINE('',#1173,#208);
#161=LINE('',#1174,#209);
#162=LINE('',#1193,#210);
#163=LINE('',#1194,#211);
#164=LINE('',#1213,#212);
#165=LINE('',#1214,#213);
#166=LINE('',#1228,#214);
#167=LINE('',#1231,#215);
#168=LINE('',#1234,#216);
#169=LINE('',#1235,#217);
#170=LINE('',#1238,#218);
#171=LINE('',#1242,#219);
#172=LINE('',#1243,#220);
#173=LINE('',#1247,#221);
#174=LINE('',#1249,#222);
#175=LINE('',#1250,#223);
#176=LINE('',#1253,#224);
#177=LINE('',#1256,#225);
#178=LINE('',#1264,#226);
#179=LINE('',#1272,#227);
#180=LINE('',#1280,#228);
#181=LINE('',#1288,#229);
#182=LINE('',#1294,#230);
#183=LINE('',#1298,#231);
#184=LINE('',#1302,#232);
#185=LINE('',#1306,#233);
#186=LINE('',#1312,#234);
#187=LINE('',#1321,#235);
#188=LINE('',#1329,#236);
#189=LINE('',#1337,#237);
#190=LINE('',#1342,#238);
#191=LINE('',#1345,#239);
#192=LINE('',#1348,#240);
#193=LINE('',#1349,#241);
#194=LINE('',#1352,#242);
#195=LINE('',#1356,#243);
#196=LINE('',#1357,#244);
#197=LINE('',#1476,#245);
#198=LINE('',#1477,#246);
#199=LINE('',#1479,#247);
#200=LINE('',#1481,#248);
#201=LINE('',#1483,#249);
#202=LINE('',#1484,#250);
#203=LINE('',#1487,#251);
#204=LINE('',#1488,#252);
#205=LINE('',#1490,#253);
#206=VECTOR('',#892,10.);
#207=VECTOR('',#895,10.);
#208=VECTOR('',#906,10.);
#209=VECTOR('',#907,10.);
#210=VECTOR('',#918,10.);
#211=VECTOR('',#919,10.);
#212=VECTOR('',#930,10.);
#213=VECTOR('',#931,10.);
#214=VECTOR('',#938,10.);
#215=VECTOR('',#941,10.);
#216=VECTOR('',#944,10.);
#217=VECTOR('',#945,10.);
#218=VECTOR('',#948,10.);
#219=VECTOR('',#953,10.);
#220=VECTOR('',#954,10.);
#221=VECTOR('',#959,10.);
#222=VECTOR('',#960,10.);
#223=VECTOR('',#961,10.);
#224=VECTOR('',#964,10.);
#225=VECTOR('',#969,10.);
#226=VECTOR('',#980,10.);
#227=VECTOR('',#991,10.);
#228=VECTOR('',#1002,10.);
#229=VECTOR('',#1013,10.);
#230=VECTOR('',#1020,10.);
#231=VECTOR('',#1023,10.);
#232=VECTOR('',#1026,10.);
#233=VECTOR('',#1029,10.);
#234=VECTOR('',#1036,10.);
#235=VECTOR('',#1049,10.);
#236=VECTOR('',#1060,10.);
#237=VECTOR('',#1071,10.);
#238=VECTOR('',#1078,10.);
#239=VECTOR('',#1081,10.);
#240=VECTOR('',#1084,10.);
#241=VECTOR('',#1085,10.);
#242=VECTOR('',#1088,10.);
#243=VECTOR('',#1093,10.);
#244=VECTOR('',#1094,10.);
#245=VECTOR('',#1117,10.);
#246=VECTOR('',#1118,10.);
#247=VECTOR('',#1121,10.);
#248=VECTOR('',#1124,10.);
#249=VECTOR('',#1127,10.);
#250=VECTOR('',#1128,10.);
#251=VECTOR('',#1133,10.);
#252=VECTOR('',#1134,10.);
#253=VECTOR('',#1137,10.);
#254=CIRCLE('',#781,1.988);
#255=CIRCLE('',#782,1.988);
#256=CIRCLE('',#783,1.98799999999999);
#257=CIRCLE('',#784,0.0120000000000017);
#258=CIRCLE('',#785,2.);
#259=CIRCLE('',#787,1.988);
#260=CIRCLE('',#788,1.988);
#261=CIRCLE('',#789,0.0119999999999928);
#262=CIRCLE('',#790,1.99999999999999);
#263=CIRCLE('',#792,1.98800000000001);
#264=CIRCLE('',#793,1.988);
#265=CIRCLE('',#794,0.0119999999999928);
#266=CIRCLE('',#795,1.99999999999999);
#267=CIRCLE('',#797,1.988);
#268=CIRCLE('',#798,0.0120000000000284);
#269=CIRCLE('',#799,2.00000000000003);
#270=CIRCLE('',#801,1.99999999999999);
#271=CIRCLE('',#804,2.);
#272=CIRCLE('',#809,1.99999999999999);
#273=CIRCLE('',#812,2.00000000000003);
#274=CIRCLE('',#814,0.5);
#275=CIRCLE('',#815,0.5);
#276=CIRCLE('',#817,0.5);
#277=CIRCLE('',#818,1.5);
#278=CIRCLE('',#820,0.500000000000027);
#279=CIRCLE('',#822,0.499999999999999);
#280=CIRCLE('',#823,1.50000000000003);
#281=CIRCLE('',#825,0.5);
#282=CIRCLE('',#827,0.499999999999999);
#283=CIRCLE('',#828,1.49999999999999);
#284=CIRCLE('',#830,0.499999999999992);
#285=CIRCLE('',#832,1.49999999999999);
#286=CIRCLE('',#834,0.899999999999956);
#287=CIRCLE('',#835,0.899999999999956);
#288=CIRCLE('',#836,0.900000000000001);
#289=CIRCLE('',#837,0.899999999999956);
#290=CIRCLE('',#839,0.5);
#291=CIRCLE('',#840,0.5);
#292=CIRCLE('',#842,0.499999999999999);
#293=CIRCLE('',#843,0.399999999999956);
#294=CIRCLE('',#845,0.5);
#295=CIRCLE('',#847,0.5);
#296=CIRCLE('',#848,0.399999999999956);
#297=CIRCLE('',#850,0.5);
#298=CIRCLE('',#852,0.500000000000009);
#299=CIRCLE('',#853,0.4);
#300=CIRCLE('',#855,0.5);
#301=CIRCLE('',#857,0.399999999999956);
#302=CIRCLE('',#859,0.399999999999956);
#303=CIRCLE('',#862,0.399999999999957);
#304=CIRCLE('',#866,0.4);
#305=CIRCLE('',#869,0.399999999999955);
#306=VERTEX_POINT('',#1147);
#307=VERTEX_POINT('',#1148);
#308=VERTEX_POINT('',#1150);
#309=VERTEX_POINT('',#1152);
#310=VERTEX_POINT('',#1164);
#311=VERTEX_POINT('',#1165);
#312=VERTEX_POINT('',#1170);
#313=VERTEX_POINT('',#1171);
#314=VERTEX_POINT('',#1184);
#315=VERTEX_POINT('',#1185);
#316=VERTEX_POINT('',#1190);
#317=VERTEX_POINT('',#1191);
#318=VERTEX_POINT('',#1204);
#319=VERTEX_POINT('',#1205);
#320=VERTEX_POINT('',#1210);
#321=VERTEX_POINT('',#1211);
#322=VERTEX_POINT('',#1227);
#323=VERTEX_POINT('',#1229);
#324=VERTEX_POINT('',#1233);
#325=VERTEX_POINT('',#1237);
#326=VERTEX_POINT('',#1241);
#327=VERTEX_POINT('',#1246);
#328=VERTEX_POINT('',#1248);
#329=VERTEX_POINT('',#1252);
#330=VERTEX_POINT('',#1260);
#331=VERTEX_POINT('',#1262);
#332=VERTEX_POINT('',#1266);
#333=VERTEX_POINT('',#1270);
#334=VERTEX_POINT('',#1274);
#335=VERTEX_POINT('',#1278);
#336=VERTEX_POINT('',#1282);
#337=VERTEX_POINT('',#1286);
#338=VERTEX_POINT('',#1292);
#339=VERTEX_POINT('',#1293);
#340=VERTEX_POINT('',#1295);
#341=VERTEX_POINT('',#1297);
#342=VERTEX_POINT('',#1299);
#343=VERTEX_POINT('',#1301);
#344=VERTEX_POINT('',#1303);
#345=VERTEX_POINT('',#1305);
#346=VERTEX_POINT('',#1309);
#347=VERTEX_POINT('',#1311);
#348=VERTEX_POINT('',#1315);
#349=VERTEX_POINT('',#1319);
#350=VERTEX_POINT('',#1323);
#351=VERTEX_POINT('',#1327);
#352=VERTEX_POINT('',#1331);
#353=VERTEX_POINT('',#1335);
#354=VERTEX_POINT('',#1341);
#355=VERTEX_POINT('',#1343);
#356=VERTEX_POINT('',#1347);
#357=VERTEX_POINT('',#1351);
#358=VERTEX_POINT('',#1355);
#359=VERTEX_POINT('',#1383);
#360=VERTEX_POINT('',#1384);
#361=VERTEX_POINT('',#1386);
#362=VERTEX_POINT('',#1414);
#363=VERTEX_POINT('',#1415);
#364=VERTEX_POINT('',#1444);
#365=VERTEX_POINT('',#1472);
#366=EDGE_CURVE('',#306,#307,#254,.T.);
#367=EDGE_CURVE('',#307,#308,#158,.T.);
#368=EDGE_CURVE('',#308,#309,#255,.T.);
#369=EDGE_CURVE('',#309,#306,#159,.T.);
#370=EDGE_CURVE('',#310,#311,#256,.T.);
#371=EDGE_CURVE('',#311,#309,#257,.T.);
#372=EDGE_CURVE('',#308,#310,#258,.T.);
#373=EDGE_CURVE('',#312,#313,#259,.T.);
#374=EDGE_CURVE('',#313,#311,#160,.T.);
#375=EDGE_CURVE('',#310,#312,#161,.T.);
#376=EDGE_CURVE('',#314,#315,#260,.T.);
#377=EDGE_CURVE('',#315,#313,#261,.T.);
#378=EDGE_CURVE('',#312,#314,#262,.T.);
#379=EDGE_CURVE('',#316,#317,#263,.T.);
#380=EDGE_CURVE('',#317,#315,#162,.T.);
#381=EDGE_CURVE('',#314,#316,#163,.T.);
#382=EDGE_CURVE('',#318,#319,#264,.T.);
#383=EDGE_CURVE('',#319,#317,#265,.T.);
#384=EDGE_CURVE('',#316,#318,#266,.T.);
#385=EDGE_CURVE('',#320,#321,#267,.T.);
#386=EDGE_CURVE('',#321,#319,#164,.T.);
#387=EDGE_CURVE('',#318,#320,#165,.T.);
#388=EDGE_CURVE('',#306,#321,#268,.T.);
#389=EDGE_CURVE('',#320,#307,#269,.T.);
#390=EDGE_CURVE('',#312,#322,#166,.T.);
#391=EDGE_CURVE('',#323,#322,#270,.T.);
#392=EDGE_CURVE('',#323,#314,#167,.T.);
#393=EDGE_CURVE('',#324,#310,#168,.T.);
#394=EDGE_CURVE('',#322,#324,#169,.T.);
#395=EDGE_CURVE('',#325,#308,#170,.T.);
#396=EDGE_CURVE('',#324,#325,#271,.T.);
#397=EDGE_CURVE('',#326,#307,#171,.T.);
#398=EDGE_CURVE('',#325,#326,#172,.T.);
#399=EDGE_CURVE('',#327,#318,#173,.T.);
#400=EDGE_CURVE('',#328,#327,#174,.T.);
#401=EDGE_CURVE('',#328,#320,#175,.T.);
#402=EDGE_CURVE('',#329,#316,#176,.T.);
#403=EDGE_CURVE('',#327,#329,#272,.T.);
#404=EDGE_CURVE('',#329,#323,#177,.T.);
#405=EDGE_CURVE('',#326,#328,#273,.T.);
#406=EDGE_CURVE('',#330,#322,#274,.T.);
#407=EDGE_CURVE('',#324,#331,#275,.T.);
#408=EDGE_CURVE('',#331,#330,#178,.T.);
#409=EDGE_CURVE('',#325,#332,#276,.T.);
#410=EDGE_CURVE('',#332,#331,#277,.T.);
#411=EDGE_CURVE('',#326,#333,#278,.T.);
#412=EDGE_CURVE('',#333,#332,#179,.T.);
#413=EDGE_CURVE('',#328,#334,#279,.T.);
#414=EDGE_CURVE('',#334,#333,#280,.T.);
#415=EDGE_CURVE('',#327,#335,#281,.T.);
#416=EDGE_CURVE('',#335,#334,#180,.T.);
#417=EDGE_CURVE('',#329,#336,#282,.T.);
#418=EDGE_CURVE('',#336,#335,#283,.T.);
#419=EDGE_CURVE('',#323,#337,#284,.T.);
#420=EDGE_CURVE('',#337,#336,#181,.T.);
#421=EDGE_CURVE('',#330,#337,#285,.T.);
#422=EDGE_CURVE('',#338,#339,#182,.T.);
#423=EDGE_CURVE('',#340,#338,#286,.T.);
#424=EDGE_CURVE('',#341,#340,#183,.T.);
#425=EDGE_CURVE('',#342,#341,#287,.T.);
#426=EDGE_CURVE('',#343,#342,#184,.T.);
#427=EDGE_CURVE('',#344,#343,#288,.T.);
#428=EDGE_CURVE('',#345,#344,#185,.T.);
#429=EDGE_CURVE('',#339,#345,#289,.T.);
#430=EDGE_CURVE('',#339,#346,#290,.T.);
#431=EDGE_CURVE('',#346,#347,#186,.T.);
#432=EDGE_CURVE('',#347,#338,#291,.T.);
#433=EDGE_CURVE('',#348,#340,#292,.T.);
#434=EDGE_CURVE('',#347,#348,#293,.T.);
#435=EDGE_CURVE('',#349,#341,#294,.T.);
#436=EDGE_CURVE('',#348,#349,#187,.T.);
#437=EDGE_CURVE('',#350,#342,#295,.T.);
#438=EDGE_CURVE('',#349,#350,#296,.T.);
#439=EDGE_CURVE('',#351,#343,#297,.T.);
#440=EDGE_CURVE('',#350,#351,#188,.T.);
#441=EDGE_CURVE('',#352,#344,#298,.T.);
#442=EDGE_CURVE('',#351,#352,#299,.T.);
#443=EDGE_CURVE('',#353,#345,#300,.T.);
#444=EDGE_CURVE('',#352,#353,#189,.T.);
#445=EDGE_CURVE('',#353,#346,#301,.T.);
#446=EDGE_CURVE('',#354,#349,#190,.T.);
#447=EDGE_CURVE('',#355,#354,#302,.T.);
#448=EDGE_CURVE('',#355,#350,#191,.T.);
#449=EDGE_CURVE('',#356,#348,#192,.T.);
#450=EDGE_CURVE('',#354,#356,#193,.T.);
#451=EDGE_CURVE('',#357,#347,#194,.T.);
#452=EDGE_CURVE('',#356,#357,#303,.T.);
#453=EDGE_CURVE('',#358,#346,#195,.T.);
#454=EDGE_CURVE('',#357,#358,#196,.T.);
#455=EDGE_CURVE('',#359,#360,#19,.T.);
#456=EDGE_CURVE('',#360,#361,#20,.T.);
#457=EDGE_CURVE('',#361,#359,#304,.T.);
#458=EDGE_CURVE('',#362,#363,#21,.T.);
#459=EDGE_CURVE('',#363,#358,#22,.T.);
#460=EDGE_CURVE('',#358,#362,#305,.T.);
#461=EDGE_CURVE('',#357,#364,#23,.T.);
#462=EDGE_CURVE('',#364,#356,#24,.T.);
#463=EDGE_CURVE('',#354,#365,#25,.T.);
#464=EDGE_CURVE('',#365,#355,#26,.T.);
#465=EDGE_CURVE('',#359,#355,#197,.T.);
#466=EDGE_CURVE('',#365,#360,#198,.T.);
#467=EDGE_CURVE('',#364,#365,#199,.T.);
#468=EDGE_CURVE('',#363,#364,#200,.T.);
#469=EDGE_CURVE('',#360,#363,#201,.T.);
#470=EDGE_CURVE('',#362,#361,#202,.T.);
#471=EDGE_CURVE('',#361,#352,#203,.T.);
#472=EDGE_CURVE('',#362,#353,#204,.T.);
#473=EDGE_CURVE('',#359,#351,#205,.T.);
#474=ORIENTED_EDGE('',*,*,#366,.T.);
#475=ORIENTED_EDGE('',*,*,#367,.T.);
#476=ORIENTED_EDGE('',*,*,#368,.T.);
#477=ORIENTED_EDGE('',*,*,#369,.T.);
#478=ORIENTED_EDGE('',*,*,#370,.T.);
#479=ORIENTED_EDGE('',*,*,#371,.T.);
#480=ORIENTED_EDGE('',*,*,#368,.F.);
#481=ORIENTED_EDGE('',*,*,#372,.T.);
#482=ORIENTED_EDGE('',*,*,#373,.T.);
#483=ORIENTED_EDGE('',*,*,#374,.T.);
#484=ORIENTED_EDGE('',*,*,#370,.F.);
#485=ORIENTED_EDGE('',*,*,#375,.T.);
#486=ORIENTED_EDGE('',*,*,#376,.T.);
#487=ORIENTED_EDGE('',*,*,#377,.T.);
#488=ORIENTED_EDGE('',*,*,#373,.F.);
#489=ORIENTED_EDGE('',*,*,#378,.T.);
#490=ORIENTED_EDGE('',*,*,#379,.T.);
#491=ORIENTED_EDGE('',*,*,#380,.T.);
#492=ORIENTED_EDGE('',*,*,#376,.F.);
#493=ORIENTED_EDGE('',*,*,#381,.T.);
#494=ORIENTED_EDGE('',*,*,#382,.T.);
#495=ORIENTED_EDGE('',*,*,#383,.T.);
#496=ORIENTED_EDGE('',*,*,#379,.F.);
#497=ORIENTED_EDGE('',*,*,#384,.T.);
#498=ORIENTED_EDGE('',*,*,#385,.T.);
#499=ORIENTED_EDGE('',*,*,#386,.T.);
#500=ORIENTED_EDGE('',*,*,#382,.F.);
#501=ORIENTED_EDGE('',*,*,#387,.T.);
#502=ORIENTED_EDGE('',*,*,#366,.F.);
#503=ORIENTED_EDGE('',*,*,#388,.T.);
#504=ORIENTED_EDGE('',*,*,#385,.F.);
#505=ORIENTED_EDGE('',*,*,#389,.T.);
#506=ORIENTED_EDGE('',*,*,#378,.F.);
#507=ORIENTED_EDGE('',*,*,#390,.T.);
#508=ORIENTED_EDGE('',*,*,#391,.F.);
#509=ORIENTED_EDGE('',*,*,#392,.T.);
#510=ORIENTED_EDGE('',*,*,#375,.F.);
#511=ORIENTED_EDGE('',*,*,#393,.F.);
#512=ORIENTED_EDGE('',*,*,#394,.F.);
#513=ORIENTED_EDGE('',*,*,#390,.F.);
#514=ORIENTED_EDGE('',*,*,#372,.F.);
#515=ORIENTED_EDGE('',*,*,#395,.F.);
#516=ORIENTED_EDGE('',*,*,#396,.F.);
#517=ORIENTED_EDGE('',*,*,#393,.T.);
#518=ORIENTED_EDGE('',*,*,#367,.F.);
#519=ORIENTED_EDGE('',*,*,#397,.F.);
#520=ORIENTED_EDGE('',*,*,#398,.F.);
#521=ORIENTED_EDGE('',*,*,#395,.T.);
#522=ORIENTED_EDGE('',*,*,#369,.F.);
#523=ORIENTED_EDGE('',*,*,#371,.F.);
#524=ORIENTED_EDGE('',*,*,#374,.F.);
#525=ORIENTED_EDGE('',*,*,#377,.F.);
#526=ORIENTED_EDGE('',*,*,#380,.F.);
#527=ORIENTED_EDGE('',*,*,#383,.F.);
#528=ORIENTED_EDGE('',*,*,#386,.F.);
#529=ORIENTED_EDGE('',*,*,#388,.F.);
#530=ORIENTED_EDGE('',*,*,#387,.F.);
#531=ORIENTED_EDGE('',*,*,#399,.F.);
#532=ORIENTED_EDGE('',*,*,#400,.F.);
#533=ORIENTED_EDGE('',*,*,#401,.T.);
#534=ORIENTED_EDGE('',*,*,#384,.F.);
#535=ORIENTED_EDGE('',*,*,#402,.F.);
#536=ORIENTED_EDGE('',*,*,#403,.F.);
#537=ORIENTED_EDGE('',*,*,#399,.T.);
#538=ORIENTED_EDGE('',*,*,#381,.F.);
#539=ORIENTED_EDGE('',*,*,#392,.F.);
#540=ORIENTED_EDGE('',*,*,#404,.F.);
#541=ORIENTED_EDGE('',*,*,#402,.T.);
#542=ORIENTED_EDGE('',*,*,#389,.F.);
#543=ORIENTED_EDGE('',*,*,#401,.F.);
#544=ORIENTED_EDGE('',*,*,#405,.F.);
#545=ORIENTED_EDGE('',*,*,#397,.T.);
#546=ORIENTED_EDGE('',*,*,#406,.T.);
#547=ORIENTED_EDGE('',*,*,#394,.T.);
#548=ORIENTED_EDGE('',*,*,#407,.T.);
#549=ORIENTED_EDGE('',*,*,#408,.T.);
#550=ORIENTED_EDGE('',*,*,#409,.T.);
#551=ORIENTED_EDGE('',*,*,#410,.T.);
#552=ORIENTED_EDGE('',*,*,#407,.F.);
#553=ORIENTED_EDGE('',*,*,#396,.T.);
#554=ORIENTED_EDGE('',*,*,#411,.T.);
#555=ORIENTED_EDGE('',*,*,#412,.T.);
#556=ORIENTED_EDGE('',*,*,#409,.F.);
#557=ORIENTED_EDGE('',*,*,#398,.T.);
#558=ORIENTED_EDGE('',*,*,#413,.T.);
#559=ORIENTED_EDGE('',*,*,#414,.T.);
#560=ORIENTED_EDGE('',*,*,#411,.F.);
#561=ORIENTED_EDGE('',*,*,#405,.T.);
#562=ORIENTED_EDGE('',*,*,#415,.T.);
#563=ORIENTED_EDGE('',*,*,#416,.T.);
#564=ORIENTED_EDGE('',*,*,#413,.F.);
#565=ORIENTED_EDGE('',*,*,#400,.T.);
#566=ORIENTED_EDGE('',*,*,#417,.T.);
#567=ORIENTED_EDGE('',*,*,#418,.T.);
#568=ORIENTED_EDGE('',*,*,#415,.F.);
#569=ORIENTED_EDGE('',*,*,#403,.T.);
#570=ORIENTED_EDGE('',*,*,#419,.T.);
#571=ORIENTED_EDGE('',*,*,#420,.T.);
#572=ORIENTED_EDGE('',*,*,#417,.F.);
#573=ORIENTED_EDGE('',*,*,#404,.T.);
#574=ORIENTED_EDGE('',*,*,#406,.F.);
#575=ORIENTED_EDGE('',*,*,#421,.T.);
#576=ORIENTED_EDGE('',*,*,#419,.F.);
#577=ORIENTED_EDGE('',*,*,#391,.T.);
#578=ORIENTED_EDGE('',*,*,#408,.F.);
#579=ORIENTED_EDGE('',*,*,#410,.F.);
#580=ORIENTED_EDGE('',*,*,#412,.F.);
#581=ORIENTED_EDGE('',*,*,#414,.F.);
#582=ORIENTED_EDGE('',*,*,#416,.F.);
#583=ORIENTED_EDGE('',*,*,#418,.F.);
#584=ORIENTED_EDGE('',*,*,#420,.F.);
#585=ORIENTED_EDGE('',*,*,#421,.F.);
#586=ORIENTED_EDGE('',*,*,#422,.F.);
#587=ORIENTED_EDGE('',*,*,#423,.F.);
#588=ORIENTED_EDGE('',*,*,#424,.F.);
#589=ORIENTED_EDGE('',*,*,#425,.F.);
#590=ORIENTED_EDGE('',*,*,#426,.F.);
#591=ORIENTED_EDGE('',*,*,#427,.F.);
#592=ORIENTED_EDGE('',*,*,#428,.F.);
#593=ORIENTED_EDGE('',*,*,#429,.F.);
#594=ORIENTED_EDGE('',*,*,#430,.T.);
#595=ORIENTED_EDGE('',*,*,#431,.T.);
#596=ORIENTED_EDGE('',*,*,#432,.T.);
#597=ORIENTED_EDGE('',*,*,#422,.T.);
#598=ORIENTED_EDGE('',*,*,#433,.T.);
#599=ORIENTED_EDGE('',*,*,#423,.T.);
#600=ORIENTED_EDGE('',*,*,#432,.F.);
#601=ORIENTED_EDGE('',*,*,#434,.T.);
#602=ORIENTED_EDGE('',*,*,#435,.T.);
#603=ORIENTED_EDGE('',*,*,#424,.T.);
#604=ORIENTED_EDGE('',*,*,#433,.F.);
#605=ORIENTED_EDGE('',*,*,#436,.T.);
#606=ORIENTED_EDGE('',*,*,#437,.T.);
#607=ORIENTED_EDGE('',*,*,#425,.T.);
#608=ORIENTED_EDGE('',*,*,#435,.F.);
#609=ORIENTED_EDGE('',*,*,#438,.T.);
#610=ORIENTED_EDGE('',*,*,#439,.T.);
#611=ORIENTED_EDGE('',*,*,#426,.T.);
#612=ORIENTED_EDGE('',*,*,#437,.F.);
#613=ORIENTED_EDGE('',*,*,#440,.T.);
#614=ORIENTED_EDGE('',*,*,#441,.T.);
#615=ORIENTED_EDGE('',*,*,#427,.T.);
#616=ORIENTED_EDGE('',*,*,#439,.F.);
#617=ORIENTED_EDGE('',*,*,#442,.T.);
#618=ORIENTED_EDGE('',*,*,#443,.T.);
#619=ORIENTED_EDGE('',*,*,#428,.T.);
#620=ORIENTED_EDGE('',*,*,#441,.F.);
#621=ORIENTED_EDGE('',*,*,#444,.T.);
#622=ORIENTED_EDGE('',*,*,#430,.F.);
#623=ORIENTED_EDGE('',*,*,#429,.T.);
#624=ORIENTED_EDGE('',*,*,#443,.F.);
#625=ORIENTED_EDGE('',*,*,#445,.T.);
#626=ORIENTED_EDGE('',*,*,#438,.F.);
#627=ORIENTED_EDGE('',*,*,#446,.F.);
#628=ORIENTED_EDGE('',*,*,#447,.F.);
#629=ORIENTED_EDGE('',*,*,#448,.T.);
#630=ORIENTED_EDGE('',*,*,#436,.F.);
#631=ORIENTED_EDGE('',*,*,#449,.F.);
#632=ORIENTED_EDGE('',*,*,#450,.F.);
#633=ORIENTED_EDGE('',*,*,#446,.T.);
#634=ORIENTED_EDGE('',*,*,#434,.F.);
#635=ORIENTED_EDGE('',*,*,#451,.F.);
#636=ORIENTED_EDGE('',*,*,#452,.F.);
#637=ORIENTED_EDGE('',*,*,#449,.T.);
#638=ORIENTED_EDGE('',*,*,#431,.F.);
#639=ORIENTED_EDGE('',*,*,#453,.F.);
#640=ORIENTED_EDGE('',*,*,#454,.F.);
#641=ORIENTED_EDGE('',*,*,#451,.T.);
#642=ORIENTED_EDGE('',*,*,#455,.T.);
#643=ORIENTED_EDGE('',*,*,#456,.T.);
#644=ORIENTED_EDGE('',*,*,#457,.T.);
#645=ORIENTED_EDGE('',*,*,#458,.T.);
#646=ORIENTED_EDGE('',*,*,#459,.T.);
#647=ORIENTED_EDGE('',*,*,#460,.T.);
#648=ORIENTED_EDGE('',*,*,#461,.T.);
#649=ORIENTED_EDGE('',*,*,#462,.T.);
#650=ORIENTED_EDGE('',*,*,#452,.T.);
#651=ORIENTED_EDGE('',*,*,#463,.T.);
#652=ORIENTED_EDGE('',*,*,#464,.T.);
#653=ORIENTED_EDGE('',*,*,#447,.T.);
#654=ORIENTED_EDGE('',*,*,#455,.F.);
#655=ORIENTED_EDGE('',*,*,#465,.T.);
#656=ORIENTED_EDGE('',*,*,#464,.F.);
#657=ORIENTED_EDGE('',*,*,#466,.T.);
#658=ORIENTED_EDGE('',*,*,#462,.F.);
#659=ORIENTED_EDGE('',*,*,#467,.T.);
#660=ORIENTED_EDGE('',*,*,#463,.F.);
#661=ORIENTED_EDGE('',*,*,#450,.T.);
#662=ORIENTED_EDGE('',*,*,#459,.F.);
#663=ORIENTED_EDGE('',*,*,#468,.T.);
#664=ORIENTED_EDGE('',*,*,#461,.F.);
#665=ORIENTED_EDGE('',*,*,#454,.T.);
#666=ORIENTED_EDGE('',*,*,#456,.F.);
#667=ORIENTED_EDGE('',*,*,#469,.T.);
#668=ORIENTED_EDGE('',*,*,#458,.F.);
#669=ORIENTED_EDGE('',*,*,#470,.T.);
#670=ORIENTED_EDGE('',*,*,#466,.F.);
#671=ORIENTED_EDGE('',*,*,#467,.F.);
#672=ORIENTED_EDGE('',*,*,#468,.F.);
#673=ORIENTED_EDGE('',*,*,#469,.F.);
#674=ORIENTED_EDGE('',*,*,#444,.F.);
#675=ORIENTED_EDGE('',*,*,#471,.F.);
#676=ORIENTED_EDGE('',*,*,#470,.F.);
#677=ORIENTED_EDGE('',*,*,#472,.T.);
#678=ORIENTED_EDGE('',*,*,#442,.F.);
#679=ORIENTED_EDGE('',*,*,#473,.F.);
#680=ORIENTED_EDGE('',*,*,#457,.F.);
#681=ORIENTED_EDGE('',*,*,#471,.T.);
#682=ORIENTED_EDGE('',*,*,#440,.F.);
#683=ORIENTED_EDGE('',*,*,#448,.F.);
#684=ORIENTED_EDGE('',*,*,#465,.F.);
#685=ORIENTED_EDGE('',*,*,#473,.T.);
#686=ORIENTED_EDGE('',*,*,#445,.F.);
#687=ORIENTED_EDGE('',*,*,#472,.F.);
#688=ORIENTED_EDGE('',*,*,#460,.F.);
#689=ORIENTED_EDGE('',*,*,#453,.T.);
#690=CYLINDRICAL_SURFACE('',#780,1.988);
#691=CYLINDRICAL_SURFACE('',#786,1.988);
#692=CYLINDRICAL_SURFACE('',#791,1.988);
#693=CYLINDRICAL_SURFACE('',#796,1.988);
#694=CYLINDRICAL_SURFACE('',#800,1.99999999999999);
#695=CYLINDRICAL_SURFACE('',#803,2.);
#696=CYLINDRICAL_SURFACE('',#808,1.99999999999999);
#697=CYLINDRICAL_SURFACE('',#811,2.00000000000003);
#698=CYLINDRICAL_SURFACE('',#813,0.5);
#699=CYLINDRICAL_SURFACE('',#819,0.5);
#700=CYLINDRICAL_SURFACE('',#824,0.5);
#701=CYLINDRICAL_SURFACE('',#829,0.5);
#702=CYLINDRICAL_SURFACE('',#838,0.5);
#703=CYLINDRICAL_SURFACE('',#844,0.5);
#704=CYLINDRICAL_SURFACE('',#849,0.5);
#705=CYLINDRICAL_SURFACE('',#854,0.5);
#706=CYLINDRICAL_SURFACE('',#858,0.399999999999956);
#707=CYLINDRICAL_SURFACE('',#861,0.399999999999956);
#708=CYLINDRICAL_SURFACE('',#874,0.5);
#709=CYLINDRICAL_SURFACE('',#875,0.5);
#710=CYLINDRICAL_SURFACE('',#876,0.5);
#711=CYLINDRICAL_SURFACE('',#877,0.5);
#712=CYLINDRICAL_SURFACE('',#880,0.4);
#713=CYLINDRICAL_SURFACE('',#882,0.399999999999956);
#714=ADVANCED_FACE('',(#55),#690,.T.);
#715=ADVANCED_FACE('',(#56),#51,.F.);
#716=ADVANCED_FACE('',(#57),#691,.T.);
#717=ADVANCED_FACE('',(#58),#52,.F.);
#718=ADVANCED_FACE('',(#59),#692,.T.);
#719=ADVANCED_FACE('',(#60),#53,.F.);
#720=ADVANCED_FACE('',(#61),#693,.T.);
#721=ADVANCED_FACE('',(#62),#54,.F.);
#722=ADVANCED_FACE('',(#63),#694,.T.);
#723=ADVANCED_FACE('',(#64),#40,.T.);
#724=ADVANCED_FACE('',(#65),#695,.T.);
#725=ADVANCED_FACE('',(#66),#41,.T.);
#726=ADVANCED_FACE('',(#67),#42,.F.);
#727=ADVANCED_FACE('',(#68),#43,.T.);
#728=ADVANCED_FACE('',(#69),#696,.T.);
#729=ADVANCED_FACE('',(#70),#44,.T.);
#730=ADVANCED_FACE('',(#71),#697,.T.);
#731=ADVANCED_FACE('',(#72),#698,.T.);
#732=ADVANCED_FACE('',(#73),#32,.T.);
#733=ADVANCED_FACE('',(#74),#699,.T.);
#734=ADVANCED_FACE('',(#75),#33,.T.);
#735=ADVANCED_FACE('',(#76),#700,.T.);
#736=ADVANCED_FACE('',(#77),#34,.T.);
#737=ADVANCED_FACE('',(#78),#701,.T.);
#738=ADVANCED_FACE('',(#79),#35,.T.);
#739=ADVANCED_FACE('',(#80,#31),#45,.F.);
#740=ADVANCED_FACE('',(#81),#702,.T.);
#741=ADVANCED_FACE('',(#82),#36,.T.);
#742=ADVANCED_FACE('',(#83),#703,.T.);
#743=ADVANCED_FACE('',(#84),#37,.T.);
#744=ADVANCED_FACE('',(#85),#704,.T.);
#745=ADVANCED_FACE('',(#86),#38,.T.);
#746=ADVANCED_FACE('',(#87),#705,.T.);
#747=ADVANCED_FACE('',(#88),#39,.T.);
#748=ADVANCED_FACE('',(#89),#706,.F.);
#749=ADVANCED_FACE('',(#90),#46,.T.);
#750=ADVANCED_FACE('',(#91),#707,.F.);
#751=ADVANCED_FACE('',(#92),#47,.T.);
#752=ADVANCED_FACE('',(#93),#27,.T.);
#753=ADVANCED_FACE('',(#94),#28,.T.);
#754=ADVANCED_FACE('',(#95),#29,.T.);
#755=ADVANCED_FACE('',(#96),#30,.T.);
#756=ADVANCED_FACE('',(#97),#708,.F.);
#757=ADVANCED_FACE('',(#98),#709,.F.);
#758=ADVANCED_FACE('',(#99),#710,.F.);
#759=ADVANCED_FACE('',(#100),#711,.F.);
#760=ADVANCED_FACE('',(#101),#48,.F.);
#761=ADVANCED_FACE('',(#102),#49,.T.);
#762=ADVANCED_FACE('',(#103),#712,.F.);
#763=ADVANCED_FACE('',(#104),#50,.T.);
#764=ADVANCED_FACE('',(#105),#713,.F.);
#765=CLOSED_SHELL('',(#714,#715,#716,#717,#718,#719,#720,#721,#722,#723,
#724,#725,#726,#727,#728,#729,#730,#731,#732,#733,#734,#735,#736,#737,#738,
#739,#740,#741,#742,#743,#744,#745,#746,#747,#748,#749,#750,#751,#752,#753,
#754,#755,#756,#757,#758,#759,#760,#761,#762,#763,#764));
#766=DERIVED_UNIT_ELEMENT(#768,1.);
#767=DERIVED_UNIT_ELEMENT(#1501,-3.);
#768=(
MASS_UNIT()
NAMED_UNIT(*)
SI_UNIT(.KILO.,.GRAM.)
);
#769=DERIVED_UNIT((#766,#767));
#770=MEASURE_REPRESENTATION_ITEM('density measure',
POSITIVE_RATIO_MEASURE(7850.),#769);
#771=PROPERTY_DEFINITION_REPRESENTATION(#776,#773);
#772=PROPERTY_DEFINITION_REPRESENTATION(#777,#774);
#773=REPRESENTATION('material name',(#775),#1498);
#774=REPRESENTATION('density',(#770),#1498);
#775=DESCRIPTIVE_REPRESENTATION_ITEM('Steel','Steel');
#776=PROPERTY_DEFINITION('material property','material name',#1513);
#777=PROPERTY_DEFINITION('material property','density of part',#1513);
#778=AXIS2_PLACEMENT_3D('',#1144,#884,#885);
#779=AXIS2_PLACEMENT_3D('',#1145,#886,#887);
#780=AXIS2_PLACEMENT_3D('',#1146,#888,#889);
#781=AXIS2_PLACEMENT_3D('',#1149,#890,#891);
#782=AXIS2_PLACEMENT_3D('',#1153,#893,#894);
#783=AXIS2_PLACEMENT_3D('',#1166,#896,#897);
#784=AXIS2_PLACEMENT_3D('',#1167,#898,#899);
#785=AXIS2_PLACEMENT_3D('',#1168,#900,#901);
#786=AXIS2_PLACEMENT_3D('',#1169,#902,#903);
#787=AXIS2_PLACEMENT_3D('',#1172,#904,#905);
#788=AXIS2_PLACEMENT_3D('',#1186,#908,#909);
#789=AXIS2_PLACEMENT_3D('',#1187,#910,#911);
#790=AXIS2_PLACEMENT_3D('',#1188,#912,#913);
#791=AXIS2_PLACEMENT_3D('',#1189,#914,#915);
#792=AXIS2_PLACEMENT_3D('',#1192,#916,#917);
#793=AXIS2_PLACEMENT_3D('',#1206,#920,#921);
#794=AXIS2_PLACEMENT_3D('',#1207,#922,#923);
#795=AXIS2_PLACEMENT_3D('',#1208,#924,#925);
#796=AXIS2_PLACEMENT_3D('',#1209,#926,#927);
#797=AXIS2_PLACEMENT_3D('',#1212,#928,#929);
#798=AXIS2_PLACEMENT_3D('',#1224,#932,#933);
#799=AXIS2_PLACEMENT_3D('',#1225,#934,#935);
#800=AXIS2_PLACEMENT_3D('',#1226,#936,#937);
#801=AXIS2_PLACEMENT_3D('',#1230,#939,#940);
#802=AXIS2_PLACEMENT_3D('',#1232,#942,#943);
#803=AXIS2_PLACEMENT_3D('',#1236,#946,#947);
#804=AXIS2_PLACEMENT_3D('',#1239,#949,#950);
#805=AXIS2_PLACEMENT_3D('',#1240,#951,#952);
#806=AXIS2_PLACEMENT_3D('',#1244,#955,#956);
#807=AXIS2_PLACEMENT_3D('',#1245,#957,#958);
#808=AXIS2_PLACEMENT_3D('',#1251,#962,#963);
#809=AXIS2_PLACEMENT_3D('',#1254,#965,#966);
#810=AXIS2_PLACEMENT_3D('',#1255,#967,#968);
#811=AXIS2_PLACEMENT_3D('',#1257,#970,#971);
#812=AXIS2_PLACEMENT_3D('',#1258,#972,#973);
#813=AXIS2_PLACEMENT_3D('',#1259,#974,#975);
#814=AXIS2_PLACEMENT_3D('',#1261,#976,#977);
#815=AXIS2_PLACEMENT_3D('',#1263,#978,#979);
#816=AXIS2_PLACEMENT_3D('',#1265,#981,#982);
#817=AXIS2_PLACEMENT_3D('',#1267,#983,#984);
#818=AXIS2_PLACEMENT_3D('',#1268,#985,#986);
#819=AXIS2_PLACEMENT_3D('',#1269,#987,#988);
#820=AXIS2_PLACEMENT_3D('',#1271,#989,#990);
#821=AXIS2_PLACEMENT_3D('',#1273,#992,#993);
#822=AXIS2_PLACEMENT_3D('',#1275,#994,#995);
#823=AXIS2_PLACEMENT_3D('',#1276,#996,#997);
#824=AXIS2_PLACEMENT_3D('',#1277,#998,#999);
#825=AXIS2_PLACEMENT_3D('',#1279,#1000,#1001);
#826=AXIS2_PLACEMENT_3D('',#1281,#1003,#1004);
#827=AXIS2_PLACEMENT_3D('',#1283,#1005,#1006);
#828=AXIS2_PLACEMENT_3D('',#1284,#1007,#1008);
#829=AXIS2_PLACEMENT_3D('',#1285,#1009,#1010);
#830=AXIS2_PLACEMENT_3D('',#1287,#1011,#1012);
#831=AXIS2_PLACEMENT_3D('',#1289,#1014,#1015);
#832=AXIS2_PLACEMENT_3D('',#1290,#1016,#1017);
#833=AXIS2_PLACEMENT_3D('',#1291,#1018,#1019);
#834=AXIS2_PLACEMENT_3D('',#1296,#1021,#1022);
#835=AXIS2_PLACEMENT_3D('',#1300,#1024,#1025);
#836=AXIS2_PLACEMENT_3D('',#1304,#1027,#1028);
#837=AXIS2_PLACEMENT_3D('',#1307,#1030,#1031);
#838=AXIS2_PLACEMENT_3D('',#1308,#1032,#1033);
#839=AXIS2_PLACEMENT_3D('',#1310,#1034,#1035);
#840=AXIS2_PLACEMENT_3D('',#1313,#1037,#1038);
#841=AXIS2_PLACEMENT_3D('',#1314,#1039,#1040);
#842=AXIS2_PLACEMENT_3D('',#1316,#1041,#1042);
#843=AXIS2_PLACEMENT_3D('',#1317,#1043,#1044);
#844=AXIS2_PLACEMENT_3D('',#1318,#1045,#1046);
#845=AXIS2_PLACEMENT_3D('',#1320,#1047,#1048);
#846=AXIS2_PLACEMENT_3D('',#1322,#1050,#1051);
#847=AXIS2_PLACEMENT_3D('',#1324,#1052,#1053);
#848=AXIS2_PLACEMENT_3D('',#1325,#1054,#1055);
#849=AXIS2_PLACEMENT_3D('',#1326,#1056,#1057);
#850=AXIS2_PLACEMENT_3D('',#1328,#1058,#1059);
#851=AXIS2_PLACEMENT_3D('',#1330,#1061,#1062);
#852=AXIS2_PLACEMENT_3D('',#1332,#1063,#1064);
#853=AXIS2_PLACEMENT_3D('',#1333,#1065,#1066);
#854=AXIS2_PLACEMENT_3D('',#1334,#1067,#1068);
#855=AXIS2_PLACEMENT_3D('',#1336,#1069,#1070);
#856=AXIS2_PLACEMENT_3D('',#1338,#1072,#1073);
#857=AXIS2_PLACEMENT_3D('',#1339,#1074,#1075);
#858=AXIS2_PLACEMENT_3D('',#1340,#1076,#1077);
#859=AXIS2_PLACEMENT_3D('',#1344,#1079,#1080);
#860=AXIS2_PLACEMENT_3D('',#1346,#1082,#1083);
#861=AXIS2_PLACEMENT_3D('',#1350,#1086,#1087);
#862=AXIS2_PLACEMENT_3D('',#1353,#1089,#1090);
#863=AXIS2_PLACEMENT_3D('',#1354,#1091,#1092);
#864=AXIS2_PLACEMENT_3D('',#1385,#1095,#1096);
#865=AXIS2_PLACEMENT_3D('',#1387,#1097,#1098);
#866=AXIS2_PLACEMENT_3D('',#1388,#1099,#1100);
#867=AXIS2_PLACEMENT_3D('',#1416,#1101,#1102);
#868=AXIS2_PLACEMENT_3D('',#1417,#1103,#1104);
#869=AXIS2_PLACEMENT_3D('',#1418,#1105,#1106);
#870=AXIS2_PLACEMENT_3D('',#1445,#1107,#1108);
#871=AXIS2_PLACEMENT_3D('',#1446,#1109,#1110);
#872=AXIS2_PLACEMENT_3D('',#1473,#1111,#1112);
#873=AXIS2_PLACEMENT_3D('',#1474,#1113,#1114);
#874=AXIS2_PLACEMENT_3D('',#1475,#1115,#1116);
#875=AXIS2_PLACEMENT_3D('',#1478,#1119,#1120);
#876=AXIS2_PLACEMENT_3D('',#1480,#1122,#1123);
#877=AXIS2_PLACEMENT_3D('',#1482,#1125,#1126);
#878=AXIS2_PLACEMENT_3D('',#1485,#1129,#1130);
#879=AXIS2_PLACEMENT_3D('',#1486,#1131,#1132);
#880=AXIS2_PLACEMENT_3D('',#1489,#1135,#1136);
#881=AXIS2_PLACEMENT_3D('',#1491,#1138,#1139);
#882=AXIS2_PLACEMENT_3D('',#1492,#1140,#1141);
#883=AXIS2_PLACEMENT_3D('',#1493,#1142,#1143);
#884=DIRECTION('axis',(0.,0.,1.));
#885=DIRECTION('refdir',(1.,0.,0.));
#886=DIRECTION('axis',(0.,0.,1.));
#887=DIRECTION('refdir',(1.,0.,0.));
#888=DIRECTION('center_axis',(-1.,0.,0.));
#889=DIRECTION('ref_axis',(0.,0.707106781186548,0.707106781186547));
#890=DIRECTION('center_axis',(-1.,0.,0.));
#891=DIRECTION('ref_axis',(0.,0.,1.));
#892=DIRECTION('',(-1.,0.,0.));
#893=DIRECTION('center_axis',(1.,0.,0.));
#894=DIRECTION('ref_axis',(0.,1.,0.));
#895=DIRECTION('',(1.,0.,0.));
#896=DIRECTION('center_axis',(0.,1.,0.));
#897=DIRECTION('ref_axis',(-1.,0.,0.));
#898=DIRECTION('center_axis',(0.,0.,-1.));
#899=DIRECTION('ref_axis',(-0.707106781186549,0.707106781186546,0.));
#900=DIRECTION('center_axis',(0.,0.,1.));
#901=DIRECTION('ref_axis',(-0.707106781186549,0.707106781186546,0.));
#902=DIRECTION('center_axis',(0.,-1.,0.));
#903=DIRECTION('ref_axis',(-0.707106781186548,0.,0.707106781186547));
#904=DIRECTION('center_axis',(0.,1.,0.));
#905=DIRECTION('ref_axis',(-1.,0.,0.));
#906=DIRECTION('',(0.,1.,0.));
#907=DIRECTION('',(0.,-1.,0.));
#908=DIRECTION('center_axis',(-1.,0.,0.));
#909=DIRECTION('ref_axis',(0.,-1.,0.));
#910=DIRECTION('center_axis',(0.,0.,-1.));
#911=DIRECTION('ref_axis',(-0.707106781186543,-0.707106781186552,0.));
#912=DIRECTION('center_axis',(0.,0.,1.));
#913=DIRECTION('ref_axis',(-0.707106781186543,-0.707106781186552,0.));
#914=DIRECTION('center_axis',(1.,-2.61430952588155E-15,0.));
#915=DIRECTION('ref_axis',(-1.57956987795148E-15,-0.707106781186548,0.707106781186547));
#916=DIRECTION('center_axis',(-1.,2.79231143014374E-15,0.));
#917=DIRECTION('ref_axis',(-2.79231143014374E-15,-1.,0.));
#918=DIRECTION('',(-1.,2.61430952588155E-15,0.));
#919=DIRECTION('',(1.,-2.61430952588155E-15,0.));
#920=DIRECTION('center_axis',(1.787079315292E-14,-1.,0.));
#921=DIRECTION('ref_axis',(1.,1.787079315292E-14,0.));
#922=DIRECTION('center_axis',(0.,0.,-1.));
#923=DIRECTION('ref_axis',(0.707106781186555,-0.70710678118654,0.));
#924=DIRECTION('center_axis',(0.,0.,1.));
#925=DIRECTION('ref_axis',(0.707106781186555,-0.70710678118654,0.));
#926=DIRECTION('center_axis',(5.5444590870733E-15,1.,0.));
#927=DIRECTION('ref_axis',(0.707106781186548,-6.31827951180593E-15,0.707106781186547));
#928=DIRECTION('center_axis',(-4.46769828823001E-15,-1.,0.));
#929=DIRECTION('ref_axis',(1.,-4.46769828823001E-15,0.));
#930=DIRECTION('',(-5.5444590870733E-15,-1.,0.));
#931=DIRECTION('',(5.5444590870733E-15,1.,0.));
#932=DIRECTION('center_axis',(0.,0.,-1.));
#933=DIRECTION('ref_axis',(0.70710678118655,0.707106781186545,0.));
#934=DIRECTION('center_axis',(0.,0.,1.));
#935=DIRECTION('ref_axis',(0.70710678118655,0.707106781186545,0.));
#936=DIRECTION('center_axis',(0.,0.,1.));
#937=DIRECTION('ref_axis',(-1.,-4.44089209850064E-15,0.));
#938=DIRECTION('',(0.,0.,-1.));
#939=DIRECTION('center_axis',(0.,0.,-1.));
#940=DIRECTION('ref_axis',(-0.707106781186546,-0.707106781186549,0.));
#941=DIRECTION('',(0.,0.,1.));
#942=DIRECTION('center_axis',(-1.,0.,0.));
#943=DIRECTION('ref_axis',(0.,-1.,0.));
#944=DIRECTION('',(0.,0.,1.));
#945=DIRECTION('',(0.,1.,0.));
#946=DIRECTION('center_axis',(0.,0.,1.));
#947=DIRECTION('ref_axis',(0.,1.,0.));
#948=DIRECTION('',(0.,0.,1.));
#949=DIRECTION('center_axis',(0.,0.,-1.));
#950=DIRECTION('ref_axis',(-0.707106781186548,0.707106781186548,0.));
#951=DIRECTION('center_axis',(0.,1.,0.));
#952=DIRECTION('ref_axis',(-1.,0.,0.));
#953=DIRECTION('',(0.,0.,1.));
#954=DIRECTION('',(1.,0.,0.));
#955=DIRECTION('center_axis',(0.,0.,-1.));
#956=DIRECTION('ref_axis',(-1.,0.,0.));
#957=DIRECTION('center_axis',(1.,-5.5444590870733E-15,0.));
#958=DIRECTION('ref_axis',(5.5444590870733E-15,1.,0.));
#959=DIRECTION('',(0.,0.,1.));
#960=DIRECTION('',(-5.5444590870733E-15,-1.,0.));
#961=DIRECTION('',(0.,0.,1.));
#962=DIRECTION('center_axis',(0.,0.,1.));
#963=DIRECTION('ref_axis',(0.,-1.,0.));
#964=DIRECTION('',(0.,0.,1.));
#965=DIRECTION('center_axis',(0.,0.,-1.));
#966=DIRECTION('ref_axis',(0.707106781186552,-0.707106781186543,0.));
#967=DIRECTION('center_axis',(-2.61430952588155E-15,-1.,0.));
#968=DIRECTION('ref_axis',(1.,-2.61430952588155E-15,0.));
#969=DIRECTION('',(-1.,2.61430952588155E-15,0.));
#970=DIRECTION('center_axis',(0.,0.,1.));
#971=DIRECTION('ref_axis',(1.,-4.44089209850056E-15,0.));
#972=DIRECTION('center_axis',(0.,0.,-1.));
#973=DIRECTION('ref_axis',(0.707106781186549,0.707106781186546,0.));
#974=DIRECTION('center_axis',(0.,1.,0.));
#975=DIRECTION('ref_axis',(-0.707106781186548,0.,-0.707106781186548));
#976=DIRECTION('center_axis',(0.,1.,0.));
#977=DIRECTION('ref_axis',(0.,0.,-1.));
#978=DIRECTION('center_axis',(0.,-1.,0.));
#979=DIRECTION('ref_axis',(-1.,0.,0.));
#980=DIRECTION('',(0.,-1.,0.));
#981=DIRECTION('center_axis',(0.,0.,-1.));
#982=DIRECTION('ref_axis',(-1.,0.,0.));
#983=DIRECTION('center_axis',(-1.,0.,0.));
#984=DIRECTION('ref_axis',(0.,1.,0.));
#985=DIRECTION('center_axis',(0.,0.,1.));
#986=DIRECTION('ref_axis',(-0.707106781186547,0.707106781186547,0.));
#987=DIRECTION('center_axis',(1.,0.,0.));
#988=DIRECTION('ref_axis',(0.,0.707106781186547,-0.707106781186548));
#989=DIRECTION('center_axis',(-1.,0.,0.));
#990=DIRECTION('ref_axis',(0.,1.,0.));
#991=DIRECTION('',(-1.,0.,0.));
#992=DIRECTION('center_axis',(0.,0.,-1.));
#993=DIRECTION('ref_axis',(-1.,0.,0.));
#994=DIRECTION('center_axis',(4.16333634234434E-15,1.,0.));
#995=DIRECTION('ref_axis',(1.,-4.16333634234434E-15,0.));
#996=DIRECTION('center_axis',(0.,0.,1.));
#997=DIRECTION('ref_axis',(0.707106781186549,0.707106781186546,0.));
#998=DIRECTION('center_axis',(-5.5444590870733E-15,-1.,0.));
#999=DIRECTION('ref_axis',(0.707106781186548,-3.14018491736755E-15,-0.707106781186547));
#1000=DIRECTION('center_axis',(4.44089209850062E-15,1.,0.));
#1001=DIRECTION('ref_axis',(1.,-4.44089209850062E-15,0.));
#1002=DIRECTION('',(5.5444590870733E-15,1.,0.));
#1003=DIRECTION('center_axis',(0.,0.,-1.));
#1004=DIRECTION('ref_axis',(-1.,0.,0.));
#1005=DIRECTION('center_axis',(1.,0.,0.));
#1006=DIRECTION('ref_axis',(0.,-1.,0.));
#1007=DIRECTION('center_axis',(0.,0.,1.));
#1008=DIRECTION('ref_axis',(0.707106781186552,-0.707106781186543,0.));
#1009=DIRECTION('center_axis',(-1.,2.61430952588155E-15,0.));
#1010=DIRECTION('ref_axis',(-1.96261557335472E-15,-0.707106781186548,-0.707106781186547));
#1011=DIRECTION('center_axis',(1.,-2.49800180540664E-15,0.));
#1012=DIRECTION('ref_axis',(-2.49800180540664E-15,-1.,0.));
#1013=DIRECTION('',(1.,-2.61430952588155E-15,0.));
#1014=DIRECTION('center_axis',(0.,0.,-1.));
#1015=DIRECTION('ref_axis',(-1.,0.,0.));
#1016=DIRECTION('center_axis',(0.,0.,1.));
#1017=DIRECTION('ref_axis',(-0.707106781186546,-0.707106781186549,0.));
#1018=DIRECTION('center_axis',(0.,0.,1.));
#1019=DIRECTION('ref_axis',(-1.,0.,0.));
#1020=DIRECTION('',(-1.,-3.2611127205505E-15,0.));
#1021=DIRECTION('center_axis',(0.,0.,-1.));
#1022=DIRECTION('ref_axis',(0.707106781186539,-0.707106781186556,0.));
#1023=DIRECTION('',(6.50659510180813E-15,-1.,0.));
#1024=DIRECTION('center_axis',(0.,0.,-1.));
#1025=DIRECTION('ref_axis',(0.707106781186548,0.707106781186547,0.));
#1026=DIRECTION('',(1.,0.,0.));
#1027=DIRECTION('center_axis',(0.,0.,-1.));
#1028=DIRECTION('ref_axis',(-0.707106781186548,0.707106781186547,0.));
#1029=DIRECTION('',(-1.30131902036162E-14,1.,0.));
#1030=DIRECTION('center_axis',(0.,0.,-1.));
#1031=DIRECTION('ref_axis',(-0.707106781186563,-0.707106781186532,0.));
#1032=DIRECTION('center_axis',(1.,3.2611127205505E-15,0.));
#1033=DIRECTION('ref_axis',(-2.35513868802566E-15,0.707106781186548,-0.707106781186547));
#1034=DIRECTION('center_axis',(1.,3.33066907387517E-15,0.));
#1035=DIRECTION('ref_axis',(0.,0.,-1.));
#1036=DIRECTION('',(1.,3.2611127205505E-15,0.));
#1037=DIRECTION('center_axis',(-1.,-4.44089209850062E-15,0.));
#1038=DIRECTION('ref_axis',(-4.44089209850062E-15,1.,0.));
#1039=DIRECTION('center_axis',(0.,0.,1.));
#1040=DIRECTION('ref_axis',(1.,0.,0.));
#1041=DIRECTION('center_axis',(6.66133814775095E-14,-1.,0.));
#1042=DIRECTION('ref_axis',(-1.,-6.66133814775095E-14,0.));
#1043=DIRECTION('center_axis',(0.,0.,1.));
#1044=DIRECTION('ref_axis',(0.707106781186539,-0.707106781186556,0.));
#1045=DIRECTION('center_axis',(-6.50659510180813E-15,1.,0.));
#1046=DIRECTION('ref_axis',(-0.707106781186548,-4.71027737605132E-15,-0.707106781186547));
#1047=DIRECTION('center_axis',(6.66133814775093E-15,-1.,0.));
#1048=DIRECTION('ref_axis',(-1.,-6.66133814775093E-15,0.));
#1049=DIRECTION('',(-6.50659510180813E-15,1.,0.));
#1050=DIRECTION('center_axis',(0.,0.,1.));
#1051=DIRECTION('ref_axis',(1.,0.,0.));
#1052=DIRECTION('center_axis',(1.,0.,0.));
#1053=DIRECTION('ref_axis',(0.,-1.,0.));
#1054=DIRECTION('center_axis',(0.,0.,1.));
#1055=DIRECTION('ref_axis',(0.707106781186548,0.707106781186547,0.));
#1056=DIRECTION('center_axis',(-1.,0.,0.));
#1057=DIRECTION('ref_axis',(0.,-0.707106781186548,-0.707106781186548));
#1058=DIRECTION('center_axis',(1.,0.,0.));
#1059=DIRECTION('ref_axis',(0.,-1.,0.));
#1060=DIRECTION('',(-1.,0.,0.));
#1061=DIRECTION('center_axis',(0.,0.,1.));
#1062=DIRECTION('ref_axis',(1.,0.,0.));
#1063=DIRECTION('center_axis',(0.,1.,0.));
#1064=DIRECTION('ref_axis',(1.,0.,0.));
#1065=DIRECTION('center_axis',(0.,0.,1.));
#1066=DIRECTION('ref_axis',(-0.707106781186548,0.707106781186547,0.));
#1067=DIRECTION('center_axis',(1.30131902036162E-14,-1.,0.));
#1068=DIRECTION('ref_axis',(0.707106781186548,9.42055475210265E-15,-0.707106781186547));
#1069=DIRECTION('center_axis',(-1.33226762955019E-14,1.,0.));
#1070=DIRECTION('ref_axis',(1.,1.33226762955019E-14,0.));
#1071=DIRECTION('',(1.30131902036162E-14,-1.,0.));
#1072=DIRECTION('center_axis',(0.,0.,1.));
#1073=DIRECTION('ref_axis',(1.,0.,0.));
#1074=DIRECTION('center_axis',(0.,0.,1.));
#1075=DIRECTION('ref_axis',(-0.707106781186563,-0.707106781186532,0.));
#1076=DIRECTION('center_axis',(0.,0.,-1.));
#1077=DIRECTION('ref_axis',(1.,0.,0.));
#1078=DIRECTION('',(0.,0.,-1.));
#1079=DIRECTION('center_axis',(0.,0.,-1.));
#1080=DIRECTION('ref_axis',(0.,1.,0.));
#1081=DIRECTION('',(0.,0.,-1.));
#1082=DIRECTION('center_axis',(-1.,-6.50659510180813E-15,0.));
#1083=DIRECTION('ref_axis',(-6.50659510180813E-15,1.,0.));
#1084=DIRECTION('',(0.,0.,-1.));
#1085=DIRECTION('',(6.50659510180813E-15,-1.,0.));
#1086=DIRECTION('center_axis',(0.,0.,-1.));
#1087=DIRECTION('ref_axis',(-8.88178419700223E-14,-1.,0.));
#1088=DIRECTION('',(0.,0.,-1.));
#1089=DIRECTION('center_axis',(0.,0.,-1.));
#1090=DIRECTION('ref_axis',(1.,6.93889390390797E-15,0.));
#1091=DIRECTION('center_axis',(-3.2611127205505E-15,1.,0.));
#1092=DIRECTION('ref_axis',(1.,3.2611127205505E-15,0.));
#1093=DIRECTION('',(0.,0.,-1.));
#1094=DIRECTION('',(-1.,-3.2611127205505E-15,0.));
#1095=DIRECTION('center_axis',(0.98058067569092,0.196116135138186,-8.16497432740917E-16));
#1096=DIRECTION('ref_axis',(-0.196116135138186,0.98058067569092,0.));
#1097=DIRECTION('center_axis',(-0.196116135138173,-0.980580675690922,-1.36082905456819E-16));
#1098=DIRECTION('ref_axis',(-0.980580675690922,0.196116135138173,0.));
#1099=DIRECTION('center_axis',(0.,0.,-1.));
#1100=DIRECTION('ref_axis',(-1.,-1.3010426069826E-14,0.));
#1101=DIRECTION('center_axis',(-0.196116135138279,0.980580675690901,1.36082905456885E-16));
#1102=DIRECTION('ref_axis',(-0.980580675690901,-0.196116135138279,0.));
#1103=DIRECTION('center_axis',(0.980580675690905,-0.196116135138261,-2.17732648730996E-16));
#1104=DIRECTION('ref_axis',(-0.196116135138261,-0.980580675690905,0.));
#1105=DIRECTION('center_axis',(0.,0.,-1.));
#1106=DIRECTION('ref_axis',(3.1225022567586E-15,-1.,0.));
#1107=DIRECTION('center_axis',(-0.980580675690903,-0.196116135138268,-3.26598973096409E-15));
#1108=DIRECTION('ref_axis',(0.196116135138268,-0.980580675690903,0.));
#1109=DIRECTION('center_axis',(0.19611613513826,0.980580675690905,4.35465297461991E-16));
#1110=DIRECTION('ref_axis',(0.980580675690905,-0.19611613513826,0.));
#1111=DIRECTION('center_axis',(0.196116135138272,-0.980580675690903,-9.79796919289284E-16));
#1112=DIRECTION('ref_axis',(0.980580675690902,0.196116135138272,0.));
#1113=DIRECTION('center_axis',(-0.980580675690903,0.196116135138268,0.));
#1114=DIRECTION('ref_axis',(0.196116135138268,0.980580675690903,0.));
#1115=DIRECTION('center_axis',(1.,0.,0.));
#1116=DIRECTION('ref_axis',(0.,0.707106781186547,0.707106781186548));
#1117=DIRECTION('',(1.,0.,0.));
#1118=DIRECTION('',(-1.,0.,0.));
#1119=DIRECTION('center_axis',(6.50659510180813E-15,-1.,0.));
#1120=DIRECTION('ref_axis',(0.707106781186548,4.71027737605132E-15,0.707106781186548));
#1121=DIRECTION('',(-6.50659510180813E-15,1.,0.));
#1122=DIRECTION('center_axis',(-1.,-3.2611127205505E-15,0.));
#1123=DIRECTION('ref_axis',(2.35513868802566E-15,-0.707106781186548,0.707106781186548));
#1124=DIRECTION('',(1.,3.2611127205505E-15,0.));
#1125=DIRECTION('center_axis',(-1.30131902036162E-14,1.,0.));
#1126=DIRECTION('ref_axis',(-0.707106781186547,-9.0280316374317E-15,0.707106781186548));
#1127=DIRECTION('',(1.30131902036162E-14,-1.,0.));
#1128=DIRECTION('',(-1.30131902036162E-14,1.,0.));
#1129=DIRECTION('center_axis',(0.,0.,1.));
#1130=DIRECTION('ref_axis',(-1.,0.,0.));
#1131=DIRECTION('center_axis',(1.,1.30131902036162E-14,0.));
#1132=DIRECTION('ref_axis',(1.30131902036162E-14,-1.,0.));
#1133=DIRECTION('',(0.,0.,-1.));
#1134=DIRECTION('',(0.,0.,-1.));
#1135=DIRECTION('center_axis',(0.,0.,-1.));
#1136=DIRECTION('ref_axis',(0.,1.,0.));
#1137=DIRECTION('',(0.,0.,-1.));
#1138=DIRECTION('center_axis',(0.,-1.,0.));
#1139=DIRECTION('ref_axis',(-1.,0.,0.));
#1140=DIRECTION('center_axis',(0.,0.,-1.));
#1141=DIRECTION('ref_axis',(-1.,-4.44089209850112E-14,0.));
#1142=DIRECTION('',(0.,0.,1.));
#1143=DIRECTION('',(1.,0.,0.));
#1144=CARTESIAN_POINT('',(0.,0.,0.));
#1145=CARTESIAN_POINT('',(0.,0.,0.));
#1146=CARTESIAN_POINT('Origin',(8.19052778707745,78.4601432245199,13.3647075261242));
#1147=CARTESIAN_POINT('',(9.87749647486687,78.4601432245199,15.3527075261242));
#1148=CARTESIAN_POINT('',(9.87749647486687,80.44814322452,13.3647075261242));
#1149=CARTESIAN_POINT('Origin',(9.87749647486687,78.4601432245199,13.3647075261242));
#1150=CARTESIAN_POINT('',(3.08275078077674,80.44814322452,13.3647075261242));
#1151=CARTESIAN_POINT('',(8.19052778707745,80.44814322452,13.3647075261242));
#1152=CARTESIAN_POINT('',(3.08275078077674,78.4601432245199,15.3527075261242));
#1153=CARTESIAN_POINT('Origin',(3.08275078077674,78.4601432245199,13.3647075261242));
#1154=CARTESIAN_POINT('',(8.19052778707745,78.4601432245199,15.3527075261242));
#1155=CARTESIAN_POINT('Ctrl Pts',(3.08275078077674,80.44814322452,13.3647075261242));
#1156=CARTESIAN_POINT('Ctrl Pts',(1.08275078077671,80.44814322452,13.3647075261242));
#1157=CARTESIAN_POINT('Ctrl Pts',(1.08275078077674,78.4481432245199,13.3647075261242));
#1158=CARTESIAN_POINT('Ctrl Pts',(3.08275078077674,80.44814322452,15.3527075261242));
#1159=CARTESIAN_POINT('Ctrl Pts',(1.08275078077671,80.44814322452,15.3527075261242));
#1160=CARTESIAN_POINT('Ctrl Pts',(1.08275078077674,78.4481432245199,15.3527075261242));
#1161=CARTESIAN_POINT('Ctrl Pts',(3.08275078077674,78.4601432245199,15.3527075261242));
#1162=CARTESIAN_POINT('Ctrl Pts',(3.07075078077674,78.4601432245199,15.3527075261242));
#1163=CARTESIAN_POINT('Ctrl Pts',(3.07075078077674,78.4481432245199,15.3527075261242));
#1164=CARTESIAN_POINT('',(1.08275078077675,78.4481432245199,13.3647075261242));
#1165=CARTESIAN_POINT('',(3.07075078077674,78.4481432245199,15.3527075261242));
#1166=CARTESIAN_POINT('Origin',(3.07075078077674,78.4481432245199,13.3647075261242));
#1167=CARTESIAN_POINT('Origin',(3.08275078077674,78.4481432245199,15.3527075261242));
#1168=CARTESIAN_POINT('Origin',(3.08275078077674,78.4481432245199,13.3647075261242));
#1169=CARTESIAN_POINT('Origin',(3.07075078077675,73.9254026129121,13.3647075261242));
#1170=CARTESIAN_POINT('',(1.08275078077675,72.0404601250386,13.3647075261242));
#1171=CARTESIAN_POINT('',(3.07075078077675,72.0404601250386,15.3527075261242));
#1172=CARTESIAN_POINT('Origin',(3.07075078077675,72.0404601250386,13.3647075261242));
#1173=CARTESIAN_POINT('',(3.07075078077675,73.9254026129121,15.3527075261242));
#1174=CARTESIAN_POINT('',(1.08275078077675,73.9254026129121,13.3647075261242));
#1175=CARTESIAN_POINT('Ctrl Pts',(1.08275078077675,72.0404601250999,13.3647075261242));
#1176=CARTESIAN_POINT('Ctrl Pts',(1.08275078071548,70.0404601250386,13.3647075261242));
#1177=CARTESIAN_POINT('Ctrl Pts',(3.08275078077674,70.0404601250387,13.3647075261242));
#1178=CARTESIAN_POINT('Ctrl Pts',(1.08275078077675,72.0404601250999,15.3527075261242));
#1179=CARTESIAN_POINT('Ctrl Pts',(1.08275078071548,70.0404601250386,15.3527075261242));
#1180=CARTESIAN_POINT('Ctrl Pts',(3.08275078077674,70.0404601250387,15.3527075261242));
#1181=CARTESIAN_POINT('Ctrl Pts',(3.07075078077675,72.040460125039,15.3527075261242));
#1182=CARTESIAN_POINT('Ctrl Pts',(3.07075078077638,72.0284601250387,15.3527075261242));
#1183=CARTESIAN_POINT('Ctrl Pts',(3.08275078077674,72.0284601250387,15.3527075261242));
#1184=CARTESIAN_POINT('',(3.08275078077674,70.0404601250387,13.3647075261242));
#1185=CARTESIAN_POINT('',(3.08275078077674,72.0284601250387,15.3527075261242));
#1186=CARTESIAN_POINT('Origin',(3.08275078077674,72.0284601250387,13.3647075261242));
#1187=CARTESIAN_POINT('Origin',(3.08275078077674,72.0404601250387,15.3527075261242));
#1188=CARTESIAN_POINT('Origin',(3.08275078077674,72.0404601250387,13.3647075261242));
#1189=CARTESIAN_POINT('Origin',(4.79315494003239,72.0284601250387,13.3647075261242));
#1190=CARTESIAN_POINT('',(9.87749647486687,70.0404601250386,13.3647075261242));
#1191=CARTESIAN_POINT('',(9.87749647486688,72.0284601250386,15.3527075261242));
#1192=CARTESIAN_POINT('Origin',(9.87749647486688,72.0284601250386,13.3647075261242));
#1193=CARTESIAN_POINT('',(4.79315494003239,72.0284601250387,15.3527075261242));
#1194=CARTESIAN_POINT('',(4.79315494003238,70.0404601250386,13.3647075261242));
#1195=CARTESIAN_POINT('Ctrl Pts',(9.87749647486687,70.0404601250386,13.3647075261242));
#1196=CARTESIAN_POINT('Ctrl Pts',(11.8774964748769,70.0404601250286,13.3647075261242));
#1197=CARTESIAN_POINT('Ctrl Pts',(11.8774964748669,72.0404601250386,13.3647075261242));
#1198=CARTESIAN_POINT('Ctrl Pts',(9.87749647486687,70.0404601250386,15.3527075261242));
#1199=CARTESIAN_POINT('Ctrl Pts',(11.8774964748769,70.0404601250286,15.3527075261242));
#1200=CARTESIAN_POINT('Ctrl Pts',(11.8774964748669,72.0404601250386,15.3527075261242));
#1201=CARTESIAN_POINT('Ctrl Pts',(9.87749647486687,72.0284601250386,15.3527075261242));
#1202=CARTESIAN_POINT('Ctrl Pts',(9.88949647486691,72.0284601250386,15.3527075261242));
#1203=CARTESIAN_POINT('Ctrl Pts',(9.88949647486685,72.0404601250386,15.3527075261242));
#1204=CARTESIAN_POINT('',(11.8774964748669,72.0404601250387,13.3647075261242));
#1205=CARTESIAN_POINT('',(9.88949647486687,72.0404601250386,15.3527075261242));
#1206=CARTESIAN_POINT('Origin',(9.88949647486687,72.0404601250386,13.3647075261242));
#1207=CARTESIAN_POINT('Origin',(9.87749647486687,72.0404601250386,15.3527075261242));
#1208=CARTESIAN_POINT('Origin',(9.87749647486687,72.0404601250386,13.3647075261242));
#1209=CARTESIAN_POINT('Origin',(9.88949647486686,70.7215610631714,13.3647075261242));
#1210=CARTESIAN_POINT('',(11.8774964748669,78.4481432245199,13.3647075261242));
#1211=CARTESIAN_POINT('',(9.8894964748669,78.4481432245199,15.3527075261242));
#1212=CARTESIAN_POINT('Origin',(9.8894964748669,78.4481432245199,13.3647075261242));
#1213=CARTESIAN_POINT('',(9.88949647486686,70.7215610631714,15.3527075261242));
#1214=CARTESIAN_POINT('',(11.8774964748669,70.7215610631714,13.3647075261242));
#1215=CARTESIAN_POINT('Ctrl Pts',(11.8774964748669,78.4481432245199,13.3647075261242));
#1216=CARTESIAN_POINT('Ctrl Pts',(11.877496474867,80.4481432245201,13.3647075261242));
#1217=CARTESIAN_POINT('Ctrl Pts',(9.87749647486687,80.44814322452,13.3647075261242));
#1218=CARTESIAN_POINT('Ctrl Pts',(11.8774964748669,78.4481432245199,15.3527075261242));
#1219=CARTESIAN_POINT('Ctrl Pts',(11.877496474867,80.4481432245201,15.3527075261242));
#1220=CARTESIAN_POINT('Ctrl Pts',(9.87749647486687,80.44814322452,15.3527075261242));
#1221=CARTESIAN_POINT('Ctrl Pts',(9.88949647486687,78.4481432245199,15.3527075261242));
#1222=CARTESIAN_POINT('Ctrl Pts',(9.88949647486687,78.4601432245199,15.3527075261242));
#1223=CARTESIAN_POINT('Ctrl Pts',(9.87749647486687,78.4601432245199,15.3527075261242));
#1224=CARTESIAN_POINT('Origin',(9.87749647486687,78.4481432245199,15.3527075261242));
#1225=CARTESIAN_POINT('Origin',(9.87749647486687,78.4481432245199,13.3647075261242));
#1226=CARTESIAN_POINT('Origin',(3.08275078077674,72.0404601250387,4.30170752612416));
#1227=CARTESIAN_POINT('',(1.08275078077675,72.0404601250386,2.60170752612415));
#1228=CARTESIAN_POINT('',(1.08275078077675,72.0404601250386,4.30170752612416));
#1229=CARTESIAN_POINT('',(3.08275078077674,70.0404601250387,2.60170752612415));
#1230=CARTESIAN_POINT('Origin',(3.08275078077674,72.0404601250387,2.60170752612415));
#1231=CARTESIAN_POINT('',(3.08275078077674,70.0404601250387,7.15270752612416));
#1232=CARTESIAN_POINT('Origin',(1.08275078077675,78.4481432245199,4.30170752612416));
#1233=CARTESIAN_POINT('',(1.08275078077675,78.4481432245199,2.60170752612415));
#1234=CARTESIAN_POINT('',(1.08275078077675,78.4481432245199,4.30170752612416));
#1235=CARTESIAN_POINT('',(1.08275078077675,76.8462224496496,2.60170752612415));
#1236=CARTESIAN_POINT('Origin',(3.08275078077674,78.4481432245199,4.30170752612416));
#1237=CARTESIAN_POINT('',(3.08275078077674,80.44814322452,2.60170752612415));
#1238=CARTESIAN_POINT('',(3.08275078077674,80.44814322452,4.30170752612416));
#1239=CARTESIAN_POINT('Origin',(3.08275078077674,78.4481432245199,2.60170752612415));
#1240=CARTESIAN_POINT('Origin',(9.87749647486687,80.44814322452,4.30170752612416));
#1241=CARTESIAN_POINT('',(9.87749647486687,80.44814322452,2.60170752612415));
#1242=CARTESIAN_POINT('',(9.87749647486687,80.44814322452,4.30170752612416));
#1243=CARTESIAN_POINT('',(8.17881005134435,80.44814322452,2.60170752612415));
#1244=CARTESIAN_POINT('Origin',(6.50355909928802,69.4026620013042,15.3527075261242));
#1245=CARTESIAN_POINT('Origin',(11.8774964748669,72.0404601250387,4.30170752612416));
#1246=CARTESIAN_POINT('',(11.8774964748669,72.0404601250387,2.60170752612415));
#1247=CARTESIAN_POINT('',(11.8774964748669,72.0404601250387,7.15270752612416));
#1248=CARTESIAN_POINT('',(11.8774964748669,78.4481432245199,2.60170752612415));
#1249=CARTESIAN_POINT('',(11.8774964748669,73.642380899909,2.60170752612415));
#1250=CARTESIAN_POINT('',(11.8774964748669,78.4481432245199,4.30170752612416));
#1251=CARTESIAN_POINT('Origin',(9.87749647486687,72.0404601250386,4.30170752612416));
#1252=CARTESIAN_POINT('',(9.87749647486687,70.0404601250386,2.60170752612415));
#1253=CARTESIAN_POINT('',(9.87749647486687,70.0404601250386,7.15270752612416));
#1254=CARTESIAN_POINT('Origin',(9.87749647486687,72.0404601250386,2.60170752612415));
#1255=CARTESIAN_POINT('Origin',(3.08275078077674,70.0404601250386,4.30170752612416));
#1256=CARTESIAN_POINT('',(4.78143720429928,70.0404601250386,2.60170752612415));
#1257=CARTESIAN_POINT('Origin',(9.87749647486687,78.4481432245199,4.30170752612416));
#1258=CARTESIAN_POINT('Origin',(9.87749647486687,78.4481432245199,2.60170752612415));
#1259=CARTESIAN_POINT('Origin',(1.58275078077675,76.8462224496496,2.60170752612415));
#1260=CARTESIAN_POINT('',(1.58275078077675,72.0404601250386,2.10170752612416));
#1261=CARTESIAN_POINT('Origin',(1.58275078077675,72.0404601250386,2.60170752612415));
#1262=CARTESIAN_POINT('',(1.58275078077675,78.4481432245199,2.10170752612416));
#1263=CARTESIAN_POINT('Origin',(1.58275078077675,78.4481432245199,2.60170752612415));
#1264=CARTESIAN_POINT('',(1.58275078077675,76.8462224496496,2.10170752612416));
#1265=CARTESIAN_POINT('Origin',(3.08275078077674,78.4481432245199,2.60170752612415));
#1266=CARTESIAN_POINT('',(3.08275078077674,79.9481432245199,2.10170752612416));
#1267=CARTESIAN_POINT('Origin',(3.08275078077674,79.9481432245199,2.60170752612415));
#1268=CARTESIAN_POINT('Origin',(3.08275078077674,78.4481432245199,2.10170752612416));
#1269=CARTESIAN_POINT('Origin',(8.17881005134435,79.9481432245199,2.60170752612415));
#1270=CARTESIAN_POINT('',(9.87749647486687,79.9481432245199,2.10170752612416));
#1271=CARTESIAN_POINT('Origin',(9.87749647486687,79.9481432245199,2.60170752612415));
#1272=CARTESIAN_POINT('',(8.17881005134435,79.9481432245199,2.10170752612416));
#1273=CARTESIAN_POINT('Origin',(9.87749647486687,78.4481432245199,2.60170752612415));
#1274=CARTESIAN_POINT('',(11.3774964748669,78.4481432245199,2.10170752612416));
#1275=CARTESIAN_POINT('Origin',(11.3774964748669,78.4481432245199,2.60170752612415));
#1276=CARTESIAN_POINT('Origin',(9.87749647486687,78.4481432245199,2.10170752612416));
#1277=CARTESIAN_POINT('Origin',(11.3774964748669,73.642380899909,2.60170752612415));
#1278=CARTESIAN_POINT('',(11.3774964748669,72.0404601250387,2.10170752612416));
#1279=CARTESIAN_POINT('Origin',(11.3774964748669,72.0404601250387,2.60170752612415));
#1280=CARTESIAN_POINT('',(11.3774964748669,73.642380899909,2.10170752612416));
#1281=CARTESIAN_POINT('Origin',(9.87749647486687,72.0404601250386,2.60170752612415));
#1282=CARTESIAN_POINT('',(9.87749647486687,70.5404601250386,2.10170752612416));
#1283=CARTESIAN_POINT('Origin',(9.87749647486687,70.5404601250386,2.60170752612415));
#1284=CARTESIAN_POINT('Origin',(9.87749647486687,72.0404601250386,2.10170752612416));
#1285=CARTESIAN_POINT('Origin',(4.78143720429928,70.5404601250386,2.60170752612415));
#1286=CARTESIAN_POINT('',(3.08275078077674,70.5404601250386,2.10170752612416));
#1287=CARTESIAN_POINT('Origin',(3.08275078077674,70.5404601250386,2.60170752612415));
#1288=CARTESIAN_POINT('',(4.78143720429928,70.5404601250386,2.10170752612416));
#1289=CARTESIAN_POINT('Origin',(3.08275078077674,72.0404601250387,2.60170752612415));
#1290=CARTESIAN_POINT('Origin',(3.08275078077674,72.0404601250387,2.10170752612416));
#1291=CARTESIAN_POINT('Origin',(6.48012362782183,75.2443016747793,2.10170752612416));
#1292=CARTESIAN_POINT('',(9.42035700193163,71.5976986389396,2.10170752612416));
#1293=CARTESIAN_POINT('',(3.97326887091971,71.5976986389396,2.10170752612416));
#1294=CARTESIAN_POINT('',(5.22669624937079,71.5976986389396,2.10170752612416));
#1295=CARTESIAN_POINT('',(10.3203570019316,72.4976986389397,2.10170752612416));
#1296=CARTESIAN_POINT('Origin',(9.42035700193166,72.4976986389396,2.10170752612416));
#1297=CARTESIAN_POINT('',(10.3203570019316,77.9578719295955,2.10170752612416));
#1298=CARTESIAN_POINT('',(10.3203570019316,73.8710001568595,2.10170752612416));
#1299=CARTESIAN_POINT('',(9.42035700193163,78.8578719295954,2.10170752612416));
#1300=CARTESIAN_POINT('Origin',(9.42035700193163,77.9578719295955,2.10170752612416));
#1301=CARTESIAN_POINT('',(3.97326887091975,78.8578719295955,2.10170752612416));
#1302=CARTESIAN_POINT('',(7.95024031487673,78.8578719295955,2.10170752612416));
#1303=CARTESIAN_POINT('',(3.07326887091975,77.9578719295955,2.10170752612416));
#1304=CARTESIAN_POINT('Origin',(3.97326887091975,77.9578719295955,2.10170752612416));
#1305=CARTESIAN_POINT('',(3.07326887091979,72.4976986389396,2.10170752612416));
#1306=CARTESIAN_POINT('',(3.07326887091974,76.6010868021874,2.10170752612416));
#1307=CARTESIAN_POINT('Origin',(3.97326887091975,72.4976986389396,2.10170752612416));
#1308=CARTESIAN_POINT('Origin',(5.22669624937079,71.5976986389396,2.60170752612415));
#1309=CARTESIAN_POINT('',(3.97326887091971,72.0976986389397,2.60170752612415));
#1310=CARTESIAN_POINT('Origin',(3.97326887091971,71.5976986389396,2.60170752612415));
#1311=CARTESIAN_POINT('',(9.42035700193163,72.0976986389396,2.60170752612415));
#1312=CARTESIAN_POINT('',(5.22669624937079,72.0976986389396,2.60170752612415));
#1313=CARTESIAN_POINT('Origin',(9.42035700193163,71.5976986389396,2.60170752612415));
#1314=CARTESIAN_POINT('Origin',(9.42035700193166,72.4976986389396,2.60170752612415));
#1315=CARTESIAN_POINT('',(9.82035700193162,72.4976986389396,2.60170752612415));
#1316=CARTESIAN_POINT('Origin',(10.3203570019316,72.4976986389397,2.60170752612415));
#1317=CARTESIAN_POINT('Origin',(9.42035700193166,72.4976986389396,2.60170752612415));
#1318=CARTESIAN_POINT('Origin',(10.3203570019316,73.8710001568595,2.60170752612415));
#1319=CARTESIAN_POINT('',(9.82035700193158,77.9578719295955,2.60170752612415));
#1320=CARTESIAN_POINT('Origin',(10.3203570019316,77.9578719295955,2.60170752612415));
#1321=CARTESIAN_POINT('',(9.82035700193161,73.8710001568595,2.60170752612415));
#1322=CARTESIAN_POINT('Origin',(9.42035700193163,77.9578719295955,2.60170752612415));
#1323=CARTESIAN_POINT('',(9.42035700193163,78.3578719295954,2.60170752612415));
#1324=CARTESIAN_POINT('Origin',(9.42035700193163,78.8578719295954,2.60170752612415));
#1325=CARTESIAN_POINT('Origin',(9.42035700193163,77.9578719295955,2.60170752612415));
#1326=CARTESIAN_POINT('Origin',(7.95024031487673,78.8578719295955,2.60170752612415));
#1327=CARTESIAN_POINT('',(3.97326887091975,78.3578719295955,2.60170752612415));
#1328=CARTESIAN_POINT('Origin',(3.97326887091975,78.8578719295955,2.60170752612415));
#1329=CARTESIAN_POINT('',(7.95024031487673,78.3578719295955,2.60170752612415));
#1330=CARTESIAN_POINT('Origin',(3.97326887091975,77.9578719295955,2.60170752612415));
#1331=CARTESIAN_POINT('',(3.57326887091975,77.9578719295955,2.60170752612415));
#1332=CARTESIAN_POINT('Origin',(3.07326887091975,77.9578719295955,2.60170752612415));
#1333=CARTESIAN_POINT('Origin',(3.97326887091975,77.9578719295955,2.60170752612415));
#1334=CARTESIAN_POINT('Origin',(3.07326887091974,76.6010868021874,2.60170752612415));
#1335=CARTESIAN_POINT('',(3.57326887091979,72.4976986389396,2.60170752612415));
#1336=CARTESIAN_POINT('Origin',(3.07326887091979,72.4976986389396,2.60170752612415));
#1337=CARTESIAN_POINT('',(3.57326887091974,76.6010868021874,2.60170752612415));
#1338=CARTESIAN_POINT('Origin',(3.97326887091975,72.4976986389396,2.60170752612415));
#1339=CARTESIAN_POINT('Origin',(3.97326887091975,72.4976986389396,2.60170752612415));
#1340=CARTESIAN_POINT('Origin',(9.42035700193163,77.9578719295955,4.30170752612416));
#1341=CARTESIAN_POINT('',(9.82035700193158,77.9578719295955,3.80170752612416));
#1342=CARTESIAN_POINT('',(9.82035700193158,77.9578719295955,4.30170752612416));
#1343=CARTESIAN_POINT('',(9.42035700193163,78.3578719295955,3.80170752612416));
#1344=CARTESIAN_POINT('Origin',(9.42035700193163,77.9578719295955,3.80170752612416));
#1345=CARTESIAN_POINT('',(9.42035700193163,78.3578719295954,4.30170752612416));
#1346=CARTESIAN_POINT('Origin',(9.82035700193162,72.4976986389396,4.30170752612416));
#1347=CARTESIAN_POINT('',(9.82035700193162,72.4976986389396,3.80170752612416));
#1348=CARTESIAN_POINT('',(9.82035700193162,72.4976986389396,4.30170752612416));
#1349=CARTESIAN_POINT('',(9.82035700193161,73.8710001568595,3.80170752612416));
#1350=CARTESIAN_POINT('Origin',(9.42035700193166,72.4976986389396,4.30170752612416));
#1351=CARTESIAN_POINT('',(9.42035700193166,72.0976986389396,3.80170752612416));
#1352=CARTESIAN_POINT('',(9.42035700193163,72.0976986389396,4.30170752612416));
#1353=CARTESIAN_POINT('Origin',(9.42035700193166,72.4976986389396,3.80170752612416));
#1354=CARTESIAN_POINT('Origin',(3.97326887091975,72.0976986389396,4.30170752612416));
#1355=CARTESIAN_POINT('',(3.97326887091975,72.0976986389396,3.80170752612416));
#1356=CARTESIAN_POINT('',(3.97326887091971,72.0976986389397,4.30170752612416));
#1357=CARTESIAN_POINT('',(5.22669624937079,72.0976986389396,3.80170752612416));
#1358=CARTESIAN_POINT('Ctrl Pts',(3.57326887091972,77.9578719295955,3.80170752612416));
#1359=CARTESIAN_POINT('Ctrl Pts',(3.57326887091972,77.9578719295955,3.91390726375236));
#1360=CARTESIAN_POINT('Ctrl Pts',(3.66466716026663,77.9395922717261,4.17614439118371));
#1361=CARTESIAN_POINT('Ctrl Pts',(3.92366922074878,77.8877918596297,4.30170752612415));
#1362=CARTESIAN_POINT('Ctrl Pts',(4.07326887091972,77.8578719295955,4.30170752612416));
#1363=CARTESIAN_POINT('Ctrl Pts',(3.57326887091972,78.0625916847151,3.80170752612416));
#1364=CARTESIAN_POINT('Ctrl Pts',(3.57326887091972,78.0625916847151,3.93763845616467));
#1365=CARTESIAN_POINT('Ctrl Pts',(3.71103684580903,77.9972228281664,4.2239015775461));
#1366=CARTESIAN_POINT('Ctrl Pts',(3.94361584077157,77.9077384796525,4.30170752612415));
#1367=CARTESIAN_POINT('Ctrl Pts',(4.07326887091972,77.8578719295955,4.30170752612416));
#1368=CARTESIAN_POINT('Ctrl Pts',(3.66004038372101,78.2711004167942,3.80170752612416));
#1369=CARTESIAN_POINT('Ctrl Pts',(3.66004038372101,78.2711004167942,3.96457606607427));
#1370=CARTESIAN_POINT('Ctrl Pts',(3.81780748826663,78.1133333122486,4.27386680117643));
#1371=CARTESIAN_POINT('Ctrl Pts',(3.98350908081715,77.9476317196981,4.30170752612415));
#1372=CARTESIAN_POINT('Ctrl Pts',(4.07326887091972,77.8578719295955,4.30170752612416));
#1373=CARTESIAN_POINT('Ctrl Pts',(3.86854911580006,78.3578719295955,3.80170752612416));
#1374=CARTESIAN_POINT('Ctrl Pts',(3.86854911580006,78.3578719295955,3.93763845616467));
#1375=CARTESIAN_POINT('Ctrl Pts',(3.93391797234879,78.2201039547062,4.22390157754611));
#1376=CARTESIAN_POINT('Ctrl Pts',(4.02340232086274,77.9875249597436,4.30170752612415));
#1377=CARTESIAN_POINT('Ctrl Pts',(4.07326887091972,77.8578719295955,4.30170752612416));
#1378=CARTESIAN_POINT('Ctrl Pts',(3.97326887091972,78.3578719295955,3.80170752612416));
#1379=CARTESIAN_POINT('Ctrl Pts',(3.97326887091972,78.3578719295955,3.91390726375236));
#1380=CARTESIAN_POINT('Ctrl Pts',(3.9915485287891,78.2664736402486,4.17614439118372));
#1381=CARTESIAN_POINT('Ctrl Pts',(4.04334894088553,78.0074715797664,4.30170752612415));
#1382=CARTESIAN_POINT('Ctrl Pts',(4.07326887091972,77.8578719295955,4.30170752612416));
#1383=CARTESIAN_POINT('',(3.97326887091972,78.3578719295955,3.80170752612416));
#1384=CARTESIAN_POINT('',(4.07326887091972,77.8578719295955,4.30170752612415));
#1385=CARTESIAN_POINT('Origin',(4.07326887091972,77.8578719295955,3.80170752612416));
#1386=CARTESIAN_POINT('',(3.57326887091972,77.9578719295955,3.80170752612416));
#1387=CARTESIAN_POINT('Origin',(4.07326887091972,77.8578719295955,3.80170752612416));
#1388=CARTESIAN_POINT('Origin',(3.97326887091972,77.9578719295955,3.80170752612416));
#1389=CARTESIAN_POINT('Ctrl Pts',(3.97326887091975,72.0976986389396,3.80170752612416));
#1390=CARTESIAN_POINT('Ctrl Pts',(3.97326887091975,72.0976986389396,3.91390726375234));
#1391=CARTESIAN_POINT('Ctrl Pts',(3.99154716624941,72.1890901155878,4.1761500690998));
#1392=CARTESIAN_POINT('Ctrl Pts',(4.04334894088559,72.4480989887686,4.30170752612413));
#1393=CARTESIAN_POINT('Ctrl Pts',(4.07326887091979,72.5976986389395,4.30170752612416));
#1394=CARTESIAN_POINT('Ctrl Pts',(3.86854911580011,72.0976986389396,3.80170752612416));
#1395=CARTESIAN_POINT('Ctrl Pts',(3.86854911580011,72.0976986389396,3.93763845616464));
#1396=CARTESIAN_POINT('Ctrl Pts',(3.93391608806628,72.2354550242099,4.22393280118381));
#1397=CARTESIAN_POINT('Ctrl Pts',(4.02340232086279,72.4680456087914,4.30170752612413));
#1398=CARTESIAN_POINT('Ctrl Pts',(4.07326887091978,72.5976986389395,4.30170752612416));
#1399=CARTESIAN_POINT('Ctrl Pts',(3.66003637701105,72.1844661450309,3.80170752612416));
#1400=CARTESIAN_POINT('Ctrl Pts',(3.66003637701105,72.1844661450309,3.96457606607424));
#1401=CARTESIAN_POINT('Ctrl Pts',(3.81781215217324,72.342241920193,4.27394427448403));
#1402=CARTESIAN_POINT('Ctrl Pts',(3.9835090808172,72.507938848837,4.30170752612414));
#1403=CARTESIAN_POINT('Ctrl Pts',(4.07326887091977,72.5976986389395,4.30170752612415));
#1404=CARTESIAN_POINT('Ctrl Pts',(3.57326887091981,72.3929788838199,3.80170752612416));
#1405=CARTESIAN_POINT('Ctrl Pts',(3.57326887091981,72.3929788838199,3.93763845616465));
#1406=CARTESIAN_POINT('Ctrl Pts',(3.71102525619009,72.4583458560861,4.22393280118384));
#1407=CARTESIAN_POINT('Ctrl Pts',(3.9436158407716,72.5478320888826,4.30170752612414));
#1408=CARTESIAN_POINT('Ctrl Pts',(4.07326887091976,72.5976986389396,4.30170752612416));
#1409=CARTESIAN_POINT('Ctrl Pts',(3.57326887091981,72.4976986389396,3.80170752612416));
#1410=CARTESIAN_POINT('Ctrl Pts',(3.57326887091981,72.4976986389396,3.91390726375236));
#1411=CARTESIAN_POINT('Ctrl Pts',(3.66466034756806,72.5159769342692,4.17615006909984));
#1412=CARTESIAN_POINT('Ctrl Pts',(3.92366922074881,72.5677787089054,4.30170752612414));
#1413=CARTESIAN_POINT('Ctrl Pts',(4.07326887091975,72.5976986389396,4.30170752612416));
#1414=CARTESIAN_POINT('',(3.57326887091979,72.4976986389396,3.80170752612416));
#1415=CARTESIAN_POINT('',(4.07326887091979,72.5976986389396,4.30170752612415));
#1416=CARTESIAN_POINT('Origin',(4.07326887091979,72.5976986389396,3.80170752612416));
#1417=CARTESIAN_POINT('Origin',(4.07326887091979,72.5976986389396,3.80170752612416));
#1418=CARTESIAN_POINT('Origin',(3.97326887091975,72.4976986389396,3.80170752612416));
#1419=CARTESIAN_POINT('Ctrl Pts',(9.82035700193162,72.4976986389396,3.80170752612416));
#1420=CARTESIAN_POINT('Ctrl Pts',(9.82035700193162,72.4976986389396,3.91390726375236));
#1421=CARTESIAN_POINT('Ctrl Pts',(9.72895872830961,72.515978293664,4.17614440428934));
#1422=CARTESIAN_POINT('Ctrl Pts',(9.46995665210256,72.5677787089055,4.30170752612416));
#1423=CARTESIAN_POINT('Ctrl Pts',(9.32035700193162,72.5976986389396,4.30170752612416));
#1424=CARTESIAN_POINT('Ctrl Pts',(9.82035700193162,72.39297888382,3.80170752612416));
#1425=CARTESIAN_POINT('Ctrl Pts',(9.82035700193162,72.39297888382,3.93763845616467));
#1426=CARTESIAN_POINT('Ctrl Pts',(9.68258905379317,72.4583477360195,4.2239016496157));
#1427=CARTESIAN_POINT('Ctrl Pts',(9.45001003207977,72.5478320888827,4.30170752612416));
#1428=CARTESIAN_POINT('Ctrl Pts',(9.32035700193162,72.5976986389396,4.30170752612416));
#1429=CARTESIAN_POINT('Ctrl Pts',(9.73358549833092,72.1844701425403,3.80170752612415));
#1430=CARTESIAN_POINT('Ctrl Pts',(9.73358549833092,72.1844701425403,3.96457606607426));
#1431=CARTESIAN_POINT('Ctrl Pts',(9.57581837389474,72.3422372669766,4.27386697991229));
#1432=CARTESIAN_POINT('Ctrl Pts',(9.41011679203419,72.5079388488371,4.30170752612415));
#1433=CARTESIAN_POINT('Ctrl Pts',(9.32035700193162,72.5976986389396,4.30170752612415));
#1434=CARTESIAN_POINT('Ctrl Pts',(9.52507675705131,72.0976986389396,3.80170752612416));
#1435=CARTESIAN_POINT('Ctrl Pts',(9.52507675705131,72.0976986389396,3.93763845616466));
#1436=CARTESIAN_POINT('Ctrl Pts',(9.45970790485184,72.2354665870781,4.22390164961569));
#1437=CARTESIAN_POINT('Ctrl Pts',(9.37022355198861,72.4680456087915,4.30170752612416));
#1438=CARTESIAN_POINT('Ctrl Pts',(9.32035700193162,72.5976986389396,4.30170752612416));
#1439=CARTESIAN_POINT('Ctrl Pts',(9.42035700193166,72.0976986389396,3.80170752612416));
#1440=CARTESIAN_POINT('Ctrl Pts',(9.42035700193166,72.0976986389396,3.91390726375236));
#1441=CARTESIAN_POINT('Ctrl Pts',(9.40207734720726,72.1890969125617,4.17614440428933));
#1442=CARTESIAN_POINT('Ctrl Pts',(9.35027693196582,72.4480989887687,4.30170752612416));
#1443=CARTESIAN_POINT('Ctrl Pts',(9.32035700193162,72.5976986389396,4.30170752612416));
#1444=CARTESIAN_POINT('',(9.32035700193162,72.5976986389396,4.30170752612415));
#1445=CARTESIAN_POINT('Origin',(9.32035700193162,72.5976986389396,3.80170752612416));
#1446=CARTESIAN_POINT('Origin',(9.32035700193162,72.5976986389396,3.80170752612416));
#1447=CARTESIAN_POINT('Ctrl Pts',(9.42035700193163,78.3578719295955,3.80170752612416));
#1448=CARTESIAN_POINT('Ctrl Pts',(9.42035700193163,78.3578719295955,3.91390726375236));
#1449=CARTESIAN_POINT('Ctrl Pts',(9.40207607823209,78.2664673110979,4.1761391162715));
#1450=CARTESIAN_POINT('Ctrl Pts',(9.35027693196579,78.0074715797664,4.30170752612416));
#1451=CARTESIAN_POINT('Ctrl Pts',(9.32035700193158,77.8578719295955,4.30170752612416));
#1452=CARTESIAN_POINT('Ctrl Pts',(9.52507675705128,78.3578719295955,3.80170752612416));
#1453=CARTESIAN_POINT('Ctrl Pts',(9.52507675705128,78.3578719295955,3.93763845616466));
#1454=CARTESIAN_POINT('Ctrl Pts',(9.45970614996155,78.2200931876887,4.22387257008219));
#1455=CARTESIAN_POINT('Ctrl Pts',(9.37022355198858,77.9875249597436,4.30170752612416));
#1456=CARTESIAN_POINT('Ctrl Pts',(9.32035700193158,77.8578719295955,4.30170752612416));
#1457=CARTESIAN_POINT('Ctrl Pts',(9.73358180367241,78.2710967313363,3.80170752612416));
#1458=CARTESIAN_POINT('Ctrl Pts',(9.73358180367241,78.2710967313363,3.96457606607426));
#1459=CARTESIAN_POINT('Ctrl Pts',(9.57582265927451,78.1133375869384,4.27379489334509));
#1460=CARTESIAN_POINT('Ctrl Pts',(9.41011679203416,77.9476317196981,4.30170752612416));
#1461=CARTESIAN_POINT('Ctrl Pts',(9.32035700193159,77.8578719295955,4.30170752612416));
#1462=CARTESIAN_POINT('Ctrl Pts',(9.82035700193159,78.0625916847152,3.80170752612416));
#1463=CARTESIAN_POINT('Ctrl Pts',(9.82035700193159,78.0625916847152,3.93763845616466));
#1464=CARTESIAN_POINT('Ctrl Pts',(9.68257826002476,77.9972210776255,4.22387257008219));
#1465=CARTESIAN_POINT('Ctrl Pts',(9.45001003207974,77.9077384796525,4.30170752612416));
#1466=CARTESIAN_POINT('Ctrl Pts',(9.32035700193158,77.8578719295955,4.30170752612416));
#1467=CARTESIAN_POINT('Ctrl Pts',(9.82035700193159,77.9578719295955,3.80170752612416));
#1468=CARTESIAN_POINT('Ctrl Pts',(9.82035700193159,77.9578719295955,3.91390726375236));
#1469=CARTESIAN_POINT('Ctrl Pts',(9.72895238343393,77.939591005896,4.1761391162715));
#1470=CARTESIAN_POINT('Ctrl Pts',(9.46995665210253,77.8877918596297,4.30170752612416));
#1471=CARTESIAN_POINT('Ctrl Pts',(9.32035700193158,77.8578719295955,4.30170752612416));
#1472=CARTESIAN_POINT('',(9.32035700193158,77.8578719295955,4.30170752612415));
#1473=CARTESIAN_POINT('Origin',(9.32035700193158,77.8578719295955,3.80170752612416));
#1474=CARTESIAN_POINT('Origin',(9.32035700193158,77.8578719295955,3.80170752612416));
#1475=CARTESIAN_POINT('Origin',(7.95024031487673,77.8578719295955,3.80170752612416));
#1476=CARTESIAN_POINT('',(7.95024031487673,78.3578719295955,3.80170752612416));
#1477=CARTESIAN_POINT('',(7.95024031487673,77.8578719295955,4.30170752612416));
#1478=CARTESIAN_POINT('Origin',(9.32035700193161,73.8710001568595,3.80170752612416));
#1479=CARTESIAN_POINT('',(9.32035700193161,73.8710001568595,4.30170752612416));
#1480=CARTESIAN_POINT('Origin',(5.22669624937079,72.5976986389396,3.80170752612416));
#1481=CARTESIAN_POINT('',(5.22669624937079,72.5976986389396,4.30170752612416));
#1482=CARTESIAN_POINT('Origin',(4.07326887091974,76.6010868021874,3.80170752612416));
#1483=CARTESIAN_POINT('',(4.07326887091974,76.6010868021874,4.30170752612416));
#1484=CARTESIAN_POINT('',(3.57326887091974,76.6010868021874,3.80170752612416));
#1485=CARTESIAN_POINT('Origin',(6.48012362782183,75.2443016747793,4.30170752612416));
#1486=CARTESIAN_POINT('Origin',(3.57326887091972,77.9578719295955,4.30170752612416));
#1487=CARTESIAN_POINT('',(3.57326887091975,77.9578719295955,4.30170752612416));
#1488=CARTESIAN_POINT('',(3.57326887091979,72.4976986389396,4.30170752612416));
#1489=CARTESIAN_POINT('Origin',(3.97326887091975,77.9578719295955,4.30170752612416));
#1490=CARTESIAN_POINT('',(3.97326887091975,78.3578719295955,4.30170752612416));
#1491=CARTESIAN_POINT('Origin',(9.42035700193163,78.3578719295955,4.30170752612416));
#1492=CARTESIAN_POINT('Origin',(3.97326887091975,72.4976986389396,4.30170752612416));
#1493=CARTESIAN_POINT('',(196.8,-144.151800094468,1.595));
#1494=UNCERTAINTY_MEASURE_WITH_UNIT(LENGTH_MEASURE(0.01),#1500,
'DISTANCE_ACCURACY_VALUE',
'Maximum model space distance between geometric entities at asserted c
onnectivities');
#1495=UNCERTAINTY_MEASURE_WITH_UNIT(LENGTH_MEASURE(0.01),#1500,
'DISTANCE_ACCURACY_VALUE',
'Maximum model space distance between geometric entities at asserted c
onnectivities');
#1496=UNCERTAINTY_MEASURE_WITH_UNIT(LENGTH_MEASURE(0.01),#1500,
'DISTANCE_ACCURACY_VALUE',
'Maximum model space distance between geometric entities at asserted c
onnectivities');
#1497=(
GEOMETRIC_REPRESENTATION_CONTEXT(3)
GLOBAL_UNCERTAINTY_ASSIGNED_CONTEXT((#1494))
GLOBAL_UNIT_ASSIGNED_CONTEXT((#1500,#1502,#1503))
REPRESENTATION_CONTEXT('','3D')
);
#1498=(
GEOMETRIC_REPRESENTATION_CONTEXT(3)
GLOBAL_UNCERTAINTY_ASSIGNED_CONTEXT((#1495))
GLOBAL_UNIT_ASSIGNED_CONTEXT((#1500,#1502,#1503))
REPRESENTATION_CONTEXT('','3D')
);
#1499=(
GEOMETRIC_REPRESENTATION_CONTEXT(3)
GLOBAL_UNCERTAINTY_ASSIGNED_CONTEXT((#1496))
GLOBAL_UNIT_ASSIGNED_CONTEXT((#1500,#1502,#1503))
REPRESENTATION_CONTEXT('','3D')
);
#1500=(
LENGTH_UNIT()
NAMED_UNIT(*)
SI_UNIT(.MILLI.,.METRE.)
);
#1501=(
LENGTH_UNIT()
NAMED_UNIT(*)
SI_UNIT($,.METRE.)
);
#1502=(
NAMED_UNIT(*)
PLANE_ANGLE_UNIT()
SI_UNIT($,.RADIAN.)
);
#1503=(
NAMED_UNIT(*)
SI_UNIT($,.STERADIAN.)
SOLID_ANGLE_UNIT()
);
#1504=SHAPE_DEFINITION_REPRESENTATION(#1506,#1509);
#1505=SHAPE_DEFINITION_REPRESENTATION(#1507,#1510);
#1506=PRODUCT_DEFINITION_SHAPE('',$,#1512);
#1507=PRODUCT_DEFINITION_SHAPE('',$,#1513);
#1508=PRODUCT_DEFINITION_SHAPE($,$,#14);
#1509=SHAPE_REPRESENTATION('',(#778,#883),#1497);
#1510=SHAPE_REPRESENTATION('',(#779),#1498);
#1511=PRODUCT_DEFINITION_CONTEXT('part definition',#1519,'design');
#1512=PRODUCT_DEFINITION('Mini Kindle 1','Mini Kindle v13',#1514,#1511);
#1513=PRODUCT_DEFINITION('SW_PUSH_6mm','SW_PUSH_6mm',#1515,#1511);
#1514=PRODUCT_DEFINITION_FORMATION('',$,#1521);
#1515=PRODUCT_DEFINITION_FORMATION('',$,#1522);
#1516=PRODUCT_RELATED_PRODUCT_CATEGORY('Mini Kindle v13',
'Mini Kindle v13',(#1521));
#1517=PRODUCT_RELATED_PRODUCT_CATEGORY('SW_PUSH_6mm','SW_PUSH_6mm',(#1522));
#1518=APPLICATION_PROTOCOL_DEFINITION('international standard',
'automotive_design',2009,#1519);
#1519=APPLICATION_CONTEXT(
'Core Data for Automotive Mechanical Design Process');
#1520=PRODUCT_CONTEXT('part definition',#1519,'mechanical');
#1521=PRODUCT('Mini Kindle 1','Mini Kindle v13',
'KiCad electronic assembly',(#1520));
#1522=PRODUCT('SW_PUSH_6mm','SW_PUSH_6mm',$,(#1520));
#1523=PRESENTATION_STYLE_ASSIGNMENT((#1526));
#1524=PRESENTATION_STYLE_ASSIGNMENT((#1527));
#1525=PRESENTATION_STYLE_ASSIGNMENT((#1528));
#1526=SURFACE_STYLE_USAGE(.BOTH.,#1529);
#1527=SURFACE_STYLE_USAGE(.BOTH.,#1530);
#1528=SURFACE_STYLE_USAGE(.BOTH.,#1531);
#1529=SURFACE_SIDE_STYLE('',(#1532));
#1530=SURFACE_SIDE_STYLE('',(#1533));
#1531=SURFACE_SIDE_STYLE('',(#1534));
#1532=SURFACE_STYLE_FILL_AREA(#1535);
#1533=SURFACE_STYLE_FILL_AREA(#1536);
#1534=SURFACE_STYLE_FILL_AREA(#1537);
#1535=FILL_AREA_STYLE('Steel - Satin',(#1538));
#1536=FILL_AREA_STYLE('Opaque(38,37,37)',(#1539));
#1537=FILL_AREA_STYLE('Opaque(210,209,199)',(#1540));
#1538=FILL_AREA_STYLE_COLOUR('Steel - Satin',#1541);
#1539=FILL_AREA_STYLE_COLOUR('Opaque(38,37,37)',#1542);
#1540=FILL_AREA_STYLE_COLOUR('Opaque(210,209,199)',#1543);
#1541=COLOUR_RGB('Steel - Satin',0.627450980392157,0.627450980392157,0.627450980392157);
#1542=COLOUR_RGB('Opaque(38,37,37)',0.149019607843137,0.145098039215686,
0.145098039215686);
#1543=COLOUR_RGB('Opaque(210,209,199)',0.823529411764706,0.819607843137255,
0.780392156862745);
ENDSEC;
END-ISO-10303-21;
