ISO-10303-21;
HEADER;
/* Generated by software containing ST-Developer
 * from STEP Tools, Inc. (www.steptools.com) 
 */

FILE_DESCRIPTION(
/* description */ ('KiCad electronic assembly'),
/* implementation_level */ '2;1');

FILE_NAME(
/* name */ 'Mini Kindle Front Side Cover.step',
/* time_stamp */ '2026-06-05T14:02:33-04:00',
/* author */ (''),
/* organization */ (''),
/* preprocessor_version */ 'ST-DEVELOPER v20.1',
/* originating_system */ 'Autodesk Translation Framework v14.24.0.0',
/* authorisation */ '');

FILE_SCHEMA (('AUTOMOTIVE_DESIGN { 1 0 10303 214 3 1 1 }'));
ENDSEC;

DATA;
#10=MECHANICAL_DESIGN_GEOMETRIC_PRESENTATION_REPRESENTATION('',(#13),#1702);
#11=SHAPE_REPRESENTATION_RELATIONSHIP('SRR','None',#1708,#12);
#12=ADVANCED_BREP_SHAPE_REPRESENTATION('',(#14),#1701);
#13=STYLED_ITEM('',(#1717),#14);
#14=MANIFOLD_SOLID_BREP('Body7',#940);
#15=PLANE('',#974);
#16=PLANE('',#977);
#17=PLANE('',#1005);
#18=PLANE('',#1006);
#19=PLANE('',#1029);
#20=PLANE('',#1030);
#21=PLANE('',#1055);
#22=PLANE('',#1057);
#23=PLANE('',#1059);
#24=PLANE('',#1060);
#25=PLANE('',#1062);
#26=PLANE('',#1065);
#27=PLANE('',#1067);
#28=PLANE('',#1068);
#29=PLANE('',#1069);
#30=PLANE('',#1070);
#31=B_SPLINE_CURVE_WITH_KNOTS('',3,(#1440,#1441,#1442,#1443,#1444,#1445),
 .UNSPECIFIED.,.F.,.F.,(4,2,4),(0.461638962650554,0.483138886162115,0.534135007571417),
 .UNSPECIFIED.);
#32=B_SPLINE_CURVE_WITH_KNOTS('',3,(#1451,#1452,#1453,#1454,#1455,#1456),
 .UNSPECIFIED.,.F.,.F.,(4,2,4),(0.534135007571408,0.585131128980701,0.606631052492258),
 .UNSPECIFIED.);
#33=B_SPLINE_CURVE_WITH_KNOTS('',3,(#1517,#1518,#1519,#1520,#1521,#1522),
 .UNSPECIFIED.,.F.,.F.,(4,2,4),(0.488640263778889,0.566806432642758,0.698379208533519),
 .UNSPECIFIED.);
#34=B_SPLINE_CURVE_WITH_KNOTS('',3,(#1527,#1528,#1529,#1530,#1531,#1532),
 .UNSPECIFIED.,.F.,.F.,(4,2,4),(0.,0.109545917776327,0.165272523519359),
 .UNSPECIFIED.);
#35=B_SPLINE_CURVE_WITH_KNOTS('',3,(#1543,#1544,#1545,#1546,#1547,#1548),
 .UNSPECIFIED.,.F.,.F.,(4,2,4),(0.,0.131572775890761,0.209738944754629),
 .UNSPECIFIED.);
#36=B_SPLINE_CURVE_WITH_KNOTS('',3,(#1552,#1553,#1554,#1555,#1556,#1557),
 .UNSPECIFIED.,.F.,.F.,(4,2,4),(1.09227054910791,1.14799715485094,1.25754307262727),
 .UNSPECIFIED.);
#37=LINE('',#1406,#98);
#38=LINE('',#1407,#99);
#39=LINE('',#1418,#100);
#40=LINE('',#1419,#101);
#41=LINE('',#1436,#102);
#42=LINE('',#1437,#103);
#43=LINE('',#1461,#104);
#44=LINE('',#1462,#105);
#45=LINE('',#1465,#106);
#46=LINE('',#1468,#107);
#47=LINE('',#1471,#108);
#48=LINE('',#1472,#109);
#49=LINE('',#1475,#110);
#50=LINE('',#1479,#111);
#51=LINE('',#1481,#112);
#52=LINE('',#1483,#113);
#53=LINE('',#1485,#114);
#54=LINE('',#1486,#115);
#55=LINE('',#1500,#116);
#56=LINE('',#1501,#117);
#57=LINE('',#1512,#118);
#58=LINE('',#1513,#119);
#59=LINE('',#1562,#120);
#60=LINE('',#1563,#121);
#61=LINE('',#1566,#122);
#62=LINE('',#1567,#123);
#63=LINE('',#1570,#124);
#64=LINE('',#1572,#125);
#65=LINE('',#1574,#126);
#66=LINE('',#1575,#127);
#67=LINE('',#1580,#128);
#68=LINE('',#1583,#129);
#69=LINE('',#1591,#130);
#70=LINE('',#1600,#131);
#71=LINE('',#1601,#132);
#72=LINE('',#1612,#133);
#73=LINE('',#1613,#134);
#74=LINE('',#1618,#135);
#75=LINE('',#1633,#136);
#76=LINE('',#1634,#137);
#77=LINE('',#1645,#138);
#78=LINE('',#1646,#139);
#79=LINE('',#1657,#140);
#80=LINE('',#1658,#141);
#81=LINE('',#1666,#142);
#82=LINE('',#1667,#143);
#83=LINE('',#1669,#144);
#84=LINE('',#1670,#145);
#85=LINE('',#1672,#146);
#86=LINE('',#1674,#147);
#87=LINE('',#1675,#148);
#88=LINE('',#1676,#149);
#89=LINE('',#1678,#150);
#90=LINE('',#1681,#151);
#91=LINE('',#1683,#152);
#92=LINE('',#1685,#153);
#93=LINE('',#1688,#154);
#94=LINE('',#1690,#155);
#95=LINE('',#1692,#156);
#96=LINE('',#1694,#157);
#97=LINE('',#1697,#158);
#98=VECTOR('',#1087,10.);
#99=VECTOR('',#1088,10.);
#100=VECTOR('',#1101,10.);
#101=VECTOR('',#1102,10.);
#102=VECTOR('',#1123,10.);
#103=VECTOR('',#1124,10.);
#104=VECTOR('',#1139,10.);
#105=VECTOR('',#1140,10.);
#106=VECTOR('',#1143,10.);
#107=VECTOR('',#1146,10.);
#108=VECTOR('',#1149,10.);
#109=VECTOR('',#1150,10.);
#110=VECTOR('',#1153,10.);
#111=VECTOR('',#1158,10.);
#112=VECTOR('',#1159,10.);
#113=VECTOR('',#1160,10.);
#114=VECTOR('',#1161,10.);
#115=VECTOR('',#1162,10.);
#116=VECTOR('',#1177,10.);
#117=VECTOR('',#1178,10.);
#118=VECTOR('',#1191,10.);
#119=VECTOR('',#1192,10.);
#120=VECTOR('',#1221,10.);
#121=VECTOR('',#1222,10.);
#122=VECTOR('',#1225,10.);
#123=VECTOR('',#1226,10.);
#124=VECTOR('',#1229,10.);
#125=VECTOR('',#1230,10.);
#126=VECTOR('',#1231,10.);
#127=VECTOR('',#1232,10.);
#128=VECTOR('',#1237,10.);
#129=VECTOR('',#1240,10.);
#130=VECTOR('',#1251,10.);
#131=VECTOR('',#1262,10.);
#132=VECTOR('',#1263,10.);
#133=VECTOR('',#1276,10.);
#134=VECTOR('',#1277,10.);
#135=VECTOR('',#1286,10.);
#136=VECTOR('',#1303,10.);
#137=VECTOR('',#1304,10.);
#138=VECTOR('',#1317,10.);
#139=VECTOR('',#1318,10.);
#140=VECTOR('',#1331,10.);
#141=VECTOR('',#1332,10.);
#142=VECTOR('',#1343,10.);
#143=VECTOR('',#1344,10.);
#144=VECTOR('',#1347,10.);
#145=VECTOR('',#1348,10.);
#146=VECTOR('',#1351,10.);
#147=VECTOR('',#1354,10.);
#148=VECTOR('',#1355,10.);
#149=VECTOR('',#1356,10.);
#150=VECTOR('',#1359,10.);
#151=VECTOR('',#1364,10.);
#152=VECTOR('',#1367,10.);
#153=VECTOR('',#1370,10.);
#154=VECTOR('',#1375,10.);
#155=VECTOR('',#1378,10.);
#156=VECTOR('',#1381,10.);
#157=VECTOR('',#1384,10.);
#158=VECTOR('',#1389,10.);
#159=CYLINDRICAL_SURFACE('',#947,0.8);
#160=CYLINDRICAL_SURFACE('',#953,0.8);
#161=CYLINDRICAL_SURFACE('',#964,0.8);
#162=CYLINDRICAL_SURFACE('',#971,0.8);
#163=CYLINDRICAL_SURFACE('',#972,2.233);
#164=CYLINDRICAL_SURFACE('',#975,2.233);
#165=CYLINDRICAL_SURFACE('',#983,0.8);
#166=CYLINDRICAL_SURFACE('',#989,0.8);
#167=CYLINDRICAL_SURFACE('',#1004,0.8);
#168=CYLINDRICAL_SURFACE('',#1007,1.);
#169=CYLINDRICAL_SURFACE('',#1013,1.);
#170=CYLINDRICAL_SURFACE('',#1018,1.);
#171=CYLINDRICAL_SURFACE('',#1024,1.);
#172=CYLINDRICAL_SURFACE('',#1036,1.);
#173=CYLINDRICAL_SURFACE('',#1042,1.);
#174=CYLINDRICAL_SURFACE('',#1048,1.);
#175=CYLINDRICAL_SURFACE('',#1054,1.);
#176=CYLINDRICAL_SURFACE('',#1056,2.233);
#177=CYLINDRICAL_SURFACE('',#1058,2.233);
#178=CYLINDRICAL_SURFACE('',#1061,2.233);
#179=CYLINDRICAL_SURFACE('',#1063,2.233);
#180=CYLINDRICAL_SURFACE('',#1064,2.233);
#181=CYLINDRICAL_SURFACE('',#1066,2.233);
#182=FACE_OUTER_BOUND('',#241,.T.);
#183=FACE_OUTER_BOUND('',#242,.T.);
#184=FACE_OUTER_BOUND('',#243,.T.);
#185=FACE_OUTER_BOUND('',#244,.T.);
#186=FACE_OUTER_BOUND('',#245,.T.);
#187=FACE_OUTER_BOUND('',#246,.T.);
#188=FACE_OUTER_BOUND('',#247,.T.);
#189=FACE_OUTER_BOUND('',#248,.T.);
#190=FACE_OUTER_BOUND('',#249,.T.);
#191=FACE_OUTER_BOUND('',#250,.T.);
#192=FACE_OUTER_BOUND('',#251,.T.);
#193=FACE_OUTER_BOUND('',#252,.T.);
#194=FACE_OUTER_BOUND('',#253,.T.);
#195=FACE_OUTER_BOUND('',#254,.T.);
#196=FACE_OUTER_BOUND('',#255,.T.);
#197=FACE_OUTER_BOUND('',#256,.T.);
#198=FACE_OUTER_BOUND('',#257,.T.);
#199=FACE_OUTER_BOUND('',#258,.T.);
#200=FACE_OUTER_BOUND('',#259,.T.);
#201=FACE_OUTER_BOUND('',#260,.T.);
#202=FACE_OUTER_BOUND('',#261,.T.);
#203=FACE_OUTER_BOUND('',#262,.T.);
#204=FACE_OUTER_BOUND('',#263,.T.);
#205=FACE_OUTER_BOUND('',#264,.T.);
#206=FACE_OUTER_BOUND('',#265,.T.);
#207=FACE_OUTER_BOUND('',#266,.T.);
#208=FACE_OUTER_BOUND('',#267,.T.);
#209=FACE_OUTER_BOUND('',#268,.T.);
#210=FACE_OUTER_BOUND('',#269,.T.);
#211=FACE_OUTER_BOUND('',#270,.T.);
#212=FACE_OUTER_BOUND('',#271,.T.);
#213=FACE_OUTER_BOUND('',#272,.T.);
#214=FACE_OUTER_BOUND('',#273,.T.);
#215=FACE_OUTER_BOUND('',#274,.T.);
#216=FACE_OUTER_BOUND('',#275,.T.);
#217=FACE_OUTER_BOUND('',#276,.T.);
#218=FACE_OUTER_BOUND('',#277,.T.);
#219=FACE_OUTER_BOUND('',#278,.T.);
#220=FACE_OUTER_BOUND('',#279,.T.);
#221=FACE_OUTER_BOUND('',#280,.T.);
#222=FACE_OUTER_BOUND('',#281,.T.);
#223=FACE_OUTER_BOUND('',#282,.T.);
#224=FACE_OUTER_BOUND('',#283,.T.);
#225=FACE_OUTER_BOUND('',#284,.T.);
#226=FACE_OUTER_BOUND('',#285,.T.);
#227=FACE_OUTER_BOUND('',#286,.T.);
#228=FACE_OUTER_BOUND('',#287,.T.);
#229=FACE_OUTER_BOUND('',#288,.T.);
#230=FACE_OUTER_BOUND('',#289,.T.);
#231=FACE_OUTER_BOUND('',#290,.T.);
#232=FACE_OUTER_BOUND('',#291,.T.);
#233=FACE_OUTER_BOUND('',#292,.T.);
#234=FACE_OUTER_BOUND('',#293,.T.);
#235=FACE_OUTER_BOUND('',#294,.T.);
#236=FACE_OUTER_BOUND('',#295,.T.);
#237=FACE_OUTER_BOUND('',#296,.T.);
#238=FACE_OUTER_BOUND('',#297,.T.);
#239=FACE_OUTER_BOUND('',#298,.T.);
#240=FACE_OUTER_BOUND('',#299,.T.);
#241=EDGE_LOOP('',(#587,#588,#589,#590));
#242=EDGE_LOOP('',(#591,#592,#593,#594));
#243=EDGE_LOOP('',(#595,#596,#597,#598));
#244=EDGE_LOOP('',(#599,#600,#601,#602));
#245=EDGE_LOOP('',(#603,#604,#605,#606));
#246=EDGE_LOOP('',(#607,#608,#609,#610));
#247=EDGE_LOOP('',(#611,#612,#613,#614));
#248=EDGE_LOOP('',(#615,#616,#617,#618));
#249=EDGE_LOOP('',(#619,#620,#621,#622));
#250=EDGE_LOOP('',(#623,#624,#625,#626));
#251=EDGE_LOOP('',(#627,#628,#629,#630,#631));
#252=EDGE_LOOP('',(#632,#633,#634,#635));
#253=EDGE_LOOP('',(#636,#637,#638,#639,#640));
#254=EDGE_LOOP('',(#641,#642,#643,#644,#645,#646,#647,#648,#649,#650,#651,
#652));
#255=EDGE_LOOP('',(#653,#654,#655,#656));
#256=EDGE_LOOP('',(#657,#658,#659,#660));
#257=EDGE_LOOP('',(#661,#662,#663,#664));
#258=EDGE_LOOP('',(#665,#666,#667,#668));
#259=EDGE_LOOP('',(#669,#670,#671,#672));
#260=EDGE_LOOP('',(#673,#674,#675,#676));
#261=EDGE_LOOP('',(#677,#678,#679,#680));
#262=EDGE_LOOP('',(#681,#682,#683,#684));
#263=EDGE_LOOP('',(#685,#686,#687,#688));
#264=EDGE_LOOP('',(#689,#690,#691));
#265=EDGE_LOOP('',(#692,#693,#694,#695,#696,#697,#698,#699,#700));
#266=EDGE_LOOP('',(#701,#702,#703,#704));
#267=EDGE_LOOP('',(#705,#706,#707,#708));
#268=EDGE_LOOP('',(#709,#710,#711,#712));
#269=EDGE_LOOP('',(#713,#714,#715,#716));
#270=EDGE_LOOP('',(#717,#718,#719,#720));
#271=EDGE_LOOP('',(#721,#722,#723,#724));
#272=EDGE_LOOP('',(#725,#726,#727,#728));
#273=EDGE_LOOP('',(#729,#730,#731,#732));
#274=EDGE_LOOP('',(#733,#734,#735,#736));
#275=EDGE_LOOP('',(#737,#738,#739,#740,#741,#742,#743,#744));
#276=EDGE_LOOP('',(#745,#746,#747,#748));
#277=EDGE_LOOP('',(#749,#750,#751,#752));
#278=EDGE_LOOP('',(#753,#754,#755,#756));
#279=EDGE_LOOP('',(#757,#758,#759,#760));
#280=EDGE_LOOP('',(#761,#762,#763,#764));
#281=EDGE_LOOP('',(#765,#766,#767,#768));
#282=EDGE_LOOP('',(#769,#770,#771,#772));
#283=EDGE_LOOP('',(#773,#774,#775,#776));
#284=EDGE_LOOP('',(#777,#778,#779,#780));
#285=EDGE_LOOP('',(#781,#782,#783,#784,#785));
#286=EDGE_LOOP('',(#786,#787,#788,#789,#790,#791,#792,#793,#794,#795,#796,
#797,#798,#799));
#287=EDGE_LOOP('',(#800,#801,#802,#803));
#288=EDGE_LOOP('',(#804,#805,#806,#807,#808,#809,#810,#811));
#289=EDGE_LOOP('',(#812,#813,#814,#815));
#290=EDGE_LOOP('',(#816,#817,#818,#819));
#291=EDGE_LOOP('',(#820,#821,#822,#823));
#292=EDGE_LOOP('',(#824,#825,#826,#827));
#293=EDGE_LOOP('',(#828,#829,#830,#831,#832));
#294=EDGE_LOOP('',(#833,#834,#835,#836));
#295=EDGE_LOOP('',(#837,#838,#839,#840));
#296=EDGE_LOOP('',(#841,#842,#843,#844,#845,#846,#847,#848));
#297=EDGE_LOOP('',(#849,#850,#851,#852));
#298=EDGE_LOOP('',(#853,#854,#855,#856));
#299=EDGE_LOOP('',(#857,#858,#859,#860));
#300=CIRCLE('',#943,0.800000000000001);
#301=CIRCLE('',#944,3.033);
#302=CIRCLE('',#945,0.800000000000001);
#303=CIRCLE('',#946,2.233);
#304=CIRCLE('',#948,0.800000000000001);
#305=CIRCLE('',#950,0.800000000000001);
#306=CIRCLE('',#951,2.233);
#307=CIRCLE('',#952,3.033);
#308=CIRCLE('',#954,0.800000000000001);
#309=CIRCLE('',#956,0.800000000000001);
#310=CIRCLE('',#957,2.233);
#311=CIRCLE('',#958,3.033);
#312=CIRCLE('',#960,0.800000000000007);
#313=CIRCLE('',#961,3.033);
#314=CIRCLE('',#962,0.800000000000001);
#315=CIRCLE('',#963,2.233);
#316=CIRCLE('',#966,0.800000000000001);
#317=CIRCLE('',#967,2.233);
#318=CIRCLE('',#969,2.233);
#319=CIRCLE('',#970,0.799999999999983);
#320=CIRCLE('',#973,2.233);
#321=CIRCLE('',#976,2.233);
#322=CIRCLE('',#979,0.800000000000007);
#323=CIRCLE('',#980,3.033);
#324=CIRCLE('',#981,0.800000000000001);
#325=CIRCLE('',#982,2.233);
#326=CIRCLE('',#984,0.800000000000001);
#327=CIRCLE('',#986,0.800000000000001);
#328=CIRCLE('',#987,2.233);
#329=CIRCLE('',#988,3.033);
#330=CIRCLE('',#990,0.800000000000001);
#331=CIRCLE('',#992,2.233);
#332=CIRCLE('',#993,3.033);
#333=CIRCLE('',#995,2.233);
#334=CIRCLE('',#996,0.8);
#335=CIRCLE('',#998,0.800000000000001);
#336=CIRCLE('',#999,2.233);
#337=CIRCLE('',#1000,3.033);
#338=CIRCLE('',#1002,0.800000000000001);
#339=CIRCLE('',#1003,2.233);
#340=CIRCLE('',#1008,0.999999999999996);
#341=CIRCLE('',#1009,1.);
#342=CIRCLE('',#1011,0.999999999999979);
#343=CIRCLE('',#1012,1.233);
#344=CIRCLE('',#1014,0.999999999999996);
#345=CIRCLE('',#1016,0.999999999999999);
#346=CIRCLE('',#1017,1.233);
#347=CIRCLE('',#1019,1.);
#348=CIRCLE('',#1021,0.999999999999979);
#349=CIRCLE('',#1022,1.233);
#350=CIRCLE('',#1023,2.233);
#351=CIRCLE('',#1025,1.00000000000001);
#352=CIRCLE('',#1027,1.233);
#353=CIRCLE('',#1028,2.233);
#354=CIRCLE('',#1032,0.999999999999996);
#355=CIRCLE('',#1033,1.233);
#356=CIRCLE('',#1034,0.999999999999996);
#357=CIRCLE('',#1035,2.233);
#358=CIRCLE('',#1037,0.999999999999996);
#359=CIRCLE('',#1039,0.999999999999996);
#360=CIRCLE('',#1040,2.233);
#361=CIRCLE('',#1041,1.233);
#362=CIRCLE('',#1043,0.999999999999996);
#363=CIRCLE('',#1045,0.999999999999996);
#364=CIRCLE('',#1046,2.233);
#365=CIRCLE('',#1047,1.233);
#366=CIRCLE('',#1049,0.999999999999996);
#367=CIRCLE('',#1051,0.999999999999996);
#368=CIRCLE('',#1052,2.233);
#369=CIRCLE('',#1053,1.233);
#370=VERTEX_POINT('',#1394);
#371=VERTEX_POINT('',#1395);
#372=VERTEX_POINT('',#1397);
#373=VERTEX_POINT('',#1399);
#374=VERTEX_POINT('',#1403);
#375=VERTEX_POINT('',#1404);
#376=VERTEX_POINT('',#1409);
#377=VERTEX_POINT('',#1410);
#378=VERTEX_POINT('',#1415);
#379=VERTEX_POINT('',#1416);
#380=VERTEX_POINT('',#1421);
#381=VERTEX_POINT('',#1422);
#382=VERTEX_POINT('',#1427);
#383=VERTEX_POINT('',#1428);
#384=VERTEX_POINT('',#1430);
#385=VERTEX_POINT('',#1432);
#386=VERTEX_POINT('',#1439);
#387=VERTEX_POINT('',#1446);
#388=VERTEX_POINT('',#1450);
#389=VERTEX_POINT('',#1457);
#390=VERTEX_POINT('',#1464);
#391=VERTEX_POINT('',#1466);
#392=VERTEX_POINT('',#1470);
#393=VERTEX_POINT('',#1474);
#394=VERTEX_POINT('',#1478);
#395=VERTEX_POINT('',#1480);
#396=VERTEX_POINT('',#1482);
#397=VERTEX_POINT('',#1484);
#398=VERTEX_POINT('',#1488);
#399=VERTEX_POINT('',#1489);
#400=VERTEX_POINT('',#1491);
#401=VERTEX_POINT('',#1493);
#402=VERTEX_POINT('',#1497);
#403=VERTEX_POINT('',#1498);
#404=VERTEX_POINT('',#1503);
#405=VERTEX_POINT('',#1504);
#406=VERTEX_POINT('',#1509);
#407=VERTEX_POINT('',#1510);
#408=VERTEX_POINT('',#1515);
#409=VERTEX_POINT('',#1516);
#410=VERTEX_POINT('',#1526);
#411=VERTEX_POINT('',#1533);
#412=VERTEX_POINT('',#1537);
#413=VERTEX_POINT('',#1538);
#414=VERTEX_POINT('',#1540);
#415=VERTEX_POINT('',#1542);
#416=VERTEX_POINT('',#1551);
#417=VERTEX_POINT('',#1558);
#418=VERTEX_POINT('',#1565);
#419=VERTEX_POINT('',#1569);
#420=VERTEX_POINT('',#1571);
#421=VERTEX_POINT('',#1573);
#422=VERTEX_POINT('',#1577);
#423=VERTEX_POINT('',#1578);
#424=VERTEX_POINT('',#1581);
#425=VERTEX_POINT('',#1585);
#426=VERTEX_POINT('',#1589);
#427=VERTEX_POINT('',#1593);
#428=VERTEX_POINT('',#1597);
#429=VERTEX_POINT('',#1598);
#430=VERTEX_POINT('',#1603);
#431=VERTEX_POINT('',#1604);
#432=VERTEX_POINT('',#1609);
#433=VERTEX_POINT('',#1610);
#434=VERTEX_POINT('',#1621);
#435=VERTEX_POINT('',#1622);
#436=VERTEX_POINT('',#1624);
#437=VERTEX_POINT('',#1626);
#438=VERTEX_POINT('',#1630);
#439=VERTEX_POINT('',#1631);
#440=VERTEX_POINT('',#1636);
#441=VERTEX_POINT('',#1637);
#442=VERTEX_POINT('',#1642);
#443=VERTEX_POINT('',#1643);
#444=VERTEX_POINT('',#1648);
#445=VERTEX_POINT('',#1649);
#446=VERTEX_POINT('',#1654);
#447=VERTEX_POINT('',#1655);
#448=VERTEX_POINT('',#1660);
#449=VERTEX_POINT('',#1661);
#450=EDGE_CURVE('',#370,#371,#300,.T.);
#451=EDGE_CURVE('',#371,#372,#301,.T.);
#452=EDGE_CURVE('',#372,#373,#302,.T.);
#453=EDGE_CURVE('',#373,#370,#303,.T.);
#454=EDGE_CURVE('',#374,#375,#304,.T.);
#455=EDGE_CURVE('',#375,#373,#37,.T.);
#456=EDGE_CURVE('',#372,#374,#38,.T.);
#457=EDGE_CURVE('',#376,#377,#305,.T.);
#458=EDGE_CURVE('',#377,#375,#306,.T.);
#459=EDGE_CURVE('',#374,#376,#307,.T.);
#460=EDGE_CURVE('',#378,#379,#308,.T.);
#461=EDGE_CURVE('',#379,#377,#39,.T.);
#462=EDGE_CURVE('',#376,#378,#40,.T.);
#463=EDGE_CURVE('',#380,#381,#309,.T.);
#464=EDGE_CURVE('',#381,#379,#310,.T.);
#465=EDGE_CURVE('',#378,#380,#311,.T.);
#466=EDGE_CURVE('',#382,#383,#312,.T.);
#467=EDGE_CURVE('',#383,#384,#313,.T.);
#468=EDGE_CURVE('',#384,#385,#314,.T.);
#469=EDGE_CURVE('',#385,#382,#315,.T.);
#470=EDGE_CURVE('',#384,#371,#41,.T.);
#471=EDGE_CURVE('',#370,#385,#42,.T.);
#472=EDGE_CURVE('',#380,#386,#31,.T.);
#473=EDGE_CURVE('',#386,#387,#316,.T.);
#474=EDGE_CURVE('',#387,#381,#317,.T.);
#475=EDGE_CURVE('',#388,#383,#32,.T.);
#476=EDGE_CURVE('',#382,#389,#318,.T.);
#477=EDGE_CURVE('',#389,#388,#319,.T.);
#478=EDGE_CURVE('',#386,#388,#43,.T.);
#479=EDGE_CURVE('',#389,#387,#44,.T.);
#480=EDGE_CURVE('',#387,#390,#45,.T.);
#481=EDGE_CURVE('',#391,#390,#320,.T.);
#482=EDGE_CURVE('',#391,#379,#46,.T.);
#483=EDGE_CURVE('',#392,#389,#47,.T.);
#484=EDGE_CURVE('',#390,#392,#48,.T.);
#485=EDGE_CURVE('',#385,#393,#49,.T.);
#486=EDGE_CURVE('',#392,#393,#321,.T.);
#487=EDGE_CURVE('',#394,#383,#50,.T.);
#488=EDGE_CURVE('',#395,#394,#51,.T.);
#489=EDGE_CURVE('',#396,#395,#52,.T.);
#490=EDGE_CURVE('',#397,#396,#53,.T.);
#491=EDGE_CURVE('',#380,#397,#54,.T.);
#492=EDGE_CURVE('',#398,#399,#322,.T.);
#493=EDGE_CURVE('',#399,#400,#323,.T.);
#494=EDGE_CURVE('',#400,#401,#324,.T.);
#495=EDGE_CURVE('',#401,#398,#325,.T.);
#496=EDGE_CURVE('',#402,#403,#326,.T.);
#497=EDGE_CURVE('',#403,#401,#55,.T.);
#498=EDGE_CURVE('',#400,#402,#56,.T.);
#499=EDGE_CURVE('',#404,#405,#327,.T.);
#500=EDGE_CURVE('',#405,#403,#328,.T.);
#501=EDGE_CURVE('',#402,#404,#329,.T.);
#502=EDGE_CURVE('',#406,#407,#330,.T.);
#503=EDGE_CURVE('',#407,#405,#57,.T.);
#504=EDGE_CURVE('',#404,#406,#58,.T.);
#505=EDGE_CURVE('',#408,#409,#33,.T.);
#506=EDGE_CURVE('',#409,#407,#331,.T.);
#507=EDGE_CURVE('',#406,#408,#332,.T.);
#508=EDGE_CURVE('',#410,#399,#34,.T.);
#509=EDGE_CURVE('',#398,#411,#333,.T.);
#510=EDGE_CURVE('',#411,#410,#334,.T.);
#511=EDGE_CURVE('',#412,#413,#335,.T.);
#512=EDGE_CURVE('',#413,#414,#336,.T.);
#513=EDGE_CURVE('',#414,#415,#35,.T.);
#514=EDGE_CURVE('',#415,#412,#337,.T.);
#515=EDGE_CURVE('',#412,#416,#36,.T.);
#516=EDGE_CURVE('',#416,#417,#338,.T.);
#517=EDGE_CURVE('',#417,#413,#339,.T.);
#518=EDGE_CURVE('',#416,#410,#59,.T.);
#519=EDGE_CURVE('',#411,#417,#60,.T.);
#520=EDGE_CURVE('',#418,#415,#61,.T.);
#521=EDGE_CURVE('',#412,#418,#62,.T.);
#522=EDGE_CURVE('',#419,#399,#63,.T.);
#523=EDGE_CURVE('',#420,#419,#64,.T.);
#524=EDGE_CURVE('',#421,#420,#65,.T.);
#525=EDGE_CURVE('',#421,#408,#66,.T.);
#526=EDGE_CURVE('',#422,#423,#340,.T.);
#527=EDGE_CURVE('',#423,#391,#67,.T.);
#528=EDGE_CURVE('',#391,#424,#341,.T.);
#529=EDGE_CURVE('',#424,#422,#68,.T.);
#530=EDGE_CURVE('',#390,#425,#342,.T.);
#531=EDGE_CURVE('',#425,#424,#343,.T.);
#532=EDGE_CURVE('',#392,#426,#344,.T.);
#533=EDGE_CURVE('',#426,#425,#69,.T.);
#534=EDGE_CURVE('',#393,#427,#345,.T.);
#535=EDGE_CURVE('',#427,#426,#346,.T.);
#536=EDGE_CURVE('',#428,#429,#347,.T.);
#537=EDGE_CURVE('',#429,#427,#70,.T.);
#538=EDGE_CURVE('',#393,#428,#71,.T.);
#539=EDGE_CURVE('',#430,#431,#348,.T.);
#540=EDGE_CURVE('',#431,#429,#349,.T.);
#541=EDGE_CURVE('',#428,#430,#350,.T.);
#542=EDGE_CURVE('',#432,#433,#351,.T.);
#543=EDGE_CURVE('',#433,#431,#72,.T.);
#544=EDGE_CURVE('',#430,#432,#73,.T.);
#545=EDGE_CURVE('',#422,#433,#352,.T.);
#546=EDGE_CURVE('',#432,#423,#353,.T.);
#547=EDGE_CURVE('',#377,#423,#74,.T.);
#548=EDGE_CURVE('',#434,#435,#354,.T.);
#549=EDGE_CURVE('',#435,#436,#355,.T.);
#550=EDGE_CURVE('',#436,#437,#356,.T.);
#551=EDGE_CURVE('',#437,#434,#357,.T.);
#552=EDGE_CURVE('',#438,#439,#358,.T.);
#553=EDGE_CURVE('',#439,#437,#75,.T.);
#554=EDGE_CURVE('',#436,#438,#76,.T.);
#555=EDGE_CURVE('',#440,#441,#359,.T.);
#556=EDGE_CURVE('',#441,#439,#360,.T.);
#557=EDGE_CURVE('',#438,#440,#361,.T.);
#558=EDGE_CURVE('',#442,#443,#362,.T.);
#559=EDGE_CURVE('',#443,#441,#77,.T.);
#560=EDGE_CURVE('',#440,#442,#78,.T.);
#561=EDGE_CURVE('',#444,#445,#363,.T.);
#562=EDGE_CURVE('',#445,#443,#364,.T.);
#563=EDGE_CURVE('',#442,#444,#365,.T.);
#564=EDGE_CURVE('',#446,#447,#366,.T.);
#565=EDGE_CURVE('',#447,#445,#79,.T.);
#566=EDGE_CURVE('',#444,#446,#80,.T.);
#567=EDGE_CURVE('',#448,#449,#367,.T.);
#568=EDGE_CURVE('',#449,#447,#368,.T.);
#569=EDGE_CURVE('',#446,#448,#369,.T.);
#570=EDGE_CURVE('',#448,#435,#81,.T.);
#571=EDGE_CURVE('',#434,#449,#82,.T.);
#572=EDGE_CURVE('',#445,#411,#83,.T.);
#573=EDGE_CURVE('',#417,#447,#84,.T.);
#574=EDGE_CURVE('',#449,#414,#85,.T.);
#575=EDGE_CURVE('',#418,#397,#86,.T.);
#576=EDGE_CURVE('',#409,#434,#87,.T.);
#577=EDGE_CURVE('',#394,#421,#88,.T.);
#578=EDGE_CURVE('',#437,#407,#89,.T.);
#579=EDGE_CURVE('',#428,#370,#90,.T.);
#580=EDGE_CURVE('',#432,#375,#91,.T.);
#581=EDGE_CURVE('',#373,#430,#92,.T.);
#582=EDGE_CURVE('',#401,#443,#93,.T.);
#583=EDGE_CURVE('',#441,#403,#94,.T.);
#584=EDGE_CURVE('',#405,#439,#95,.T.);
#585=EDGE_CURVE('',#396,#419,#96,.T.);
#586=EDGE_CURVE('',#420,#395,#97,.T.);
#587=ORIENTED_EDGE('',*,*,#450,.T.);
#588=ORIENTED_EDGE('',*,*,#451,.T.);
#589=ORIENTED_EDGE('',*,*,#452,.T.);
#590=ORIENTED_EDGE('',*,*,#453,.T.);
#591=ORIENTED_EDGE('',*,*,#454,.T.);
#592=ORIENTED_EDGE('',*,*,#455,.T.);
#593=ORIENTED_EDGE('',*,*,#452,.F.);
#594=ORIENTED_EDGE('',*,*,#456,.T.);
#595=ORIENTED_EDGE('',*,*,#457,.T.);
#596=ORIENTED_EDGE('',*,*,#458,.T.);
#597=ORIENTED_EDGE('',*,*,#454,.F.);
#598=ORIENTED_EDGE('',*,*,#459,.T.);
#599=ORIENTED_EDGE('',*,*,#460,.T.);
#600=ORIENTED_EDGE('',*,*,#461,.T.);
#601=ORIENTED_EDGE('',*,*,#457,.F.);
#602=ORIENTED_EDGE('',*,*,#462,.T.);
#603=ORIENTED_EDGE('',*,*,#463,.T.);
#604=ORIENTED_EDGE('',*,*,#464,.T.);
#605=ORIENTED_EDGE('',*,*,#460,.F.);
#606=ORIENTED_EDGE('',*,*,#465,.T.);
#607=ORIENTED_EDGE('',*,*,#466,.T.);
#608=ORIENTED_EDGE('',*,*,#467,.T.);
#609=ORIENTED_EDGE('',*,*,#468,.T.);
#610=ORIENTED_EDGE('',*,*,#469,.T.);
#611=ORIENTED_EDGE('',*,*,#468,.F.);
#612=ORIENTED_EDGE('',*,*,#470,.T.);
#613=ORIENTED_EDGE('',*,*,#450,.F.);
#614=ORIENTED_EDGE('',*,*,#471,.T.);
#615=ORIENTED_EDGE('',*,*,#472,.T.);
#616=ORIENTED_EDGE('',*,*,#473,.T.);
#617=ORIENTED_EDGE('',*,*,#474,.T.);
#618=ORIENTED_EDGE('',*,*,#463,.F.);
#619=ORIENTED_EDGE('',*,*,#475,.T.);
#620=ORIENTED_EDGE('',*,*,#466,.F.);
#621=ORIENTED_EDGE('',*,*,#476,.T.);
#622=ORIENTED_EDGE('',*,*,#477,.T.);
#623=ORIENTED_EDGE('',*,*,#478,.T.);
#624=ORIENTED_EDGE('',*,*,#477,.F.);
#625=ORIENTED_EDGE('',*,*,#479,.T.);
#626=ORIENTED_EDGE('',*,*,#473,.F.);
#627=ORIENTED_EDGE('',*,*,#464,.F.);
#628=ORIENTED_EDGE('',*,*,#474,.F.);
#629=ORIENTED_EDGE('',*,*,#480,.T.);
#630=ORIENTED_EDGE('',*,*,#481,.F.);
#631=ORIENTED_EDGE('',*,*,#482,.T.);
#632=ORIENTED_EDGE('',*,*,#479,.F.);
#633=ORIENTED_EDGE('',*,*,#483,.F.);
#634=ORIENTED_EDGE('',*,*,#484,.F.);
#635=ORIENTED_EDGE('',*,*,#480,.F.);
#636=ORIENTED_EDGE('',*,*,#476,.F.);
#637=ORIENTED_EDGE('',*,*,#469,.F.);
#638=ORIENTED_EDGE('',*,*,#485,.T.);
#639=ORIENTED_EDGE('',*,*,#486,.F.);
#640=ORIENTED_EDGE('',*,*,#483,.T.);
#641=ORIENTED_EDGE('',*,*,#465,.F.);
#642=ORIENTED_EDGE('',*,*,#462,.F.);
#643=ORIENTED_EDGE('',*,*,#459,.F.);
#644=ORIENTED_EDGE('',*,*,#456,.F.);
#645=ORIENTED_EDGE('',*,*,#451,.F.);
#646=ORIENTED_EDGE('',*,*,#470,.F.);
#647=ORIENTED_EDGE('',*,*,#467,.F.);
#648=ORIENTED_EDGE('',*,*,#487,.F.);
#649=ORIENTED_EDGE('',*,*,#488,.F.);
#650=ORIENTED_EDGE('',*,*,#489,.F.);
#651=ORIENTED_EDGE('',*,*,#490,.F.);
#652=ORIENTED_EDGE('',*,*,#491,.F.);
#653=ORIENTED_EDGE('',*,*,#492,.T.);
#654=ORIENTED_EDGE('',*,*,#493,.T.);
#655=ORIENTED_EDGE('',*,*,#494,.T.);
#656=ORIENTED_EDGE('',*,*,#495,.T.);
#657=ORIENTED_EDGE('',*,*,#496,.T.);
#658=ORIENTED_EDGE('',*,*,#497,.T.);
#659=ORIENTED_EDGE('',*,*,#494,.F.);
#660=ORIENTED_EDGE('',*,*,#498,.T.);
#661=ORIENTED_EDGE('',*,*,#499,.T.);
#662=ORIENTED_EDGE('',*,*,#500,.T.);
#663=ORIENTED_EDGE('',*,*,#496,.F.);
#664=ORIENTED_EDGE('',*,*,#501,.T.);
#665=ORIENTED_EDGE('',*,*,#502,.T.);
#666=ORIENTED_EDGE('',*,*,#503,.T.);
#667=ORIENTED_EDGE('',*,*,#499,.F.);
#668=ORIENTED_EDGE('',*,*,#504,.T.);
#669=ORIENTED_EDGE('',*,*,#505,.T.);
#670=ORIENTED_EDGE('',*,*,#506,.T.);
#671=ORIENTED_EDGE('',*,*,#502,.F.);
#672=ORIENTED_EDGE('',*,*,#507,.T.);
#673=ORIENTED_EDGE('',*,*,#508,.T.);
#674=ORIENTED_EDGE('',*,*,#492,.F.);
#675=ORIENTED_EDGE('',*,*,#509,.T.);
#676=ORIENTED_EDGE('',*,*,#510,.T.);
#677=ORIENTED_EDGE('',*,*,#511,.T.);
#678=ORIENTED_EDGE('',*,*,#512,.T.);
#679=ORIENTED_EDGE('',*,*,#513,.T.);
#680=ORIENTED_EDGE('',*,*,#514,.T.);
#681=ORIENTED_EDGE('',*,*,#515,.T.);
#682=ORIENTED_EDGE('',*,*,#516,.T.);
#683=ORIENTED_EDGE('',*,*,#517,.T.);
#684=ORIENTED_EDGE('',*,*,#511,.F.);
#685=ORIENTED_EDGE('',*,*,#518,.T.);
#686=ORIENTED_EDGE('',*,*,#510,.F.);
#687=ORIENTED_EDGE('',*,*,#519,.T.);
#688=ORIENTED_EDGE('',*,*,#516,.F.);
#689=ORIENTED_EDGE('',*,*,#514,.F.);
#690=ORIENTED_EDGE('',*,*,#520,.F.);
#691=ORIENTED_EDGE('',*,*,#521,.F.);
#692=ORIENTED_EDGE('',*,*,#507,.F.);
#693=ORIENTED_EDGE('',*,*,#504,.F.);
#694=ORIENTED_EDGE('',*,*,#501,.F.);
#695=ORIENTED_EDGE('',*,*,#498,.F.);
#696=ORIENTED_EDGE('',*,*,#493,.F.);
#697=ORIENTED_EDGE('',*,*,#522,.F.);
#698=ORIENTED_EDGE('',*,*,#523,.F.);
#699=ORIENTED_EDGE('',*,*,#524,.F.);
#700=ORIENTED_EDGE('',*,*,#525,.T.);
#701=ORIENTED_EDGE('',*,*,#526,.T.);
#702=ORIENTED_EDGE('',*,*,#527,.T.);
#703=ORIENTED_EDGE('',*,*,#528,.T.);
#704=ORIENTED_EDGE('',*,*,#529,.T.);
#705=ORIENTED_EDGE('',*,*,#530,.T.);
#706=ORIENTED_EDGE('',*,*,#531,.T.);
#707=ORIENTED_EDGE('',*,*,#528,.F.);
#708=ORIENTED_EDGE('',*,*,#481,.T.);
#709=ORIENTED_EDGE('',*,*,#532,.T.);
#710=ORIENTED_EDGE('',*,*,#533,.T.);
#711=ORIENTED_EDGE('',*,*,#530,.F.);
#712=ORIENTED_EDGE('',*,*,#484,.T.);
#713=ORIENTED_EDGE('',*,*,#534,.T.);
#714=ORIENTED_EDGE('',*,*,#535,.T.);
#715=ORIENTED_EDGE('',*,*,#532,.F.);
#716=ORIENTED_EDGE('',*,*,#486,.T.);
#717=ORIENTED_EDGE('',*,*,#536,.T.);
#718=ORIENTED_EDGE('',*,*,#537,.T.);
#719=ORIENTED_EDGE('',*,*,#534,.F.);
#720=ORIENTED_EDGE('',*,*,#538,.T.);
#721=ORIENTED_EDGE('',*,*,#539,.T.);
#722=ORIENTED_EDGE('',*,*,#540,.T.);
#723=ORIENTED_EDGE('',*,*,#536,.F.);
#724=ORIENTED_EDGE('',*,*,#541,.T.);
#725=ORIENTED_EDGE('',*,*,#542,.T.);
#726=ORIENTED_EDGE('',*,*,#543,.T.);
#727=ORIENTED_EDGE('',*,*,#539,.F.);
#728=ORIENTED_EDGE('',*,*,#544,.T.);
#729=ORIENTED_EDGE('',*,*,#526,.F.);
#730=ORIENTED_EDGE('',*,*,#545,.T.);
#731=ORIENTED_EDGE('',*,*,#542,.F.);
#732=ORIENTED_EDGE('',*,*,#546,.T.);
#733=ORIENTED_EDGE('',*,*,#461,.F.);
#734=ORIENTED_EDGE('',*,*,#482,.F.);
#735=ORIENTED_EDGE('',*,*,#527,.F.);
#736=ORIENTED_EDGE('',*,*,#547,.F.);
#737=ORIENTED_EDGE('',*,*,#529,.F.);
#738=ORIENTED_EDGE('',*,*,#531,.F.);
#739=ORIENTED_EDGE('',*,*,#533,.F.);
#740=ORIENTED_EDGE('',*,*,#535,.F.);
#741=ORIENTED_EDGE('',*,*,#537,.F.);
#742=ORIENTED_EDGE('',*,*,#540,.F.);
#743=ORIENTED_EDGE('',*,*,#543,.F.);
#744=ORIENTED_EDGE('',*,*,#545,.F.);
#745=ORIENTED_EDGE('',*,*,#548,.T.);
#746=ORIENTED_EDGE('',*,*,#549,.T.);
#747=ORIENTED_EDGE('',*,*,#550,.T.);
#748=ORIENTED_EDGE('',*,*,#551,.T.);
#749=ORIENTED_EDGE('',*,*,#552,.T.);
#750=ORIENTED_EDGE('',*,*,#553,.T.);
#751=ORIENTED_EDGE('',*,*,#550,.F.);
#752=ORIENTED_EDGE('',*,*,#554,.T.);
#753=ORIENTED_EDGE('',*,*,#555,.T.);
#754=ORIENTED_EDGE('',*,*,#556,.T.);
#755=ORIENTED_EDGE('',*,*,#552,.F.);
#756=ORIENTED_EDGE('',*,*,#557,.T.);
#757=ORIENTED_EDGE('',*,*,#558,.T.);
#758=ORIENTED_EDGE('',*,*,#559,.T.);
#759=ORIENTED_EDGE('',*,*,#555,.F.);
#760=ORIENTED_EDGE('',*,*,#560,.T.);
#761=ORIENTED_EDGE('',*,*,#561,.T.);
#762=ORIENTED_EDGE('',*,*,#562,.T.);
#763=ORIENTED_EDGE('',*,*,#558,.F.);
#764=ORIENTED_EDGE('',*,*,#563,.T.);
#765=ORIENTED_EDGE('',*,*,#564,.T.);
#766=ORIENTED_EDGE('',*,*,#565,.T.);
#767=ORIENTED_EDGE('',*,*,#561,.F.);
#768=ORIENTED_EDGE('',*,*,#566,.T.);
#769=ORIENTED_EDGE('',*,*,#567,.T.);
#770=ORIENTED_EDGE('',*,*,#568,.T.);
#771=ORIENTED_EDGE('',*,*,#564,.F.);
#772=ORIENTED_EDGE('',*,*,#569,.T.);
#773=ORIENTED_EDGE('',*,*,#567,.F.);
#774=ORIENTED_EDGE('',*,*,#570,.T.);
#775=ORIENTED_EDGE('',*,*,#548,.F.);
#776=ORIENTED_EDGE('',*,*,#571,.T.);
#777=ORIENTED_EDGE('',*,*,#519,.F.);
#778=ORIENTED_EDGE('',*,*,#572,.F.);
#779=ORIENTED_EDGE('',*,*,#565,.F.);
#780=ORIENTED_EDGE('',*,*,#573,.F.);
#781=ORIENTED_EDGE('',*,*,#517,.F.);
#782=ORIENTED_EDGE('',*,*,#573,.T.);
#783=ORIENTED_EDGE('',*,*,#568,.F.);
#784=ORIENTED_EDGE('',*,*,#574,.T.);
#785=ORIENTED_EDGE('',*,*,#512,.F.);
#786=ORIENTED_EDGE('',*,*,#472,.F.);
#787=ORIENTED_EDGE('',*,*,#491,.T.);
#788=ORIENTED_EDGE('',*,*,#575,.F.);
#789=ORIENTED_EDGE('',*,*,#520,.T.);
#790=ORIENTED_EDGE('',*,*,#513,.F.);
#791=ORIENTED_EDGE('',*,*,#574,.F.);
#792=ORIENTED_EDGE('',*,*,#571,.F.);
#793=ORIENTED_EDGE('',*,*,#576,.F.);
#794=ORIENTED_EDGE('',*,*,#505,.F.);
#795=ORIENTED_EDGE('',*,*,#525,.F.);
#796=ORIENTED_EDGE('',*,*,#577,.F.);
#797=ORIENTED_EDGE('',*,*,#487,.T.);
#798=ORIENTED_EDGE('',*,*,#475,.F.);
#799=ORIENTED_EDGE('',*,*,#478,.F.);
#800=ORIENTED_EDGE('',*,*,#506,.F.);
#801=ORIENTED_EDGE('',*,*,#576,.T.);
#802=ORIENTED_EDGE('',*,*,#551,.F.);
#803=ORIENTED_EDGE('',*,*,#578,.T.);
#804=ORIENTED_EDGE('',*,*,#549,.F.);
#805=ORIENTED_EDGE('',*,*,#570,.F.);
#806=ORIENTED_EDGE('',*,*,#569,.F.);
#807=ORIENTED_EDGE('',*,*,#566,.F.);
#808=ORIENTED_EDGE('',*,*,#563,.F.);
#809=ORIENTED_EDGE('',*,*,#560,.F.);
#810=ORIENTED_EDGE('',*,*,#557,.F.);
#811=ORIENTED_EDGE('',*,*,#554,.F.);
#812=ORIENTED_EDGE('',*,*,#471,.F.);
#813=ORIENTED_EDGE('',*,*,#579,.F.);
#814=ORIENTED_EDGE('',*,*,#538,.F.);
#815=ORIENTED_EDGE('',*,*,#485,.F.);
#816=ORIENTED_EDGE('',*,*,#458,.F.);
#817=ORIENTED_EDGE('',*,*,#547,.T.);
#818=ORIENTED_EDGE('',*,*,#546,.F.);
#819=ORIENTED_EDGE('',*,*,#580,.T.);
#820=ORIENTED_EDGE('',*,*,#455,.F.);
#821=ORIENTED_EDGE('',*,*,#580,.F.);
#822=ORIENTED_EDGE('',*,*,#544,.F.);
#823=ORIENTED_EDGE('',*,*,#581,.F.);
#824=ORIENTED_EDGE('',*,*,#453,.F.);
#825=ORIENTED_EDGE('',*,*,#581,.T.);
#826=ORIENTED_EDGE('',*,*,#541,.F.);
#827=ORIENTED_EDGE('',*,*,#579,.T.);
#828=ORIENTED_EDGE('',*,*,#495,.F.);
#829=ORIENTED_EDGE('',*,*,#582,.T.);
#830=ORIENTED_EDGE('',*,*,#562,.F.);
#831=ORIENTED_EDGE('',*,*,#572,.T.);
#832=ORIENTED_EDGE('',*,*,#509,.F.);
#833=ORIENTED_EDGE('',*,*,#497,.F.);
#834=ORIENTED_EDGE('',*,*,#583,.F.);
#835=ORIENTED_EDGE('',*,*,#559,.F.);
#836=ORIENTED_EDGE('',*,*,#582,.F.);
#837=ORIENTED_EDGE('',*,*,#500,.F.);
#838=ORIENTED_EDGE('',*,*,#584,.T.);
#839=ORIENTED_EDGE('',*,*,#556,.F.);
#840=ORIENTED_EDGE('',*,*,#583,.T.);
#841=ORIENTED_EDGE('',*,*,#522,.T.);
#842=ORIENTED_EDGE('',*,*,#508,.F.);
#843=ORIENTED_EDGE('',*,*,#518,.F.);
#844=ORIENTED_EDGE('',*,*,#515,.F.);
#845=ORIENTED_EDGE('',*,*,#521,.T.);
#846=ORIENTED_EDGE('',*,*,#575,.T.);
#847=ORIENTED_EDGE('',*,*,#490,.T.);
#848=ORIENTED_EDGE('',*,*,#585,.T.);
#849=ORIENTED_EDGE('',*,*,#503,.F.);
#850=ORIENTED_EDGE('',*,*,#578,.F.);
#851=ORIENTED_EDGE('',*,*,#553,.F.);
#852=ORIENTED_EDGE('',*,*,#584,.F.);
#853=ORIENTED_EDGE('',*,*,#586,.T.);
#854=ORIENTED_EDGE('',*,*,#488,.T.);
#855=ORIENTED_EDGE('',*,*,#577,.T.);
#856=ORIENTED_EDGE('',*,*,#524,.T.);
#857=ORIENTED_EDGE('',*,*,#523,.T.);
#858=ORIENTED_EDGE('',*,*,#585,.F.);
#859=ORIENTED_EDGE('',*,*,#489,.T.);
#860=ORIENTED_EDGE('',*,*,#586,.F.);
#861=TOROIDAL_SURFACE('',#942,3.033,0.8);
#862=TOROIDAL_SURFACE('',#949,3.033,0.8);
#863=TOROIDAL_SURFACE('',#955,3.033,0.8);
#864=TOROIDAL_SURFACE('',#959,3.033,0.8);
#865=TOROIDAL_SURFACE('',#965,3.033,0.8);
#866=TOROIDAL_SURFACE('',#968,3.033,0.8);
#867=TOROIDAL_SURFACE('',#978,3.033,0.8);
#868=TOROIDAL_SURFACE('',#985,3.033,0.8);
#869=TOROIDAL_SURFACE('',#991,3.033,0.8);
#870=TOROIDAL_SURFACE('',#994,3.033,0.8);
#871=TOROIDAL_SURFACE('',#997,3.033,0.8);
#872=TOROIDAL_SURFACE('',#1001,3.033,0.8);
#873=TOROIDAL_SURFACE('',#1010,1.233,1.);
#874=TOROIDAL_SURFACE('',#1015,1.233,1.);
#875=TOROIDAL_SURFACE('',#1020,1.233,1.);
#876=TOROIDAL_SURFACE('',#1026,1.233,1.);
#877=TOROIDAL_SURFACE('',#1031,1.233,1.);
#878=TOROIDAL_SURFACE('',#1038,1.233,1.);
#879=TOROIDAL_SURFACE('',#1044,1.233,1.);
#880=TOROIDAL_SURFACE('',#1050,1.233,1.);
#881=ADVANCED_FACE('',(#182),#861,.T.);
#882=ADVANCED_FACE('',(#183),#159,.T.);
#883=ADVANCED_FACE('',(#184),#862,.T.);
#884=ADVANCED_FACE('',(#185),#160,.T.);
#885=ADVANCED_FACE('',(#186),#863,.T.);
#886=ADVANCED_FACE('',(#187),#864,.T.);
#887=ADVANCED_FACE('',(#188),#161,.T.);
#888=ADVANCED_FACE('',(#189),#865,.T.);
#889=ADVANCED_FACE('',(#190),#866,.T.);
#890=ADVANCED_FACE('',(#191),#162,.T.);
#891=ADVANCED_FACE('',(#192),#163,.F.);
#892=ADVANCED_FACE('',(#193),#15,.F.);
#893=ADVANCED_FACE('',(#194),#164,.F.);
#894=ADVANCED_FACE('',(#195),#16,.T.);
#895=ADVANCED_FACE('',(#196),#867,.F.);
#896=ADVANCED_FACE('',(#197),#165,.F.);
#897=ADVANCED_FACE('',(#198),#868,.F.);
#898=ADVANCED_FACE('',(#199),#166,.F.);
#899=ADVANCED_FACE('',(#200),#869,.F.);
#900=ADVANCED_FACE('',(#201),#870,.F.);
#901=ADVANCED_FACE('',(#202),#871,.F.);
#902=ADVANCED_FACE('',(#203),#872,.F.);
#903=ADVANCED_FACE('',(#204),#167,.F.);
#904=ADVANCED_FACE('',(#205),#17,.T.);
#905=ADVANCED_FACE('',(#206),#18,.T.);
#906=ADVANCED_FACE('',(#207),#168,.F.);
#907=ADVANCED_FACE('',(#208),#873,.F.);
#908=ADVANCED_FACE('',(#209),#169,.F.);
#909=ADVANCED_FACE('',(#210),#874,.F.);
#910=ADVANCED_FACE('',(#211),#170,.F.);
#911=ADVANCED_FACE('',(#212),#875,.F.);
#912=ADVANCED_FACE('',(#213),#171,.F.);
#913=ADVANCED_FACE('',(#214),#876,.F.);
#914=ADVANCED_FACE('',(#215),#19,.F.);
#915=ADVANCED_FACE('',(#216),#20,.F.);
#916=ADVANCED_FACE('',(#217),#877,.T.);
#917=ADVANCED_FACE('',(#218),#172,.T.);
#918=ADVANCED_FACE('',(#219),#878,.T.);
#919=ADVANCED_FACE('',(#220),#173,.T.);
#920=ADVANCED_FACE('',(#221),#879,.T.);
#921=ADVANCED_FACE('',(#222),#174,.T.);
#922=ADVANCED_FACE('',(#223),#880,.T.);
#923=ADVANCED_FACE('',(#224),#175,.T.);
#924=ADVANCED_FACE('',(#225),#21,.T.);
#925=ADVANCED_FACE('',(#226),#176,.T.);
#926=ADVANCED_FACE('',(#227),#22,.T.);
#927=ADVANCED_FACE('',(#228),#177,.T.);
#928=ADVANCED_FACE('',(#229),#23,.T.);
#929=ADVANCED_FACE('',(#230),#24,.F.);
#930=ADVANCED_FACE('',(#231),#178,.F.);
#931=ADVANCED_FACE('',(#232),#25,.F.);
#932=ADVANCED_FACE('',(#233),#179,.F.);
#933=ADVANCED_FACE('',(#234),#180,.T.);
#934=ADVANCED_FACE('',(#235),#26,.T.);
#935=ADVANCED_FACE('',(#236),#181,.T.);
#936=ADVANCED_FACE('',(#237),#27,.T.);
#937=ADVANCED_FACE('',(#238),#28,.T.);
#938=ADVANCED_FACE('',(#239),#29,.T.);
#939=ADVANCED_FACE('',(#240),#30,.T.);
#940=CLOSED_SHELL('',(#881,#882,#883,#884,#885,#886,#887,#888,#889,#890,
#891,#892,#893,#894,#895,#896,#897,#898,#899,#900,#901,#902,#903,#904,#905,
#906,#907,#908,#909,#910,#911,#912,#913,#914,#915,#916,#917,#918,#919,#920,
#921,#922,#923,#924,#925,#926,#927,#928,#929,#930,#931,#932,#933,#934,#935,
#936,#937,#938,#939));
#941=AXIS2_PLACEMENT_3D('',#1392,#1071,#1072);
#942=AXIS2_PLACEMENT_3D('',#1393,#1073,#1074);
#943=AXIS2_PLACEMENT_3D('',#1396,#1075,#1076);
#944=AXIS2_PLACEMENT_3D('',#1398,#1077,#1078);
#945=AXIS2_PLACEMENT_3D('',#1400,#1079,#1080);
#946=AXIS2_PLACEMENT_3D('',#1401,#1081,#1082);
#947=AXIS2_PLACEMENT_3D('',#1402,#1083,#1084);
#948=AXIS2_PLACEMENT_3D('',#1405,#1085,#1086);
#949=AXIS2_PLACEMENT_3D('',#1408,#1089,#1090);
#950=AXIS2_PLACEMENT_3D('',#1411,#1091,#1092);
#951=AXIS2_PLACEMENT_3D('',#1412,#1093,#1094);
#952=AXIS2_PLACEMENT_3D('',#1413,#1095,#1096);
#953=AXIS2_PLACEMENT_3D('',#1414,#1097,#1098);
#954=AXIS2_PLACEMENT_3D('',#1417,#1099,#1100);
#955=AXIS2_PLACEMENT_3D('',#1420,#1103,#1104);
#956=AXIS2_PLACEMENT_3D('',#1423,#1105,#1106);
#957=AXIS2_PLACEMENT_3D('',#1424,#1107,#1108);
#958=AXIS2_PLACEMENT_3D('',#1425,#1109,#1110);
#959=AXIS2_PLACEMENT_3D('',#1426,#1111,#1112);
#960=AXIS2_PLACEMENT_3D('',#1429,#1113,#1114);
#961=AXIS2_PLACEMENT_3D('',#1431,#1115,#1116);
#962=AXIS2_PLACEMENT_3D('',#1433,#1117,#1118);
#963=AXIS2_PLACEMENT_3D('',#1434,#1119,#1120);
#964=AXIS2_PLACEMENT_3D('',#1435,#1121,#1122);
#965=AXIS2_PLACEMENT_3D('',#1438,#1125,#1126);
#966=AXIS2_PLACEMENT_3D('',#1447,#1127,#1128);
#967=AXIS2_PLACEMENT_3D('',#1448,#1129,#1130);
#968=AXIS2_PLACEMENT_3D('',#1449,#1131,#1132);
#969=AXIS2_PLACEMENT_3D('',#1458,#1133,#1134);
#970=AXIS2_PLACEMENT_3D('',#1459,#1135,#1136);
#971=AXIS2_PLACEMENT_3D('',#1460,#1137,#1138);
#972=AXIS2_PLACEMENT_3D('',#1463,#1141,#1142);
#973=AXIS2_PLACEMENT_3D('',#1467,#1144,#1145);
#974=AXIS2_PLACEMENT_3D('',#1469,#1147,#1148);
#975=AXIS2_PLACEMENT_3D('',#1473,#1151,#1152);
#976=AXIS2_PLACEMENT_3D('',#1476,#1154,#1155);
#977=AXIS2_PLACEMENT_3D('',#1477,#1156,#1157);
#978=AXIS2_PLACEMENT_3D('',#1487,#1163,#1164);
#979=AXIS2_PLACEMENT_3D('',#1490,#1165,#1166);
#980=AXIS2_PLACEMENT_3D('',#1492,#1167,#1168);
#981=AXIS2_PLACEMENT_3D('',#1494,#1169,#1170);
#982=AXIS2_PLACEMENT_3D('',#1495,#1171,#1172);
#983=AXIS2_PLACEMENT_3D('',#1496,#1173,#1174);
#984=AXIS2_PLACEMENT_3D('',#1499,#1175,#1176);
#985=AXIS2_PLACEMENT_3D('',#1502,#1179,#1180);
#986=AXIS2_PLACEMENT_3D('',#1505,#1181,#1182);
#987=AXIS2_PLACEMENT_3D('',#1506,#1183,#1184);
#988=AXIS2_PLACEMENT_3D('',#1507,#1185,#1186);
#989=AXIS2_PLACEMENT_3D('',#1508,#1187,#1188);
#990=AXIS2_PLACEMENT_3D('',#1511,#1189,#1190);
#991=AXIS2_PLACEMENT_3D('',#1514,#1193,#1194);
#992=AXIS2_PLACEMENT_3D('',#1523,#1195,#1196);
#993=AXIS2_PLACEMENT_3D('',#1524,#1197,#1198);
#994=AXIS2_PLACEMENT_3D('',#1525,#1199,#1200);
#995=AXIS2_PLACEMENT_3D('',#1534,#1201,#1202);
#996=AXIS2_PLACEMENT_3D('',#1535,#1203,#1204);
#997=AXIS2_PLACEMENT_3D('',#1536,#1205,#1206);
#998=AXIS2_PLACEMENT_3D('',#1539,#1207,#1208);
#999=AXIS2_PLACEMENT_3D('',#1541,#1209,#1210);
#1000=AXIS2_PLACEMENT_3D('',#1549,#1211,#1212);
#1001=AXIS2_PLACEMENT_3D('',#1550,#1213,#1214);
#1002=AXIS2_PLACEMENT_3D('',#1559,#1215,#1216);
#1003=AXIS2_PLACEMENT_3D('',#1560,#1217,#1218);
#1004=AXIS2_PLACEMENT_3D('',#1561,#1219,#1220);
#1005=AXIS2_PLACEMENT_3D('',#1564,#1223,#1224);
#1006=AXIS2_PLACEMENT_3D('',#1568,#1227,#1228);
#1007=AXIS2_PLACEMENT_3D('',#1576,#1233,#1234);
#1008=AXIS2_PLACEMENT_3D('',#1579,#1235,#1236);
#1009=AXIS2_PLACEMENT_3D('',#1582,#1238,#1239);
#1010=AXIS2_PLACEMENT_3D('',#1584,#1241,#1242);
#1011=AXIS2_PLACEMENT_3D('',#1586,#1243,#1244);
#1012=AXIS2_PLACEMENT_3D('',#1587,#1245,#1246);
#1013=AXIS2_PLACEMENT_3D('',#1588,#1247,#1248);
#1014=AXIS2_PLACEMENT_3D('',#1590,#1249,#1250);
#1015=AXIS2_PLACEMENT_3D('',#1592,#1252,#1253);
#1016=AXIS2_PLACEMENT_3D('',#1594,#1254,#1255);
#1017=AXIS2_PLACEMENT_3D('',#1595,#1256,#1257);
#1018=AXIS2_PLACEMENT_3D('',#1596,#1258,#1259);
#1019=AXIS2_PLACEMENT_3D('',#1599,#1260,#1261);
#1020=AXIS2_PLACEMENT_3D('',#1602,#1264,#1265);
#1021=AXIS2_PLACEMENT_3D('',#1605,#1266,#1267);
#1022=AXIS2_PLACEMENT_3D('',#1606,#1268,#1269);
#1023=AXIS2_PLACEMENT_3D('',#1607,#1270,#1271);
#1024=AXIS2_PLACEMENT_3D('',#1608,#1272,#1273);
#1025=AXIS2_PLACEMENT_3D('',#1611,#1274,#1275);
#1026=AXIS2_PLACEMENT_3D('',#1614,#1278,#1279);
#1027=AXIS2_PLACEMENT_3D('',#1615,#1280,#1281);
#1028=AXIS2_PLACEMENT_3D('',#1616,#1282,#1283);
#1029=AXIS2_PLACEMENT_3D('',#1617,#1284,#1285);
#1030=AXIS2_PLACEMENT_3D('',#1619,#1287,#1288);
#1031=AXIS2_PLACEMENT_3D('',#1620,#1289,#1290);
#1032=AXIS2_PLACEMENT_3D('',#1623,#1291,#1292);
#1033=AXIS2_PLACEMENT_3D('',#1625,#1293,#1294);
#1034=AXIS2_PLACEMENT_3D('',#1627,#1295,#1296);
#1035=AXIS2_PLACEMENT_3D('',#1628,#1297,#1298);
#1036=AXIS2_PLACEMENT_3D('',#1629,#1299,#1300);
#1037=AXIS2_PLACEMENT_3D('',#1632,#1301,#1302);
#1038=AXIS2_PLACEMENT_3D('',#1635,#1305,#1306);
#1039=AXIS2_PLACEMENT_3D('',#1638,#1307,#1308);
#1040=AXIS2_PLACEMENT_3D('',#1639,#1309,#1310);
#1041=AXIS2_PLACEMENT_3D('',#1640,#1311,#1312);
#1042=AXIS2_PLACEMENT_3D('',#1641,#1313,#1314);
#1043=AXIS2_PLACEMENT_3D('',#1644,#1315,#1316);
#1044=AXIS2_PLACEMENT_3D('',#1647,#1319,#1320);
#1045=AXIS2_PLACEMENT_3D('',#1650,#1321,#1322);
#1046=AXIS2_PLACEMENT_3D('',#1651,#1323,#1324);
#1047=AXIS2_PLACEMENT_3D('',#1652,#1325,#1326);
#1048=AXIS2_PLACEMENT_3D('',#1653,#1327,#1328);
#1049=AXIS2_PLACEMENT_3D('',#1656,#1329,#1330);
#1050=AXIS2_PLACEMENT_3D('',#1659,#1333,#1334);
#1051=AXIS2_PLACEMENT_3D('',#1662,#1335,#1336);
#1052=AXIS2_PLACEMENT_3D('',#1663,#1337,#1338);
#1053=AXIS2_PLACEMENT_3D('',#1664,#1339,#1340);
#1054=AXIS2_PLACEMENT_3D('',#1665,#1341,#1342);
#1055=AXIS2_PLACEMENT_3D('',#1668,#1345,#1346);
#1056=AXIS2_PLACEMENT_3D('',#1671,#1349,#1350);
#1057=AXIS2_PLACEMENT_3D('',#1673,#1352,#1353);
#1058=AXIS2_PLACEMENT_3D('',#1677,#1357,#1358);
#1059=AXIS2_PLACEMENT_3D('',#1679,#1360,#1361);
#1060=AXIS2_PLACEMENT_3D('',#1680,#1362,#1363);
#1061=AXIS2_PLACEMENT_3D('',#1682,#1365,#1366);
#1062=AXIS2_PLACEMENT_3D('',#1684,#1368,#1369);
#1063=AXIS2_PLACEMENT_3D('',#1686,#1371,#1372);
#1064=AXIS2_PLACEMENT_3D('',#1687,#1373,#1374);
#1065=AXIS2_PLACEMENT_3D('',#1689,#1376,#1377);
#1066=AXIS2_PLACEMENT_3D('',#1691,#1379,#1380);
#1067=AXIS2_PLACEMENT_3D('',#1693,#1382,#1383);
#1068=AXIS2_PLACEMENT_3D('',#1695,#1385,#1386);
#1069=AXIS2_PLACEMENT_3D('',#1696,#1387,#1388);
#1070=AXIS2_PLACEMENT_3D('',#1698,#1390,#1391);
#1071=DIRECTION('axis',(0.,0.,1.));
#1072=DIRECTION('refdir',(1.,0.,0.));
#1073=DIRECTION('center_axis',(0.,1.,0.));
#1074=DIRECTION('ref_axis',(0.,0.,1.));
#1075=DIRECTION('center_axis',(1.,0.,0.));
#1076=DIRECTION('ref_axis',(0.,0.,-1.));
#1077=DIRECTION('center_axis',(0.,1.,0.));
#1078=DIRECTION('ref_axis',(0.707106781186548,0.,0.707106781186547));
#1079=DIRECTION('center_axis',(0.,0.,1.));
#1080=DIRECTION('ref_axis',(0.,1.,0.));
#1081=DIRECTION('center_axis',(0.,-1.,0.));
#1082=DIRECTION('ref_axis',(0.707106781186548,0.,0.707106781186547));
#1083=DIRECTION('center_axis',(0.,0.,1.));
#1084=DIRECTION('ref_axis',(-0.707106781186548,0.707106781186548,0.));
#1085=DIRECTION('center_axis',(0.,0.,1.));
#1086=DIRECTION('ref_axis',(0.,1.,0.));
#1087=DIRECTION('',(0.,0.,1.));
#1088=DIRECTION('',(0.,0.,-1.));
#1089=DIRECTION('center_axis',(0.,1.,0.));
#1090=DIRECTION('ref_axis',(0.,0.,1.));
#1091=DIRECTION('center_axis',(1.,0.,0.));
#1092=DIRECTION('ref_axis',(0.,1.,0.));
#1093=DIRECTION('center_axis',(0.,-1.,0.));
#1094=DIRECTION('ref_axis',(0.707106781186548,0.,-0.707106781186547));
#1095=DIRECTION('center_axis',(0.,1.,0.));
#1096=DIRECTION('ref_axis',(0.707106781186548,0.,-0.707106781186547));
#1097=DIRECTION('center_axis',(1.,0.,0.));
#1098=DIRECTION('ref_axis',(0.,0.70710678118654,0.707106781186555));
#1099=DIRECTION('center_axis',(1.,0.,0.));
#1100=DIRECTION('ref_axis',(0.,1.,0.));
#1101=DIRECTION('',(1.,0.,0.));
#1102=DIRECTION('',(-1.,0.,0.));
#1103=DIRECTION('center_axis',(0.,1.,0.));
#1104=DIRECTION('ref_axis',(0.,0.,1.));
#1105=DIRECTION('center_axis',(0.254946601664451,1.34191981630913E-15,-0.966955133550543));
#1106=DIRECTION('ref_axis',(0.,1.,1.38777878078144E-15));
#1107=DIRECTION('center_axis',(0.,-1.,0.));
#1108=DIRECTION('ref_axis',(-0.707106781186544,0.,-0.707106781186551));
#1109=DIRECTION('center_axis',(0.,1.,0.));
#1110=DIRECTION('ref_axis',(-0.707106781186544,0.,-0.707106781186551));
#1111=DIRECTION('center_axis',(0.,1.,0.));
#1112=DIRECTION('ref_axis',(0.,0.,1.));
#1113=DIRECTION('center_axis',(0.254946601664408,0.,0.966955133550554));
#1114=DIRECTION('ref_axis',(0.966955133550554,0.,-0.254946601664408));
#1115=DIRECTION('center_axis',(0.,1.,0.));
#1116=DIRECTION('ref_axis',(-0.707106781186548,0.,0.707106781186547));
#1117=DIRECTION('center_axis',(-1.,0.,0.));
#1118=DIRECTION('ref_axis',(0.,1.,0.));
#1119=DIRECTION('center_axis',(0.,-1.,0.));
#1120=DIRECTION('ref_axis',(-0.707106781186548,0.,0.707106781186547));
#1121=DIRECTION('center_axis',(-1.,0.,0.));
#1122=DIRECTION('ref_axis',(0.,0.70710678118654,-0.707106781186555));
#1123=DIRECTION('',(1.,0.,0.));
#1124=DIRECTION('',(-1.,0.,0.));
#1125=DIRECTION('center_axis',(0.,1.,0.));
#1126=DIRECTION('ref_axis',(0.,0.,1.));
#1127=DIRECTION('center_axis',(0.,0.,-1.));
#1128=DIRECTION('ref_axis',(0.,1.,0.));
#1129=DIRECTION('center_axis',(0.,-1.,0.));
#1130=DIRECTION('ref_axis',(-1.,0.,0.));
#1131=DIRECTION('center_axis',(0.,1.,0.));
#1132=DIRECTION('ref_axis',(0.,0.,1.));
#1133=DIRECTION('center_axis',(0.,-1.,0.));
#1134=DIRECTION('ref_axis',(-1.,0.,0.));
#1135=DIRECTION('center_axis',(0.,0.,1.));
#1136=DIRECTION('ref_axis',(1.,0.,0.));
#1137=DIRECTION('center_axis',(0.,0.,-1.));
#1138=DIRECTION('ref_axis',(0.707106781186563,0.707106781186532,0.));
#1139=DIRECTION('',(0.,0.,1.));
#1140=DIRECTION('',(0.,0.,-1.));
#1141=DIRECTION('center_axis',(0.,1.,0.));
#1142=DIRECTION('ref_axis',(-0.707106781186545,0.,-0.70710678118655));
#1143=DIRECTION('',(0.,-1.,0.));
#1144=DIRECTION('center_axis',(0.,1.,0.));
#1145=DIRECTION('ref_axis',(-0.707106781186544,0.,-0.707106781186551));
#1146=DIRECTION('',(0.,1.,0.));
#1147=DIRECTION('center_axis',(-1.,0.,0.));
#1148=DIRECTION('ref_axis',(0.,0.,1.));
#1149=DIRECTION('',(0.,1.,0.));
#1150=DIRECTION('',(0.,0.,1.));
#1151=DIRECTION('center_axis',(0.,-1.,0.));
#1152=DIRECTION('ref_axis',(-0.70710678118655,0.,0.707106781186545));
#1153=DIRECTION('',(0.,-1.,0.));
#1154=DIRECTION('center_axis',(0.,1.,0.));
#1155=DIRECTION('ref_axis',(-0.707106781186548,0.,0.707106781186547));
#1156=DIRECTION('center_axis',(0.,1.,0.));
#1157=DIRECTION('ref_axis',(1.,0.,0.));
#1158=DIRECTION('',(0.,0.,-1.));
#1159=DIRECTION('',(-1.,0.,0.));
#1160=DIRECTION('',(0.,0.,1.));
#1161=DIRECTION('',(1.,0.,0.));
#1162=DIRECTION('',(0.,0.,-1.));
#1163=DIRECTION('center_axis',(0.,-1.,0.));
#1164=DIRECTION('ref_axis',(0.,0.,-1.));
#1165=DIRECTION('center_axis',(-0.81866139136168,-3.63558690424561E-14,
-0.574276524240508));
#1166=DIRECTION('ref_axis',(-0.574276524240508,0.,0.81866139136168));
#1167=DIRECTION('center_axis',(0.,-1.,0.));
#1168=DIRECTION('ref_axis',(0.707106781186548,0.,-0.707106781186547));
#1169=DIRECTION('center_axis',(0.,0.,1.));
#1170=DIRECTION('ref_axis',(0.,1.,0.));
#1171=DIRECTION('center_axis',(0.,1.,0.));
#1172=DIRECTION('ref_axis',(0.707106781186548,0.,-0.707106781186547));
#1173=DIRECTION('center_axis',(0.,0.,-1.));
#1174=DIRECTION('ref_axis',(-0.707106781186548,0.707106781186548,0.));
#1175=DIRECTION('center_axis',(0.,0.,1.));
#1176=DIRECTION('ref_axis',(0.,1.,0.));
#1177=DIRECTION('',(0.,0.,-1.));
#1178=DIRECTION('',(0.,0.,1.));
#1179=DIRECTION('center_axis',(0.,-1.,0.));
#1180=DIRECTION('ref_axis',(0.,0.,-1.));
#1181=DIRECTION('center_axis',(-1.,0.,0.));
#1182=DIRECTION('ref_axis',(0.,1.,0.));
#1183=DIRECTION('center_axis',(0.,1.,0.));
#1184=DIRECTION('ref_axis',(0.707106781186549,0.,0.707106781186547));
#1185=DIRECTION('center_axis',(0.,-1.,0.));
#1186=DIRECTION('ref_axis',(0.707106781186549,0.,0.707106781186546));
#1187=DIRECTION('center_axis',(1.,0.,4.37960439974589E-17));
#1188=DIRECTION('ref_axis',(0.,0.70710678118654,-0.707106781186555));
#1189=DIRECTION('center_axis',(-1.,0.,0.));
#1190=DIRECTION('ref_axis',(0.,1.,0.));
#1191=DIRECTION('',(1.,0.,4.37960439974589E-17));
#1192=DIRECTION('',(-1.,0.,-4.37960439974589E-17));
#1193=DIRECTION('center_axis',(0.,-1.,0.));
#1194=DIRECTION('ref_axis',(0.,0.,-1.));
#1195=DIRECTION('center_axis',(0.,1.,0.));
#1196=DIRECTION('ref_axis',(-0.707106781186548,0.,0.707106781186547));
#1197=DIRECTION('center_axis',(0.,-1.,0.));
#1198=DIRECTION('ref_axis',(-0.707106781186548,0.,0.707106781186547));
#1199=DIRECTION('center_axis',(0.,-1.,0.));
#1200=DIRECTION('ref_axis',(0.,0.,-1.));
#1201=DIRECTION('center_axis',(0.,1.,0.));
#1202=DIRECTION('ref_axis',(0.,0.,-1.));
#1203=DIRECTION('center_axis',(-1.,0.,0.));
#1204=DIRECTION('ref_axis',(0.,0.,1.));
#1205=DIRECTION('center_axis',(0.,-1.,0.));
#1206=DIRECTION('ref_axis',(0.,0.,-1.));
#1207=DIRECTION('center_axis',(0.81866139136169,0.,-0.574276524240493));
#1208=DIRECTION('ref_axis',(0.,1.,0.));
#1209=DIRECTION('center_axis',(0.,1.,0.));
#1210=DIRECTION('ref_axis',(-0.707106781186548,0.,-0.707106781186547));
#1211=DIRECTION('center_axis',(0.,-1.,0.));
#1212=DIRECTION('ref_axis',(-0.707106781186548,0.,-0.707106781186547));
#1213=DIRECTION('center_axis',(0.,-1.,0.));
#1214=DIRECTION('ref_axis',(0.,0.,-1.));
#1215=DIRECTION('center_axis',(1.,0.,0.));
#1216=DIRECTION('ref_axis',(0.,1.,0.));
#1217=DIRECTION('center_axis',(0.,1.,0.));
#1218=DIRECTION('ref_axis',(0.,0.,-1.));
#1219=DIRECTION('center_axis',(-1.,0.,0.));
#1220=DIRECTION('ref_axis',(0.,0.70710678118654,0.707106781186555));
#1221=DIRECTION('',(1.,0.,0.));
#1222=DIRECTION('',(-1.,0.,0.));
#1223=DIRECTION('center_axis',(0.,-1.,0.));
#1224=DIRECTION('ref_axis',(-1.,0.,0.));
#1225=DIRECTION('',(0.,0.,1.));
#1226=DIRECTION('',(-1.,0.,0.));
#1227=DIRECTION('center_axis',(0.,-1.,0.));
#1228=DIRECTION('ref_axis',(-1.,0.,0.));
#1229=DIRECTION('',(-1.,0.,0.));
#1230=DIRECTION('',(0.,0.,-1.));
#1231=DIRECTION('',(1.,0.,0.));
#1232=DIRECTION('',(0.,0.,-1.));
#1233=DIRECTION('center_axis',(-1.,0.,0.));
#1234=DIRECTION('ref_axis',(0.,-0.707106781186553,-0.707106781186542));
#1235=DIRECTION('center_axis',(1.,0.,0.));
#1236=DIRECTION('ref_axis',(0.,-1.,0.));
#1237=DIRECTION('',(-1.,0.,0.));
#1238=DIRECTION('center_axis',(-1.,0.,0.));
#1239=DIRECTION('ref_axis',(0.,0.,-1.));
#1240=DIRECTION('',(1.,0.,0.));
#1241=DIRECTION('center_axis',(0.,1.,0.));
#1242=DIRECTION('ref_axis',(0.,0.,1.));
#1243=DIRECTION('center_axis',(0.,0.,1.));
#1244=DIRECTION('ref_axis',(-1.,0.,0.));
#1245=DIRECTION('center_axis',(0.,-1.,0.));
#1246=DIRECTION('ref_axis',(-0.707106781186544,0.,-0.707106781186551));
#1247=DIRECTION('center_axis',(0.,0.,1.));
#1248=DIRECTION('ref_axis',(-0.707106781186535,-0.70710678118656,0.));
#1249=DIRECTION('center_axis',(0.,0.,1.));
#1250=DIRECTION('ref_axis',(-1.,0.,0.));
#1251=DIRECTION('',(0.,0.,-1.));
#1252=DIRECTION('center_axis',(0.,1.,0.));
#1253=DIRECTION('ref_axis',(0.,0.,1.));
#1254=DIRECTION('center_axis',(1.,0.,0.));
#1255=DIRECTION('ref_axis',(0.,0.,1.));
#1256=DIRECTION('center_axis',(0.,-1.,0.));
#1257=DIRECTION('ref_axis',(-0.707106781186548,0.,0.707106781186547));
#1258=DIRECTION('center_axis',(1.,0.,0.));
#1259=DIRECTION('ref_axis',(0.,-0.707106781186552,0.707106781186543));
#1260=DIRECTION('center_axis',(1.,0.,0.));
#1261=DIRECTION('ref_axis',(0.,0.,1.));
#1262=DIRECTION('',(-1.,0.,0.));
#1263=DIRECTION('',(1.,0.,0.));
#1264=DIRECTION('center_axis',(0.,1.,0.));
#1265=DIRECTION('ref_axis',(0.,0.,1.));
#1266=DIRECTION('center_axis',(0.,0.,-1.));
#1267=DIRECTION('ref_axis',(1.,0.,0.));
#1268=DIRECTION('center_axis',(0.,-1.,0.));
#1269=DIRECTION('ref_axis',(0.707106781186548,0.,0.707106781186547));
#1270=DIRECTION('center_axis',(0.,1.,0.));
#1271=DIRECTION('ref_axis',(0.707106781186548,0.,0.707106781186547));
#1272=DIRECTION('center_axis',(0.,0.,-1.));
#1273=DIRECTION('ref_axis',(0.707106781186548,-0.707106781186548,0.));
#1274=DIRECTION('center_axis',(-1.11022302462514E-15,0.,-1.));
#1275=DIRECTION('ref_axis',(1.,0.,-1.11022302462514E-15));
#1276=DIRECTION('',(0.,0.,1.));
#1277=DIRECTION('',(0.,0.,-1.));
#1278=DIRECTION('center_axis',(0.,1.,0.));
#1279=DIRECTION('ref_axis',(0.,0.,1.));
#1280=DIRECTION('center_axis',(0.,-1.,0.));
#1281=DIRECTION('ref_axis',(0.707106781186548,0.,-0.707106781186547));
#1282=DIRECTION('center_axis',(0.,1.,0.));
#1283=DIRECTION('ref_axis',(0.707106781186548,0.,-0.707106781186547));
#1284=DIRECTION('center_axis',(0.,0.,-1.));
#1285=DIRECTION('ref_axis',(-1.,0.,0.));
#1286=DIRECTION('',(0.,-1.,0.));
#1287=DIRECTION('center_axis',(0.,-1.,0.));
#1288=DIRECTION('ref_axis',(1.,0.,0.));
#1289=DIRECTION('center_axis',(0.,1.,0.));
#1290=DIRECTION('ref_axis',(0.,0.,1.));
#1291=DIRECTION('center_axis',(0.,0.,1.));
#1292=DIRECTION('ref_axis',(-1.,0.,0.));
#1293=DIRECTION('center_axis',(0.,1.,0.));
#1294=DIRECTION('ref_axis',(-0.707106781186548,0.,0.707106781186547));
#1295=DIRECTION('center_axis',(-1.,0.,0.));
#1296=DIRECTION('ref_axis',(0.,-1.,0.));
#1297=DIRECTION('center_axis',(0.,-1.,0.));
#1298=DIRECTION('ref_axis',(-0.707106781186548,0.,0.707106781186547));
#1299=DIRECTION('center_axis',(-1.,0.,-4.37960439974589E-17));
#1300=DIRECTION('ref_axis',(0.,-0.707106781186552,0.707106781186543));
#1301=DIRECTION('center_axis',(-1.,0.,0.));
#1302=DIRECTION('ref_axis',(0.,-1.,0.));
#1303=DIRECTION('',(-1.,0.,-4.37960439974589E-17));
#1304=DIRECTION('',(1.,0.,4.37960439974589E-17));
#1305=DIRECTION('center_axis',(0.,1.,0.));
#1306=DIRECTION('ref_axis',(0.,0.,1.));
#1307=DIRECTION('center_axis',(0.,0.,1.));
#1308=DIRECTION('ref_axis',(0.,-1.,0.));
#1309=DIRECTION('center_axis',(0.,-1.,0.));
#1310=DIRECTION('ref_axis',(0.707106781186548,0.,0.707106781186546));
#1311=DIRECTION('center_axis',(0.,1.,0.));
#1312=DIRECTION('ref_axis',(0.707106781186549,0.,0.707106781186547));
#1313=DIRECTION('center_axis',(0.,0.,1.));
#1314=DIRECTION('ref_axis',(0.707106781186548,-0.707106781186548,0.));
#1315=DIRECTION('center_axis',(0.,0.,1.));
#1316=DIRECTION('ref_axis',(0.,-1.,0.));
#1317=DIRECTION('',(0.,0.,1.));
#1318=DIRECTION('',(0.,0.,-1.));
#1319=DIRECTION('center_axis',(0.,1.,0.));
#1320=DIRECTION('ref_axis',(0.,0.,1.));
#1321=DIRECTION('center_axis',(1.,0.,0.));
#1322=DIRECTION('ref_axis',(0.,-1.,0.));
#1323=DIRECTION('center_axis',(0.,-1.,0.));
#1324=DIRECTION('ref_axis',(0.707106781186548,0.,-0.707106781186547));
#1325=DIRECTION('center_axis',(0.,1.,0.));
#1326=DIRECTION('ref_axis',(0.707106781186548,0.,-0.707106781186547));
#1327=DIRECTION('center_axis',(1.,0.,0.));
#1328=DIRECTION('ref_axis',(0.,-0.707106781186552,-0.707106781186543));
#1329=DIRECTION('center_axis',(1.,0.,0.));
#1330=DIRECTION('ref_axis',(0.,-1.,0.));
#1331=DIRECTION('',(1.,0.,0.));
#1332=DIRECTION('',(-1.,0.,0.));
#1333=DIRECTION('center_axis',(0.,1.,0.));
#1334=DIRECTION('ref_axis',(0.,0.,1.));
#1335=DIRECTION('center_axis',(0.,0.,-1.));
#1336=DIRECTION('ref_axis',(0.,-1.,0.));
#1337=DIRECTION('center_axis',(0.,-1.,0.));
#1338=DIRECTION('ref_axis',(-0.707106781186548,0.,-0.707106781186547));
#1339=DIRECTION('center_axis',(0.,1.,0.));
#1340=DIRECTION('ref_axis',(-0.707106781186548,0.,-0.707106781186547));
#1341=DIRECTION('center_axis',(0.,0.,-1.));
#1342=DIRECTION('ref_axis',(-0.707106781186548,-0.707106781186548,0.));
#1343=DIRECTION('',(0.,0.,1.));
#1344=DIRECTION('',(0.,0.,-1.));
#1345=DIRECTION('center_axis',(0.,0.,-1.));
#1346=DIRECTION('ref_axis',(1.,0.,0.));
#1347=DIRECTION('',(0.,1.,0.));
#1348=DIRECTION('',(0.,-1.,0.));
#1349=DIRECTION('center_axis',(0.,-1.,0.));
#1350=DIRECTION('ref_axis',(-0.70710678118655,0.,-0.707106781186545));
#1351=DIRECTION('',(0.,1.,0.));
#1352=DIRECTION('center_axis',(-1.,0.,0.));
#1353=DIRECTION('ref_axis',(0.,1.,0.));
#1354=DIRECTION('',(0.,1.,0.));
#1355=DIRECTION('',(0.,-1.,0.));
#1356=DIRECTION('',(0.,-1.,0.));
#1357=DIRECTION('center_axis',(0.,-1.,0.));
#1358=DIRECTION('ref_axis',(-0.70710678118655,0.,0.707106781186545));
#1359=DIRECTION('',(0.,1.,0.));
#1360=DIRECTION('center_axis',(0.,-1.,0.));
#1361=DIRECTION('ref_axis',(0.,0.,-1.));
#1362=DIRECTION('center_axis',(0.,0.,1.));
#1363=DIRECTION('ref_axis',(1.,0.,0.));
#1364=DIRECTION('',(0.,1.,0.));
#1365=DIRECTION('center_axis',(0.,1.,0.));
#1366=DIRECTION('ref_axis',(0.70710678118655,0.,-0.707106781186545));
#1367=DIRECTION('',(0.,1.,0.));
#1368=DIRECTION('center_axis',(1.,0.,0.));
#1369=DIRECTION('ref_axis',(0.,0.,-1.));
#1370=DIRECTION('',(0.,-1.,0.));
#1371=DIRECTION('center_axis',(0.,1.,0.));
#1372=DIRECTION('ref_axis',(0.70710678118655,0.,0.707106781186545));
#1373=DIRECTION('center_axis',(0.,-1.,0.));
#1374=DIRECTION('ref_axis',(0.70710678118655,0.,-0.707106781186545));
#1375=DIRECTION('',(0.,-1.,0.));
#1376=DIRECTION('center_axis',(1.,0.,0.));
#1377=DIRECTION('ref_axis',(0.,0.,1.));
#1378=DIRECTION('',(0.,1.,0.));
#1379=DIRECTION('center_axis',(0.,-1.,0.));
#1380=DIRECTION('ref_axis',(0.707106781186539,0.,0.707106781186556));
#1381=DIRECTION('',(0.,-1.,0.));
#1382=DIRECTION('center_axis',(0.,0.,-1.));
#1383=DIRECTION('ref_axis',(-1.,0.,0.));
#1384=DIRECTION('',(0.,-1.,0.));
#1385=DIRECTION('center_axis',(-4.37960439974589E-17,0.,1.));
#1386=DIRECTION('ref_axis',(-1.,0.,-4.37960439974589E-17));
#1387=DIRECTION('center_axis',(0.,0.,1.));
#1388=DIRECTION('ref_axis',(1.,0.,0.));
#1389=DIRECTION('',(0.,1.,0.));
#1390=DIRECTION('center_axis',(1.,0.,0.));
#1391=DIRECTION('ref_axis',(0.,-1.,0.));
#1392=CARTESIAN_POINT('',(0.,0.,0.));
#1393=CARTESIAN_POINT('Origin',(172.809017246368,-80.4843237057381,11.096299036548));
#1394=CARTESIAN_POINT('',(172.809017246368,-80.4843237057381,13.329299036548));
#1395=CARTESIAN_POINT('',(172.809017246368,-79.6843237057381,14.129299036548));
#1396=CARTESIAN_POINT('Origin',(172.809017246368,-80.4843237057381,14.129299036548));
#1397=CARTESIAN_POINT('',(175.842017246368,-79.6843237057381,11.096299036548));
#1398=CARTESIAN_POINT('Origin',(172.809017246368,-79.6843237057381,11.096299036548));
#1399=CARTESIAN_POINT('',(175.042017246368,-80.4843237057381,11.096299036548));
#1400=CARTESIAN_POINT('Origin',(175.842017246368,-80.4843237057381,11.096299036548));
#1401=CARTESIAN_POINT('Origin',(172.809017246368,-80.4843237057381,11.096299036548));
#1402=CARTESIAN_POINT('Origin',(175.842017246368,-80.4843237057381,2.760149518274));
#1403=CARTESIAN_POINT('',(175.842017246368,-79.6843237057381,-5.037700963452));
#1404=CARTESIAN_POINT('',(175.042017246368,-80.4843237057381,-5.037700963452));
#1405=CARTESIAN_POINT('Origin',(175.842017246368,-80.4843237057381,-5.037700963452));
#1406=CARTESIAN_POINT('',(175.042017246368,-80.4843237057381,2.760149518274));
#1407=CARTESIAN_POINT('',(175.842017246368,-79.6843237057381,2.760149518274));
#1408=CARTESIAN_POINT('Origin',(172.809017246368,-80.4843237057381,-5.037700963452));
#1409=CARTESIAN_POINT('',(172.809017246368,-79.6843237057381,-8.070700963452));
#1410=CARTESIAN_POINT('',(172.809017246368,-80.4843237057381,-7.270700963452));
#1411=CARTESIAN_POINT('Origin',(172.809017246368,-80.4843237057381,-8.070700963452));
#1412=CARTESIAN_POINT('Origin',(172.809017246368,-80.4843237057381,-5.037700963452));
#1413=CARTESIAN_POINT('Origin',(172.809017246368,-79.6843237057381,-5.037700963452));
#1414=CARTESIAN_POINT('Origin',(150.042017246368,-80.4843237057381,-8.070700963452));
#1415=CARTESIAN_POINT('',(127.974792166427,-79.6843237057381,-8.070700963452));
#1416=CARTESIAN_POINT('',(127.974792166427,-80.4843237057381,-7.270700963452));
#1417=CARTESIAN_POINT('Origin',(127.974792166427,-80.4843237057381,-8.070700963452));
#1418=CARTESIAN_POINT('',(150.042017246368,-80.4843237057381,-7.270700963452));
#1419=CARTESIAN_POINT('',(150.042017246368,-79.6843237057381,-8.070700963452));
#1420=CARTESIAN_POINT('Origin',(127.974792166427,-80.4843237057381,-5.037700963452));
#1421=CARTESIAN_POINT('',(125.042017246368,-79.6843237057381,-5.81095400630029));
#1422=CARTESIAN_POINT('',(125.815581353209,-80.4843237057381,-5.60699672496873));
#1423=CARTESIAN_POINT('Origin',(125.042017246368,-80.4843237057381,-5.81095400630029));
#1424=CARTESIAN_POINT('Origin',(127.974792166427,-80.4843237057381,-5.037700963452));
#1425=CARTESIAN_POINT('Origin',(127.974792166427,-79.6843237057381,-5.037700963452));
#1426=CARTESIAN_POINT('Origin',(127.974792166427,-80.4843237057381,11.096299036548));
#1427=CARTESIAN_POINT('',(125.815581353209,-80.4843237057381,11.6655947980646));
#1428=CARTESIAN_POINT('',(125.042017246368,-79.6843237057381,11.8695520793962));
#1429=CARTESIAN_POINT('Origin',(125.042017246368,-80.4843237057381,11.8695520793962));
#1430=CARTESIAN_POINT('',(127.974792166427,-79.6843237057381,14.129299036548));
#1431=CARTESIAN_POINT('Origin',(127.974792166427,-79.6843237057381,11.096299036548));
#1432=CARTESIAN_POINT('',(127.974792166427,-80.4843237057381,13.329299036548));
#1433=CARTESIAN_POINT('Origin',(127.974792166427,-80.4843237057381,14.129299036548));
#1434=CARTESIAN_POINT('Origin',(127.974792166427,-80.4843237057381,11.096299036548));
#1435=CARTESIAN_POINT('Origin',(125.391904706398,-80.4843237057381,14.129299036548));
#1436=CARTESIAN_POINT('',(125.391904706398,-79.6843237057381,14.129299036548));
#1437=CARTESIAN_POINT('',(125.391904706398,-80.4843237057381,13.329299036548));
#1438=CARTESIAN_POINT('Origin',(127.974792166427,-80.4843237057381,-5.037700963452));
#1439=CARTESIAN_POINT('',(125.042017246368,-79.690626702247,-5.037700963452));
#1440=CARTESIAN_POINT('Ctrl Pts',(125.042017246368,-79.6843237057381,-5.81095400630029));
#1441=CARTESIAN_POINT('Ctrl Pts',(125.042017246368,-79.6843237057381,-5.73928759459509));
#1442=CARTESIAN_POINT('Ctrl Pts',(125.042017246368,-79.6850791889288,-5.65329121896683));
#1443=CARTESIAN_POINT('Ctrl Pts',(125.042017246368,-79.6878503040182,-5.41165362503575));
#1444=CARTESIAN_POINT('Ctrl Pts',(125.042017246368,-79.690626702247,-5.20768803481634));
#1445=CARTESIAN_POINT('Ctrl Pts',(125.042017246368,-79.690626702247,-5.037700963452));
#1446=CARTESIAN_POINT('',(125.741792166427,-80.4843237057381,-5.037700963452));
#1447=CARTESIAN_POINT('Origin',(124.941792166427,-80.4843237057381,-5.037700963452));
#1448=CARTESIAN_POINT('Origin',(127.974792166427,-80.4843237057381,-5.037700963452));
#1449=CARTESIAN_POINT('Origin',(127.974792166427,-80.4843237057381,11.096299036548));
#1450=CARTESIAN_POINT('',(125.042017246368,-79.690626702247,11.096299036548));
#1451=CARTESIAN_POINT('Ctrl Pts',(125.042017246368,-79.690626702247,11.096299036548));
#1452=CARTESIAN_POINT('Ctrl Pts',(125.042017246368,-79.690626702247,11.2662861079123));
#1453=CARTESIAN_POINT('Ctrl Pts',(125.042017246368,-79.6878503040182,11.4702516981317));
#1454=CARTESIAN_POINT('Ctrl Pts',(125.042017246368,-79.6850791889288,11.7118892920627));
#1455=CARTESIAN_POINT('Ctrl Pts',(125.042017246368,-79.6843237057381,11.797885667691));
#1456=CARTESIAN_POINT('Ctrl Pts',(125.042017246368,-79.6843237057381,11.8695520793962));
#1457=CARTESIAN_POINT('',(125.741792166427,-80.4843237057381,11.096299036548));
#1458=CARTESIAN_POINT('Origin',(127.974792166427,-80.4843237057381,11.096299036548));
#1459=CARTESIAN_POINT('Origin',(124.941792166427,-80.4843237057381,11.096299036548));
#1460=CARTESIAN_POINT('Origin',(124.941792166427,-80.4843237057381,-7.539850481726));
#1461=CARTESIAN_POINT('',(125.042017246368,-79.690626702247,-7.539850481726));
#1462=CARTESIAN_POINT('',(125.741792166427,-80.4843237057381,-7.539850481726));
#1463=CARTESIAN_POINT('Origin',(127.974792166427,-80.6843237057382,-5.037700963452));
#1464=CARTESIAN_POINT('',(125.741792166427,-89.1843237057381,-5.037700963452));
#1465=CARTESIAN_POINT('',(125.741792166427,-80.6843237057382,-5.037700963452));
#1466=CARTESIAN_POINT('',(127.974792166427,-89.1843237057381,-7.270700963452));
#1467=CARTESIAN_POINT('Origin',(127.974792166427,-89.1843237057381,-5.037700963452));
#1468=CARTESIAN_POINT('',(127.974792166427,-80.6843237057382,-7.270700963452));
#1469=CARTESIAN_POINT('Origin',(125.741792166427,-80.6843237057382,-7.270700963452));
#1470=CARTESIAN_POINT('',(125.741792166427,-89.1843237057381,11.096299036548));
#1471=CARTESIAN_POINT('',(125.741792166427,-80.6843237057382,11.096299036548));
#1472=CARTESIAN_POINT('',(125.741792166427,-89.1843237057381,-2.11233334845371));
#1473=CARTESIAN_POINT('Origin',(127.974792166427,-80.6843237057382,11.096299036548));
#1474=CARTESIAN_POINT('',(127.974792166427,-89.1843237057381,13.329299036548));
#1475=CARTESIAN_POINT('',(127.974792166427,-80.6843237057382,13.329299036548));
#1476=CARTESIAN_POINT('Origin',(127.974792166427,-89.1843237057381,11.096299036548));
#1477=CARTESIAN_POINT('Origin',(125.042017246368,-79.6843237057381,-7.809));
#1478=CARTESIAN_POINT('',(125.042017246368,-79.6843237057381,15.241));
#1479=CARTESIAN_POINT('',(125.042017246368,-79.6843237057381,-7.809));
#1480=CARTESIAN_POINT('',(208.542017246368,-79.6843237057381,15.241));
#1481=CARTESIAN_POINT('',(208.542017246368,-79.6843237057381,15.241));
#1482=CARTESIAN_POINT('',(208.542017246368,-79.6843237057381,-8.309));
#1483=CARTESIAN_POINT('',(208.542017246368,-79.6843237057381,-7.809));
#1484=CARTESIAN_POINT('',(125.042017246368,-79.6843237057381,-8.309));
#1485=CARTESIAN_POINT('',(208.542017246368,-79.6843237057381,-8.309));
#1486=CARTESIAN_POINT('',(125.042017246368,-79.6843237057381,-7.809));
#1487=CARTESIAN_POINT('Origin',(173.508711706881,-81.4843237057381,-5.826));
#1488=CARTESIAN_POINT('',(174.79107118551,-81.4843237057381,-7.65407088691065));
#1489=CARTESIAN_POINT('',(175.250492404902,-80.6843237057382,-8.309));
#1490=CARTESIAN_POINT('Origin',(175.250492404902,-81.4843237057381,-8.309));
#1491=CARTESIAN_POINT('',(176.541711706881,-80.6843237057382,-5.826));
#1492=CARTESIAN_POINT('Origin',(173.508711706881,-80.6843237057382,-5.826));
#1493=CARTESIAN_POINT('',(175.741711706881,-81.4843237057381,-5.826));
#1494=CARTESIAN_POINT('Origin',(176.541711706881,-81.4843237057381,-5.826));
#1495=CARTESIAN_POINT('Origin',(173.508711706881,-81.4843237057381,-5.826));
#1496=CARTESIAN_POINT('Origin',(176.541711706881,-81.4843237057381,-7.934));
#1497=CARTESIAN_POINT('',(176.541711706881,-80.6843237057382,11.9180685330892));
#1498=CARTESIAN_POINT('',(175.741711706881,-81.4843237057381,11.9180685330892));
#1499=CARTESIAN_POINT('Origin',(176.541711706881,-81.4843237057381,11.9180685330892));
#1500=CARTESIAN_POINT('',(175.741711706881,-81.4843237057381,-7.934));
#1501=CARTESIAN_POINT('',(176.541711706881,-80.6843237057382,-7.934));
#1502=CARTESIAN_POINT('Origin',(173.508711706881,-81.4843237057381,11.9180685330892));
#1503=CARTESIAN_POINT('',(173.508711706881,-80.6843237057382,14.9510685330892));
#1504=CARTESIAN_POINT('',(173.508711706881,-81.4843237057381,14.1510685330892));
#1505=CARTESIAN_POINT('Origin',(173.508711706881,-81.4843237057381,14.9510685330892));
#1506=CARTESIAN_POINT('Origin',(173.508711706881,-81.4843237057381,11.9180685330892));
#1507=CARTESIAN_POINT('Origin',(173.508711706881,-80.6843237057382,11.9180685330892));
#1508=CARTESIAN_POINT('Origin',(192.141864476625,-81.4843237057381,14.9510685330892));
#1509=CARTESIAN_POINT('',(127.275017246368,-80.6843237057382,14.9510685330892));
#1510=CARTESIAN_POINT('',(127.275017246368,-81.4843237057381,14.1510685330892));
#1511=CARTESIAN_POINT('Origin',(127.275017246368,-81.4843237057381,14.9510685330892));
#1512=CARTESIAN_POINT('',(192.141864476625,-81.4843237057381,14.1510685330892));
#1513=CARTESIAN_POINT('',(192.141864476625,-80.6843237057382,14.9510685330892));
#1514=CARTESIAN_POINT('Origin',(127.275017246368,-81.4843237057381,11.9180685330892));
#1515=CARTESIAN_POINT('',(125.042017246368,-80.6843237057382,13.970579190796));
#1516=CARTESIAN_POINT('',(125.042017246368,-81.4843237057381,11.9180685330892));
#1517=CARTESIAN_POINT('Ctrl Pts',(125.042017246368,-80.6843237057382,13.970579190796));
#1518=CARTESIAN_POINT('Ctrl Pts',(125.042017246368,-80.6843237057382,13.7100252945831));
#1519=CARTESIAN_POINT('Ctrl Pts',(125.042017246368,-80.7539766787722,13.4052177116308));
#1520=CARTESIAN_POINT('Ctrl Pts',(125.042017246368,-80.9919187353495,12.7478243156186));
#1521=CARTESIAN_POINT('Ctrl Pts',(125.042017246368,-81.2590795294595,12.2943847542875));
#1522=CARTESIAN_POINT('Ctrl Pts',(125.042017246368,-81.4843237057381,11.9180685330892));
#1523=CARTESIAN_POINT('Origin',(127.275017246368,-81.4843237057381,11.9180685330892));
#1524=CARTESIAN_POINT('Origin',(127.275017246368,-80.6843237057382,11.9180685330892));
#1525=CARTESIAN_POINT('Origin',(173.508711706881,-81.4843237057381,-5.826));
#1526=CARTESIAN_POINT('',(173.508711706881,-80.903376203807,-8.309));
#1527=CARTESIAN_POINT('Ctrl Pts',(173.508711706881,-80.903376203807,-8.309));
#1528=CARTESIAN_POINT('Ctrl Pts',(173.873864766135,-80.903376203807,-8.309));
#1529=CARTESIAN_POINT('Ctrl Pts',(174.300027498142,-80.8014436012104,-8.309));
#1530=CARTESIAN_POINT('Ctrl Pts',(174.843361762622,-80.7104053940787,-8.309));
#1531=CARTESIAN_POINT('Ctrl Pts',(175.064737052425,-80.6843237057382,-8.309));
#1532=CARTESIAN_POINT('Ctrl Pts',(175.250492404902,-80.6843237057382,-8.309));
#1533=CARTESIAN_POINT('',(173.508711706881,-81.4843237057381,-8.059));
#1534=CARTESIAN_POINT('Origin',(173.508711706881,-81.4843237057381,-5.826));
#1535=CARTESIAN_POINT('Origin',(173.508711706881,-81.4843237057381,-8.859));
#1536=CARTESIAN_POINT('Origin',(127.275017246368,-81.4843237057381,-5.826));
#1537=CARTESIAN_POINT('',(125.533236548347,-80.6843237057382,-8.309));
#1538=CARTESIAN_POINT('',(125.992657767739,-81.4843237057381,-7.65407088691065));
#1539=CARTESIAN_POINT('Origin',(125.533236548347,-81.4843237057381,-8.309));
#1540=CARTESIAN_POINT('',(125.042017246368,-81.4843237057381,-5.826));
#1541=CARTESIAN_POINT('Origin',(127.275017246368,-81.4843237057381,-5.826));
#1542=CARTESIAN_POINT('',(125.042017246368,-80.6843237057382,-7.87851065770682));
#1543=CARTESIAN_POINT('Ctrl Pts',(125.042017246368,-81.4843237057381,-5.826));
#1544=CARTESIAN_POINT('Ctrl Pts',(125.042017246368,-81.2590795294595,-6.20231622119837));
#1545=CARTESIAN_POINT('Ctrl Pts',(125.042017246368,-80.9919187353495,-6.65575578252943));
#1546=CARTESIAN_POINT('Ctrl Pts',(125.042017246368,-80.7539766787722,-7.31314917854165));
#1547=CARTESIAN_POINT('Ctrl Pts',(125.042017246368,-80.6843237057382,-7.6179567614939));
#1548=CARTESIAN_POINT('Ctrl Pts',(125.042017246368,-80.6843237057382,-7.8785106577068));
#1549=CARTESIAN_POINT('Origin',(127.275017246368,-80.6843237057382,-5.826));
#1550=CARTESIAN_POINT('Origin',(127.275017246368,-81.4843237057381,-5.826));
#1551=CARTESIAN_POINT('',(127.275017246368,-80.903376203807,-8.309));
#1552=CARTESIAN_POINT('Ctrl Pts',(125.533236548347,-80.6843237057382,-8.309));
#1553=CARTESIAN_POINT('Ctrl Pts',(125.718991900824,-80.6843237057382,-8.309));
#1554=CARTESIAN_POINT('Ctrl Pts',(125.940367190627,-80.7104053940787,-8.309));
#1555=CARTESIAN_POINT('Ctrl Pts',(126.483701455108,-80.8014436012104,-8.309));
#1556=CARTESIAN_POINT('Ctrl Pts',(126.909864187114,-80.903376203807,-8.309));
#1557=CARTESIAN_POINT('Ctrl Pts',(127.275017246368,-80.903376203807,-8.309));
#1558=CARTESIAN_POINT('',(127.275017246368,-81.4843237057381,-8.059));
#1559=CARTESIAN_POINT('Origin',(127.275017246368,-81.4843237057381,-8.859));
#1560=CARTESIAN_POINT('Origin',(127.275017246368,-81.4843237057381,-5.826));
#1561=CARTESIAN_POINT('Origin',(166.792017246368,-81.4843237057381,-8.859));
#1562=CARTESIAN_POINT('',(166.792017246368,-80.903376203807,-8.309));
#1563=CARTESIAN_POINT('',(166.792017246368,-81.4843237057381,-8.059));
#1564=CARTESIAN_POINT('Origin',(208.542017246368,-80.6843237057382,-7.809));
#1565=CARTESIAN_POINT('',(125.042017246368,-80.6843237057382,-8.309));
#1566=CARTESIAN_POINT('',(125.042017246368,-80.6843237057382,-7.809));
#1567=CARTESIAN_POINT('',(187.667017246368,-80.6843237057382,-8.309));
#1568=CARTESIAN_POINT('Origin',(208.542017246368,-80.6843237057382,-7.809));
#1569=CARTESIAN_POINT('',(208.542017246368,-80.6843237057382,-8.309));
#1570=CARTESIAN_POINT('',(187.667017246368,-80.6843237057382,-8.309));
#1571=CARTESIAN_POINT('',(208.542017246368,-80.6843237057382,15.241));
#1572=CARTESIAN_POINT('',(208.542017246368,-80.6843237057382,-7.809));
#1573=CARTESIAN_POINT('',(125.042017246368,-80.6843237057382,15.241));
#1574=CARTESIAN_POINT('',(209.542017246368,-80.6843237057382,15.241));
#1575=CARTESIAN_POINT('',(125.042017246368,-80.6843237057382,-7.809));
#1576=CARTESIAN_POINT('Origin',(162.716940861496,-89.1843237057381,-6.270700963452));
#1577=CARTESIAN_POINT('',(172.809017246368,-90.1843237057381,-6.270700963452));
#1578=CARTESIAN_POINT('',(172.809017246368,-89.1843237057381,-7.270700963452));
#1579=CARTESIAN_POINT('Origin',(172.809017246368,-89.1843237057381,-6.270700963452));
#1580=CARTESIAN_POINT('',(162.716940861496,-89.1843237057381,-7.270700963452));
#1581=CARTESIAN_POINT('',(127.974792166427,-90.1843237057381,-6.270700963452));
#1582=CARTESIAN_POINT('Origin',(127.974792166427,-89.1843237057381,-6.270700963452));
#1583=CARTESIAN_POINT('',(162.716940861496,-90.1843237057381,-6.270700963452));
#1584=CARTESIAN_POINT('Origin',(127.974792166427,-89.1843237057381,-5.037700963452));
#1585=CARTESIAN_POINT('',(126.741792166427,-90.1843237057381,-5.037700963452));
#1586=CARTESIAN_POINT('Origin',(126.741792166427,-89.1843237057381,-5.037700963452));
#1587=CARTESIAN_POINT('Origin',(127.974792166427,-90.1843237057381,-5.037700963452));
#1588=CARTESIAN_POINT('Origin',(126.741792166427,-89.1843237057381,-2.11233334845371));
#1589=CARTESIAN_POINT('',(126.741792166427,-90.1843237057381,11.096299036548));
#1590=CARTESIAN_POINT('Origin',(126.741792166427,-89.1843237057381,11.096299036548));
#1591=CARTESIAN_POINT('',(126.741792166427,-90.1843237057381,-2.11233334845371));
#1592=CARTESIAN_POINT('Origin',(127.974792166427,-89.1843237057381,11.096299036548));
#1593=CARTESIAN_POINT('',(127.974792166427,-90.1843237057381,12.329299036548));
#1594=CARTESIAN_POINT('Origin',(127.974792166427,-89.1843237057381,12.329299036548));
#1595=CARTESIAN_POINT('Origin',(127.974792166427,-90.1843237057381,11.096299036548));
#1596=CARTESIAN_POINT('Origin',(138.066828321526,-89.1843237057381,12.329299036548));
#1597=CARTESIAN_POINT('',(172.809017246368,-89.1843237057381,13.329299036548));
#1598=CARTESIAN_POINT('',(172.809017246368,-90.1843237057381,12.329299036548));
#1599=CARTESIAN_POINT('Origin',(172.809017246368,-89.1843237057381,12.329299036548));
#1600=CARTESIAN_POINT('',(138.066828321526,-90.1843237057381,12.329299036548));
#1601=CARTESIAN_POINT('',(138.066828321526,-89.1843237057381,13.329299036548));
#1602=CARTESIAN_POINT('Origin',(172.809017246368,-89.1843237057381,11.096299036548));
#1603=CARTESIAN_POINT('',(175.042017246368,-89.1843237057381,11.096299036548));
#1604=CARTESIAN_POINT('',(174.042017246368,-90.1843237057381,11.096299036548));
#1605=CARTESIAN_POINT('Origin',(174.042017246368,-89.1843237057381,11.096299036548));
#1606=CARTESIAN_POINT('Origin',(172.809017246368,-90.1843237057381,11.096299036548));
#1607=CARTESIAN_POINT('Origin',(172.809017246368,-89.1843237057381,11.096299036548));
#1608=CARTESIAN_POINT('Origin',(174.042017246368,-89.1843237057381,8.18766665154629));
#1609=CARTESIAN_POINT('',(175.042017246368,-89.1843237057381,-5.037700963452));
#1610=CARTESIAN_POINT('',(174.042017246368,-90.1843237057381,-5.037700963452));
#1611=CARTESIAN_POINT('Origin',(174.042017246368,-89.1843237057381,-5.037700963452));
#1612=CARTESIAN_POINT('',(174.042017246368,-90.1843237057381,8.18766665154629));
#1613=CARTESIAN_POINT('',(175.042017246368,-89.1843237057381,8.18766665154629));
#1614=CARTESIAN_POINT('Origin',(172.809017246368,-89.1843237057381,-5.037700963452));
#1615=CARTESIAN_POINT('Origin',(172.809017246368,-90.1843237057381,-5.037700963452));
#1616=CARTESIAN_POINT('Origin',(172.809017246368,-89.1843237057381,-5.037700963452));
#1617=CARTESIAN_POINT('Origin',(175.042017246368,-80.6843237057382,-7.270700963452));
#1618=CARTESIAN_POINT('',(172.809017246368,-80.6843237057382,-7.270700963452));
#1619=CARTESIAN_POINT('Origin',(150.391864476625,-90.1843237057381,3.04603426654458));
#1620=CARTESIAN_POINT('Origin',(127.275017246368,-89.6843237057382,11.9180685330892));
#1621=CARTESIAN_POINT('',(125.042017246368,-89.6843237057382,11.9180685330892));
#1622=CARTESIAN_POINT('',(126.042017246368,-90.6843237057382,11.9180685330892));
#1623=CARTESIAN_POINT('Origin',(126.042017246368,-89.6843237057382,11.9180685330892));
#1624=CARTESIAN_POINT('',(127.275017246368,-90.6843237057382,13.1510685330892));
#1625=CARTESIAN_POINT('Origin',(127.275017246368,-90.6843237057382,11.9180685330892));
#1626=CARTESIAN_POINT('',(127.275017246368,-89.6843237057382,14.1510685330892));
#1627=CARTESIAN_POINT('Origin',(127.275017246368,-89.6843237057382,13.1510685330892));
#1628=CARTESIAN_POINT('Origin',(127.275017246368,-89.6843237057382,11.9180685330892));
#1629=CARTESIAN_POINT('Origin',(163.066788091753,-89.6843237057382,13.1510685330892));
#1630=CARTESIAN_POINT('',(173.508711706881,-90.6843237057382,13.1510685330892));
#1631=CARTESIAN_POINT('',(173.508711706881,-89.6843237057382,14.1510685330892));
#1632=CARTESIAN_POINT('Origin',(173.508711706881,-89.6843237057382,13.1510685330892));
#1633=CARTESIAN_POINT('',(163.066788091753,-89.6843237057382,14.1510685330892));
#1634=CARTESIAN_POINT('',(163.066788091753,-90.6843237057382,13.1510685330892));
#1635=CARTESIAN_POINT('Origin',(173.508711706881,-89.6843237057382,11.9180685330892));
#1636=CARTESIAN_POINT('',(174.741711706881,-90.6843237057382,11.9180685330892));
#1637=CARTESIAN_POINT('',(175.741711706881,-89.6843237057382,11.9180685330892));
#1638=CARTESIAN_POINT('Origin',(174.741711706881,-89.6843237057382,11.9180685330892));
#1639=CARTESIAN_POINT('Origin',(173.508711706881,-89.6843237057382,11.9180685330892));
#1640=CARTESIAN_POINT('Origin',(173.508711706881,-90.6843237057382,11.9180685330892));
#1641=CARTESIAN_POINT('Origin',(174.741711706881,-89.6843237057382,-2.50648286672771));
#1642=CARTESIAN_POINT('',(174.741711706881,-90.6843237057382,-5.826));
#1643=CARTESIAN_POINT('',(175.741711706881,-89.6843237057382,-5.826));
#1644=CARTESIAN_POINT('Origin',(174.741711706881,-89.6843237057382,-5.826));
#1645=CARTESIAN_POINT('',(175.741711706881,-89.6843237057382,-2.50648286672771));
#1646=CARTESIAN_POINT('',(174.741711706881,-90.6843237057382,-2.50648286672771));
#1647=CARTESIAN_POINT('Origin',(173.508711706881,-89.6843237057382,-5.826));
#1648=CARTESIAN_POINT('',(173.508711706881,-90.6843237057382,-7.059));
#1649=CARTESIAN_POINT('',(173.508711706881,-89.6843237057382,-8.059));
#1650=CARTESIAN_POINT('Origin',(173.508711706881,-89.6843237057382,-7.059));
#1651=CARTESIAN_POINT('Origin',(173.508711706881,-89.6843237057382,-5.826));
#1652=CARTESIAN_POINT('Origin',(173.508711706881,-90.6843237057382,-5.826));
#1653=CARTESIAN_POINT('Origin',(137.716940861496,-89.6843237057382,-7.059));
#1654=CARTESIAN_POINT('',(127.275017246368,-90.6843237057382,-7.059));
#1655=CARTESIAN_POINT('',(127.275017246368,-89.6843237057382,-8.059));
#1656=CARTESIAN_POINT('Origin',(127.275017246368,-89.6843237057382,-7.059));
#1657=CARTESIAN_POINT('',(137.716940861496,-89.6843237057382,-8.059));
#1658=CARTESIAN_POINT('',(137.716940861496,-90.6843237057382,-7.059));
#1659=CARTESIAN_POINT('Origin',(127.275017246368,-89.6843237057382,-5.826));
#1660=CARTESIAN_POINT('',(126.042017246368,-90.6843237057382,-5.826));
#1661=CARTESIAN_POINT('',(125.042017246368,-89.6843237057382,-5.826));
#1662=CARTESIAN_POINT('Origin',(126.042017246368,-89.6843237057382,-5.826));
#1663=CARTESIAN_POINT('Origin',(127.275017246368,-89.6843237057382,-5.826));
#1664=CARTESIAN_POINT('Origin',(127.275017246368,-90.6843237057382,-5.826));
#1665=CARTESIAN_POINT('Origin',(126.042017246368,-89.6843237057382,-2.38148286672771));
#1666=CARTESIAN_POINT('',(126.042017246368,-90.6843237057382,-2.38148286672771));
#1667=CARTESIAN_POINT('',(125.042017246368,-89.6843237057382,-2.38148286672771));
#1668=CARTESIAN_POINT('Origin',(125.042017246368,-80.6843237057382,-8.059));
#1669=CARTESIAN_POINT('',(173.508711706881,-80.6843237057382,-8.059));
#1670=CARTESIAN_POINT('',(127.275017246368,-80.6843237057382,-8.059));
#1671=CARTESIAN_POINT('Origin',(127.275017246368,-80.6843237057382,-5.826));
#1672=CARTESIAN_POINT('',(125.042017246368,-80.6843237057382,-5.826));
#1673=CARTESIAN_POINT('Origin',(125.042017246368,-80.6843237057382,-7.809));
#1674=CARTESIAN_POINT('',(125.042017246368,-79.6843237057381,-8.309));
#1675=CARTESIAN_POINT('',(125.042017246368,-80.6843237057382,11.9180685330892));
#1676=CARTESIAN_POINT('',(125.042017246368,-79.6843237057381,15.241));
#1677=CARTESIAN_POINT('Origin',(127.275017246368,-80.6843237057382,11.9180685330892));
#1678=CARTESIAN_POINT('',(127.275017246368,-80.6843237057382,14.1510685330892));
#1679=CARTESIAN_POINT('Origin',(150.391864476625,-90.6843237057382,3.04603426654458));
#1680=CARTESIAN_POINT('Origin',(125.741792166427,-80.6843237057382,13.329299036548));
#1681=CARTESIAN_POINT('',(172.809017246368,-80.6843237057382,13.329299036548));
#1682=CARTESIAN_POINT('Origin',(172.809017246368,-80.6843237057382,-5.037700963452));
#1683=CARTESIAN_POINT('',(175.042017246368,-80.6843237057382,-5.037700963452));
#1684=CARTESIAN_POINT('Origin',(175.042017246368,-80.6843237057382,13.329299036548));
#1685=CARTESIAN_POINT('',(175.042017246368,-80.6843237057382,11.096299036548));
#1686=CARTESIAN_POINT('Origin',(172.809017246368,-80.6843237057382,11.096299036548));
#1687=CARTESIAN_POINT('Origin',(173.508711706881,-80.6843237057382,-5.826));
#1688=CARTESIAN_POINT('',(175.741711706881,-80.6843237057382,-5.826));
#1689=CARTESIAN_POINT('Origin',(175.741711706881,-80.6843237057382,-8.059));
#1690=CARTESIAN_POINT('',(175.741711706881,-80.6843237057382,11.9180685330892));
#1691=CARTESIAN_POINT('Origin',(173.508711706881,-80.6843237057382,11.9180685330892));
#1692=CARTESIAN_POINT('',(173.508711706881,-80.6843237057382,14.1510685330892));
#1693=CARTESIAN_POINT('Origin',(166.792017246368,-80.1843237057381,-8.309));
#1694=CARTESIAN_POINT('',(208.542017246368,-79.6843237057381,-8.309));
#1695=CARTESIAN_POINT('Origin',(175.741711706881,-80.6843237057382,14.1510685330892));
#1696=CARTESIAN_POINT('Origin',(166.792017246368,-80.1843237057381,15.241));
#1697=CARTESIAN_POINT('',(208.542017246368,-79.6843237057381,15.241));
#1698=CARTESIAN_POINT('Origin',(208.542017246368,-79.6843237057381,-7.809));
#1699=UNCERTAINTY_MEASURE_WITH_UNIT(LENGTH_MEASURE(0.01),#1703,
'DISTANCE_ACCURACY_VALUE',
'Maximum model space distance between geometric entities at asserted c
onnectivities');
#1700=UNCERTAINTY_MEASURE_WITH_UNIT(LENGTH_MEASURE(0.01),#1703,
'DISTANCE_ACCURACY_VALUE',
'Maximum model space distance between geometric entities at asserted c
onnectivities');
#1701=(
GEOMETRIC_REPRESENTATION_CONTEXT(3)
GLOBAL_UNCERTAINTY_ASSIGNED_CONTEXT((#1699))
GLOBAL_UNIT_ASSIGNED_CONTEXT((#1703,#1704,#1705))
REPRESENTATION_CONTEXT('','3D')
);
#1702=(
GEOMETRIC_REPRESENTATION_CONTEXT(3)
GLOBAL_UNCERTAINTY_ASSIGNED_CONTEXT((#1700))
GLOBAL_UNIT_ASSIGNED_CONTEXT((#1703,#1704,#1705))
REPRESENTATION_CONTEXT('','3D')
);
#1703=(
LENGTH_UNIT()
NAMED_UNIT(*)
SI_UNIT(.MILLI.,.METRE.)
);
#1704=(
NAMED_UNIT(*)
PLANE_ANGLE_UNIT()
SI_UNIT($,.RADIAN.)
);
#1705=(
NAMED_UNIT(*)
SI_UNIT($,.STERADIAN.)
SOLID_ANGLE_UNIT()
);
#1706=SHAPE_DEFINITION_REPRESENTATION(#1707,#1708);
#1707=PRODUCT_DEFINITION_SHAPE('',$,#1710);
#1708=SHAPE_REPRESENTATION('',(#941),#1701);
#1709=PRODUCT_DEFINITION_CONTEXT('part definition',#1714,'design');
#1710=PRODUCT_DEFINITION('Mini Kindle 1','Mini Kindle v13',#1711,#1709);
#1711=PRODUCT_DEFINITION_FORMATION('',$,#1716);
#1712=PRODUCT_RELATED_PRODUCT_CATEGORY('Mini Kindle v13',
'Mini Kindle v13',(#1716));
#1713=APPLICATION_PROTOCOL_DEFINITION('international standard',
'automotive_design',2009,#1714);
#1714=APPLICATION_CONTEXT(
'Core Data for Automotive Mechanical Design Process');
#1715=PRODUCT_CONTEXT('part definition',#1714,'mechanical');
#1716=PRODUCT('Mini Kindle 1','Mini Kindle v13',
'KiCad electronic assembly',(#1715));
#1717=PRESENTATION_STYLE_ASSIGNMENT((#1718));
#1718=SURFACE_STYLE_USAGE(.BOTH.,#1719);
#1719=SURFACE_SIDE_STYLE('',(#1720));
#1720=SURFACE_STYLE_FILL_AREA(#1721);
#1721=FILL_AREA_STYLE('Steel - Satin',(#1722));
#1722=FILL_AREA_STYLE_COLOUR('Steel - Satin',#1723);
#1723=COLOUR_RGB('Steel - Satin',0.627450980392157,0.627450980392157,0.627450980392157);
ENDSEC;
END-ISO-10303-21;
